if (_typeface_js && _typeface_js.loadFace) _typeface_js.loadFace({"glyphs":{"S":{"x_min":27.53125,"x_max":1004,"ha":1031,"o":"m 487 -163 q 386 -148 438 -148 q 281 -143 334 -148 q 185 -110 228 -138 q 94 -62 141 -81 l 65 -23 l 94 -44 l 103 -33 l 75 5 l 84 15 l 46 81 l 75 62 l 84 71 l 65 90 l 75 120 l 56 139 l 75 148 l 27 205 l 65 177 l 75 196 l 94 177 l 103 196 l 84 215 l 122 186 l 132 196 l 141 186 l 151 196 l 180 177 l 190 186 l 141 253 l 190 215 l 199 224 q 300 163 247 196 q 410 130 353 130 q 529 130 467 130 q 659 130 592 130 l 717 224 q 597 316 669 292 q 453 349 525 340 q 309 378 381 359 q 180 455 237 397 q 132 560 148 502 q 117 675 117 618 q 100 785 117 733 q 94 905 84 838 q 117 943 103 924 q 141 986 132 963 q 175 1024 151 1009 q 219 1049 199 1039 q 324 1091 275 1068 q 425 1139 372 1115 q 544 1163 478 1163 q 669 1163 611 1163 l 898 1039 l 888 1028 l 937 981 l 870 1028 l 860 1019 l 879 963 l 917 943 l 907 934 l 926 915 l 907 924 l 898 915 l 917 886 l 850 924 l 841 905 l 860 876 l 850 886 l 841 838 l 879 819 l 822 857 l 812 838 l 803 838 l 735 886 l 726 876 l 717 886 l 707 866 l 764 819 l 659 876 l 650 866 l 707 819 q 678 838 688 828 q 655 861 669 847 q 621 876 640 876 q 592 886 601 876 l 467 838 l 457 800 l 506 665 q 616 642 563 656 q 721 598 669 627 q 821 545 773 569 q 917 493 870 522 l 937 445 l 956 436 q 975 378 966 407 q 994 316 985 349 q 1004 249 1004 283 q 1004 177 1004 215 q 989 100 994 139 q 966 33 985 62 q 927 -28 947 5 q 879 -91 907 -62 l 812 -148 l 659 -167 l 640 -163 l 487 -163 m 582 -157 l 544 -148 l 534 -157 l 573 -167 l 582 -157 m 410 -138 l 391 -129 l 381 -138 l 400 -148 l 410 -138 m 275 -129 l 256 -119 l 247 -129 l 266 -138 l 275 -129 m 304 -119 l 294 -110 l 285 -119 l 294 -129 l 304 -119 m 238 -110 l 219 -100 l 209 -110 l 228 -119 l 238 -110 m 304 -100 l 247 -81 l 238 -91 l 294 -110 l 304 -100 m 199 -91 l 180 -81 l 171 -91 l 190 -100 l 199 -91 m 870 -91 l 870 -81 l 860 -72 l 717 -138 l 754 -148 l 870 -91 m 238 -81 l 228 -72 l 219 -81 l 228 -91 l 238 -81 m 160 -72 l 112 -44 l 103 -53 l 151 -81 l 160 -72 m 219 -72 l 209 -62 l 199 -72 l 209 -81 l 219 -72 m 199 -62 l 190 -53 l 180 -62 l 190 -72 l 199 -62 m 180 -53 l 171 -44 l 160 -53 l 171 -62 l 180 -53 m 898 -53 l 888 -44 l 879 -53 l 888 -62 l 898 -53 m 219 -44 l 209 -33 l 199 -44 l 209 -53 l 219 -44 m 907 -44 l 898 -33 l 888 -44 l 907 -44 m 122 -33 l 112 -23 l 103 -33 l 112 -44 l 122 -33 m 190 -33 l 180 -23 l 171 -33 l 180 -44 l 190 -33 m 888 -33 l 879 -23 l 870 -33 l 879 -44 l 888 -33 m 160 -14 l 141 -4 l 132 -14 l 151 -23 l 160 -14 m 112 -4 l 103 5 l 94 -4 l 103 -14 l 112 -4 m 122 5 l 112 15 l 103 5 l 122 5 m 907 5 l 898 15 l 888 5 l 898 -4 l 907 5 m 917 15 l 907 24 l 898 15 l 917 15 m 966 62 l 956 71 l 947 62 l 956 52 l 966 62 m 975 81 l 966 90 l 956 71 l 975 81 m 947 100 l 947 109 l 937 120 l 926 100 l 937 90 l 947 100 m 313 109 l 304 120 l 294 109 l 304 100 l 313 109 m 688 109 l 678 120 l 669 109 l 678 100 l 688 109 m 506 120 l 419 130 l 410 120 l 496 109 l 506 120 m 640 120 l 563 130 l 553 120 l 631 109 l 640 120 m 697 130 l 669 139 l 659 130 l 688 120 l 697 130 m 275 139 l 256 148 l 247 139 l 266 130 l 275 139 m 985 139 l 985 186 l 975 196 l 966 139 l 975 130 l 985 139 m 238 148 l 238 158 l 190 186 l 180 177 l 228 139 l 238 148 m 678 148 l 669 158 l 659 148 l 669 139 l 678 148 m 717 148 l 717 158 l 735 196 l 726 205 l 688 158 l 717 148 m 141 158 l 132 167 l 122 158 l 132 148 l 141 158 m 926 158 l 917 167 l 907 158 l 917 148 l 926 158 m 75 167 l 65 177 l 56 167 l 65 158 l 75 167 m 171 167 l 160 177 l 151 167 l 160 158 l 171 167 m 956 167 l 947 177 l 937 167 l 947 158 l 956 167 m 132 177 l 122 186 l 112 177 l 122 167 l 132 177 m 199 196 l 190 205 l 180 196 l 190 186 l 199 196 m 754 196 l 745 205 l 735 196 l 745 186 l 754 196 m 745 215 l 745 224 l 735 234 l 726 205 l 735 196 l 745 215 m 726 234 l 726 253 l 620 321 l 611 311 l 717 224 l 726 234 m 735 292 l 726 302 l 717 292 l 726 283 l 735 292 m 688 311 l 678 321 l 669 311 l 678 302 l 688 311 m 966 311 l 966 321 l 956 330 l 947 311 l 956 302 l 966 311 m 717 321 l 707 330 l 697 321 l 707 311 l 717 321 m 582 330 l 563 340 l 553 330 l 573 321 l 582 330 m 669 330 l 631 349 l 620 340 l 659 321 l 669 330 m 544 340 l 525 349 l 515 340 l 534 330 l 544 340 m 601 340 l 582 349 l 573 340 l 601 340 m 515 349 l 487 359 l 477 349 l 506 340 l 515 349 m 573 349 l 544 359 l 534 349 l 573 349 m 534 359 l 515 368 l 506 359 l 534 359 m 400 368 l 391 378 l 381 368 l 391 359 l 400 368 m 477 368 l 448 378 l 438 368 l 467 359 l 477 368 m 362 378 l 343 387 l 334 378 l 353 368 l 362 378 m 419 378 l 400 387 l 391 378 l 419 378 m 515 387 l 496 397 l 487 387 l 506 378 l 515 387 m 324 397 q 271 430 294 416 q 223 460 247 445 q 180 498 199 474 q 151 550 160 522 l 141 522 l 171 455 l 334 378 l 343 387 l 324 397 m 353 397 l 343 407 l 334 397 l 343 387 l 353 397 m 410 397 l 400 407 l 391 397 l 400 387 l 410 397 m 467 397 l 457 407 l 448 397 l 457 387 l 467 397 m 362 407 l 353 416 l 343 407 l 362 407 m 391 407 l 381 416 l 372 407 l 381 397 l 391 407 m 419 407 l 410 416 l 400 407 l 419 407 m 343 416 l 266 455 l 256 445 l 334 407 l 343 416 m 372 416 l 362 426 l 353 416 l 372 416 m 947 416 l 937 426 l 926 416 l 937 407 l 947 416 m 419 426 l 410 436 l 400 426 l 410 416 l 419 426 m 362 436 l 353 445 l 343 436 l 353 426 l 362 436 m 937 436 l 926 445 l 917 436 l 926 426 l 937 436 m 313 445 l 304 455 l 294 445 l 304 436 l 313 445 m 343 445 l 334 455 l 324 445 l 334 436 l 343 445 m 247 464 l 238 474 l 228 464 l 238 455 l 247 464 m 228 474 l 219 484 l 209 474 l 219 464 l 228 474 m 266 484 l 219 503 l 219 484 l 266 484 m 907 484 l 898 493 l 888 484 l 898 474 l 907 484 m 209 493 l 190 512 l 180 484 l 199 484 l 209 493 m 850 493 l 841 503 l 831 493 l 841 484 l 850 493 m 209 512 l 199 522 l 190 512 l 199 503 l 209 512 m 850 522 l 841 531 l 831 522 l 841 512 l 850 522 m 180 541 l 171 550 l 160 541 l 171 531 l 180 541 m 275 541 l 266 550 l 256 541 l 266 531 l 275 541 m 180 569 l 151 618 l 141 589 l 151 560 l 171 560 l 180 569 m 620 569 l 611 580 l 601 569 l 611 560 l 620 569 m 669 608 l 650 618 l 640 608 l 659 599 l 669 608 m 611 618 l 601 627 l 592 618 l 601 608 l 611 618 m 515 627 l 487 637 l 477 627 l 506 618 l 515 627 m 457 637 l 448 646 l 438 637 l 448 627 l 457 637 m 132 656 l 132 703 l 122 713 l 112 656 l 122 646 l 132 656 m 467 656 l 457 665 l 448 656 l 457 646 l 467 656 m 477 684 l 467 694 l 457 684 l 467 675 l 477 684 m 448 722 l 438 733 l 429 722 l 438 713 l 448 722 m 448 762 l 438 771 l 429 762 l 438 752 l 448 762 m 112 781 q 131 842 122 809 q 151 905 141 876 q 180 962 160 934 q 219 1019 199 991 l 247 1039 l 219 1049 q 175 1024 199 1039 q 141 986 151 1009 q 117 943 132 963 q 94 905 103 924 l 94 781 l 103 771 l 112 781 m 429 819 l 429 847 l 419 857 l 410 819 l 419 809 l 429 819 m 457 838 l 448 847 l 438 838 l 448 828 l 457 838 m 650 900 l 525 900 l 515 891 l 640 891 l 650 900 m 678 896 l 669 905 l 659 896 l 669 886 l 678 896 m 707 896 l 697 905 l 688 896 l 697 886 l 707 896 m 209 915 l 199 924 l 190 915 l 199 905 l 209 915 m 870 924 l 860 934 l 850 924 l 860 915 l 870 924 m 228 943 l 219 953 l 209 943 l 219 934 l 228 943 m 879 943 l 870 953 l 860 943 l 870 934 l 879 943 m 199 953 l 190 963 l 180 953 l 190 943 l 199 953 m 898 953 l 888 963 l 879 953 l 888 943 l 898 953 m 219 963 l 219 972 l 228 991 l 219 1000 l 190 963 l 219 963 m 870 972 l 860 981 l 850 972 l 860 963 l 870 972 m 247 981 l 238 991 l 228 981 l 238 972 l 247 981 m 256 991 l 247 1000 l 238 991 l 256 991 m 238 1019 l 228 1028 l 219 1019 l 228 1009 l 238 1019 m 831 1019 l 822 1028 l 812 1019 l 822 1009 l 831 1019 m 256 1049 l 247 1058 l 238 1049 l 247 1039 l 256 1049 m 275 1058 l 266 1068 l 256 1058 l 266 1049 l 275 1058 m 313 1058 l 304 1068 l 294 1058 l 304 1049 l 313 1058 m 324 1077 l 313 1087 l 304 1077 l 313 1068 l 324 1077 m 343 1087 l 334 1096 l 324 1087 l 334 1077 l 343 1087 m 477 1087 l 467 1096 l 457 1087 l 467 1077 l 477 1087 m 400 1106 l 391 1115 l 381 1106 l 391 1096 l 400 1106 m 726 1125 l 620 1134 l 611 1125 l 717 1115 l 726 1125 m 553 1134 l 506 1144 l 496 1134 l 544 1125 l 553 1134 "},"¦":{"x_min":0,"x_max":0,"ha":694},"/":{"x_min":27,"x_max":556,"ha":587,"o":"m 133 -170 l 133 -154 l 141 -146 l 116 -105 l 100 -105 l 76 -146 l 68 -146 l 68 -130 l 84 -80 l 76 -72 l 51 -113 l 35 -96 l 27 -113 l 27 -96 l 59 10 l 51 18 l 35 2 l 51 18 l 59 10 l 116 117 l 108 125 l 150 257 l 141 273 q 191 483 166 380 q 228 692 216 585 q 265 902 240 799 q 315 1111 290 1004 l 315 1062 l 298 939 l 307 931 l 356 1119 l 356 1071 l 380 1071 l 388 1136 l 404 1111 l 421 1168 l 430 1128 l 438 1160 l 446 1103 l 463 1103 l 471 1087 l 487 1128 l 495 1103 l 512 1168 l 519 1103 l 528 1128 l 536 1128 l 536 1079 l 528 1053 l 536 1045 l 556 1087 l 556 988 q 527 692 527 840 q 476 400 527 544 q 375 121 425 256 q 216 -130 325 -14 l 200 -130 l 200 -146 l 191 -138 l 183 -154 l 183 -138 l 191 -121 l 183 -113 l 158 -154 l 150 -146 l 133 -170 m 100 -96 l 92 -88 l 84 -96 l 92 -105 l 100 -96 m 200 -54 l 191 -46 l 183 -54 l 191 -64 l 200 -54 m 248 -46 l 240 -38 l 232 -46 l 240 -54 l 248 -46 m 339 198 l 331 206 l 323 198 l 331 190 l 339 198 m 183 273 l 183 281 l 191 305 l 183 314 l 166 273 l 174 265 l 183 273 m 191 330 l 191 338 l 183 346 l 174 330 l 183 322 l 191 330 m 200 346 l 200 354 l 191 364 l 183 346 l 191 338 l 200 346 m 455 364 l 446 372 l 438 364 l 446 354 l 455 364 m 183 372 l 174 380 l 166 372 l 174 364 l 183 372 m 200 380 l 200 388 q 228 519 216 453 q 258 655 240 585 q 277 790 277 725 q 290 931 277 856 l 281 939 q 248 803 264 872 q 224 663 232 733 q 203 523 216 593 q 183 380 191 453 l 191 372 l 200 380 m 463 396 l 455 405 l 446 396 l 455 388 l 463 396 m 471 429 l 463 437 l 455 429 l 463 421 l 471 429 m 495 528 l 487 536 l 479 528 l 487 520 l 495 528 m 503 552 l 495 561 l 487 552 l 495 544 l 503 552 m 512 585 l 503 593 l 495 585 l 503 577 l 512 585 m 512 634 l 512 643 l 503 651 l 495 634 l 503 626 l 512 634 m 519 692 l 519 716 l 512 725 l 503 692 l 512 684 l 519 692 m 528 765 l 528 832 l 519 840 l 512 765 l 519 757 l 528 765 m 307 905 l 307 913 l 298 923 l 290 905 l 298 897 l 307 905 m 544 988 l 536 996 l 528 988 l 536 980 l 544 988 "},"y":{"x_min":26.796875,"x_max":1184.84375,"ha":1212,"o":"m 580 -176 l 580 -155 l 571 -145 l 561 -155 l 561 -126 l 521 -126 l 511 -135 l 521 -145 l 511 -145 l 500 -115 l 491 -126 l 450 -35 l 441 -74 l 430 -44 l 420 -55 l 420 -5 l 430 5 l 400 146 l 409 156 l 389 176 l 400 185 l 389 206 l 400 267 l 379 417 l 389 428 l 329 518 l 338 529 l 88 821 l 97 811 l 108 830 l 67 880 l 88 861 l 97 880 l 67 921 l 77 932 l 26 1032 l 37 1042 l 26 1052 l 37 1042 l 58 1062 l 37 1083 l 47 1072 l 58 1092 l 47 1103 l 58 1103 l 58 1083 l 88 1083 l 88 1103 l 67 1123 l 117 1092 l 128 1103 l 77 1153 l 158 1092 l 167 1103 l 158 1112 l 197 1072 l 208 1103 l 197 1112 l 249 1042 l 268 1042 l 400 861 l 409 891 l 319 1002 q 369 926 338 961 q 429 856 400 891 q 495 790 459 821 q 561 730 530 760 l 571 741 l 561 730 l 580 709 l 762 891 l 771 880 l 974 1072 l 963 1062 l 983 1052 l 1083 1163 l 1065 1163 l 1065 1133 l 1094 1123 l 1144 1142 l 1134 1112 l 1164 1083 l 1184 1092 l 1164 1072 l 1174 1062 l 1153 1021 l 1174 1021 l 1184 1032 l 1174 1012 l 1184 1002 l 1104 921 l 1124 912 l 1174 961 l 727 488 l 727 176 q 716 126 721 156 q 712 65 712 96 q 712 5 712 35 q 712 -55 712 -24 l 721 -85 l 721 -65 l 712 -55 l 702 -65 l 682 -55 l 671 -65 l 691 -106 l 682 -106 l 671 -74 l 661 -115 l 650 -85 l 621 -106 l 611 -74 l 601 -106 l 580 -115 l 601 -145 l 580 -145 l 580 -176 m 530 -115 l 521 -106 l 511 -115 l 521 -126 l 530 -115 m 551 -115 l 551 -106 l 541 -95 l 530 -106 l 551 -115 m 571 -115 l 571 -95 l 551 -74 l 541 -95 l 571 -115 m 641 -85 l 641 -65 l 621 -65 l 611 -74 l 631 -106 l 641 -85 m 601 -74 l 601 -55 l 591 -44 l 580 -74 l 591 -85 l 601 -74 m 480 -44 l 470 -35 l 459 -44 l 470 -55 l 480 -44 m 707 -44 l 707 76 l 682 76 l 682 14 l 691 -14 l 682 -44 l 691 -55 l 707 -44 m 480 -24 l 470 -14 l 459 -24 l 470 -35 l 480 -24 m 409 176 l 400 185 l 389 176 l 400 166 l 409 176 m 420 206 l 420 217 l 409 226 l 400 206 l 409 196 l 420 206 m 441 217 l 441 226 l 430 237 l 420 217 l 430 206 l 441 217 m 450 256 l 450 276 l 441 287 l 430 256 l 441 246 l 450 256 m 420 276 l 420 287 l 409 297 l 400 276 l 409 267 l 420 276 m 400 327 l 400 417 l 389 428 l 379 327 l 389 317 l 400 327 m 420 347 l 420 397 l 409 408 l 400 347 l 409 337 l 420 347 m 420 417 l 409 428 l 400 417 l 409 408 l 420 417 m 420 447 l 420 458 l 409 468 l 400 447 l 409 438 l 420 447 m 379 468 l 369 478 l 359 468 l 369 458 l 379 468 m 420 478 l 409 488 l 400 478 l 409 468 l 420 478 m 389 488 l 389 499 l 379 508 l 369 488 l 379 478 l 389 488 m 721 499 l 803 600 l 782 600 l 702 499 l 712 488 l 721 499 m 359 508 l 338 529 l 329 508 l 359 468 l 369 488 l 359 508 m 400 508 l 389 518 l 379 508 l 389 499 l 400 508 m 349 549 l 338 559 l 329 549 l 338 538 l 349 549 m 721 549 l 712 559 l 702 549 l 712 538 l 721 549 m 732 559 l 721 568 l 712 559 l 732 559 m 349 568 l 338 579 l 329 568 l 338 559 l 349 568 m 741 568 l 732 579 l 721 568 l 741 568 m 278 620 l 268 629 l 258 620 l 268 609 l 278 620 m 803 629 l 792 639 l 782 629 l 792 620 l 803 629 m 812 639 l 803 650 l 792 639 l 812 639 m 842 639 l 832 650 l 823 639 l 832 629 l 842 639 m 258 650 l 249 659 l 238 650 l 249 639 l 258 650 m 853 650 l 842 659 l 832 650 l 853 650 m 862 659 l 853 670 l 842 659 l 862 659 m 228 670 l 218 680 l 208 670 l 218 659 l 228 670 m 873 670 l 862 680 l 853 670 l 873 670 m 892 680 l 974 741 l 974 760 l 963 771 l 862 680 l 892 680 m 208 689 l 197 700 l 188 689 l 197 680 l 208 689 m 551 689 l 541 700 l 530 689 l 541 680 l 551 689 m 178 730 l 167 741 l 158 730 l 167 720 l 178 730 m 500 730 l 491 741 l 480 730 l 491 720 l 500 730 m 551 730 l 541 741 l 530 730 l 541 720 l 551 730 m 621 741 l 611 750 l 601 741 l 611 730 l 621 741 m 218 750 l 208 760 l 197 750 l 208 741 l 218 750 m 480 750 l 470 760 l 459 750 l 470 741 l 480 750 m 631 750 l 621 760 l 611 750 l 631 750 m 682 750 l 671 760 l 661 750 l 671 741 l 682 750 m 511 760 l 500 771 l 491 760 l 500 750 l 511 760 m 641 760 l 631 771 l 621 760 l 641 760 m 147 771 l 138 780 l 128 771 l 138 760 l 147 771 m 661 771 l 641 780 l 631 771 l 661 771 m 983 771 l 974 780 l 963 771 l 974 760 l 983 771 m 1033 771 l 1174 921 l 1174 912 l 1124 880 l 1033 771 m 671 780 l 661 791 l 650 780 l 671 780 m 994 780 l 983 791 l 974 780 l 994 780 m 138 791 l 117 811 l 108 791 l 128 771 l 138 791 m 188 791 l 178 800 l 167 791 l 178 780 l 188 791 m 682 791 l 671 800 l 661 791 l 682 791 m 1003 791 l 994 800 l 983 791 l 1003 791 m 1014 800 l 1003 811 l 994 800 l 1014 800 m 1024 811 l 1014 821 l 1003 811 l 1024 811 m 1033 821 l 1024 830 l 1014 821 l 1033 821 m 128 830 l 117 841 l 108 830 l 117 821 l 128 830 m 158 830 l 147 841 l 138 830 l 147 821 l 158 830 m 762 830 l 752 841 l 741 830 l 752 821 l 762 830 m 1044 830 l 1033 841 l 1024 830 l 1044 830 m 771 841 l 762 851 l 752 841 l 771 841 m 1054 841 l 1044 851 l 1033 841 l 1054 841 m 147 851 l 117 880 l 108 861 l 138 830 l 147 851 m 430 851 l 420 861 l 409 851 l 420 841 l 430 851 m 741 851 l 732 861 l 721 851 l 732 841 l 741 851 m 782 851 l 771 861 l 762 851 l 782 851 m 1065 851 l 1054 861 l 1044 851 l 1065 851 m 752 861 l 741 871 l 732 861 l 752 861 m 792 861 l 782 871 l 771 861 l 792 861 m 762 871 l 752 880 l 741 871 l 762 871 m 803 871 l 792 880 l 782 871 l 803 871 m 812 880 l 803 891 l 792 880 l 812 880 m 108 891 l 97 901 l 88 891 l 97 880 l 108 891 m 823 891 l 812 901 l 803 891 l 823 891 m 349 901 l 338 912 l 329 901 l 338 891 l 349 901 m 832 901 l 823 912 l 812 901 l 832 901 m 842 912 l 832 921 l 823 912 l 842 912 m 88 921 l 77 932 l 67 921 l 77 912 l 88 921 m 853 921 l 842 932 l 832 921 l 853 921 m 299 932 l 288 941 l 278 932 l 288 921 l 299 932 m 862 932 l 853 941 l 842 932 l 862 932 m 873 941 l 862 951 l 853 941 l 873 941 m 883 951 l 873 961 l 862 951 l 883 951 m 77 971 l 67 982 l 58 971 l 67 961 l 77 971 m 278 982 l 268 991 l 258 982 l 268 971 l 278 982 m 67 991 l 58 1002 l 47 982 l 58 971 l 67 991 m 1144 1002 l 1134 1012 l 1124 1002 l 1134 991 l 1144 1002 m 58 1012 l 47 1021 l 37 1002 l 47 991 l 58 1012 m 258 1012 l 249 1021 l 238 1012 l 249 1002 l 258 1012 m 1153 1012 l 1144 1021 l 1134 1012 l 1153 1012 m 238 1021 l 228 1032 l 218 1021 l 228 1012 l 238 1021 m 268 1021 l 268 1032 l 258 1042 l 249 1021 l 268 1021 m 944 1021 l 933 1032 l 923 1021 l 933 1012 l 944 1021 m 47 1032 l 37 1042 l 26 1021 l 37 1012 l 47 1032 m 953 1032 l 944 1042 l 933 1032 l 953 1032 m 218 1042 l 218 1052 l 188 1083 l 178 1062 l 208 1032 l 218 1042 m 963 1042 l 953 1052 l 944 1042 l 963 1042 m 67 1052 l 58 1062 l 47 1052 l 58 1042 l 67 1052 m 1124 1062 l 1114 1072 l 1104 1062 l 1114 1052 l 1124 1062 m 218 1072 l 208 1083 l 197 1072 l 208 1062 l 218 1072 m 1134 1072 l 1124 1083 l 1114 1072 l 1134 1072 m 97 1083 l 88 1092 l 77 1083 l 88 1072 l 97 1083 m 1054 1103 l 1044 1112 l 1033 1103 l 1044 1092 l 1054 1103 m 1114 1123 l 1104 1133 l 1094 1123 l 1104 1112 l 1114 1123 "},"Ž":{"x_min":0,"x_max":0,"ha":694},"Á":{"x_min":0,"x_max":0,"ha":694},"g":{"x_min":29.640625,"x_max":1160.625,"ha":1188,"o":"m 601 -167 q 547 -144 574 -155 q 733 -148 631 -160 l 376 -64 l 364 -77 q 403 -98 383 -88 q 269 -30 330 -70 l 281 -18 l 269 -6 l 263 -12 l 258 5 l 224 20 l 234 30 l 234 42 l 221 53 l 211 30 l 216 24 l 159 49 l 199 42 l 199 65 l 211 77 l 199 89 l 188 78 q 116 207 140 137 l 127 195 l 139 207 l 127 220 l 116 207 q 91 326 103 244 q 68 540 79 409 l 33 301 q 32 397 26 345 q 133 735 68 574 q 316 1026 198 896 l 376 1061 l 364 1038 l 369 1033 l 341 1014 l 258 871 l 269 859 q 432 1019 341 955 q 601 1133 524 1083 l 613 1121 l 626 1133 l 616 1143 l 638 1156 l 661 1162 l 626 1144 q 744 1121 685 1121 q 837 1107 802 1121 l 827 1096 l 768 1108 l 756 1096 l 883 1057 l 875 1049 q 916 1008 898 1026 q 923 955 933 991 l 923 991 l 898 991 l 886 979 l 910 919 l 886 943 l 875 931 l 863 943 l 851 896 l 863 883 l 827 907 l 816 883 l 816 907 l 791 907 l 780 896 l 768 907 l 630 875 l 638 883 l 626 896 l 613 883 l 623 874 l 613 871 l 566 824 l 518 801 q 429 657 471 729 q 364 504 388 586 l 376 491 l 398 523 q 364 444 379 482 q 448 303 400 374 q 578 207 495 232 l 597 203 l 590 195 l 601 184 l 613 195 l 608 201 l 780 160 l 827 195 l 827 232 l 827 290 l 566 315 l 721 315 l 733 302 l 780 332 l 613 332 l 649 349 l 518 361 l 554 374 q 501 397 531 397 q 448 397 471 397 l 518 409 l 495 421 l 566 456 l 518 479 l 578 491 l 495 516 l 531 516 l 531 540 l 554 540 l 566 527 l 578 564 l 495 564 l 590 574 l 554 587 l 566 599 l 518 612 l 554 622 l 543 635 l 815 635 l 875 635 l 1100 599 l 1124 564 l 1148 564 l 1160 491 l 1148 397 l 1160 337 q 1118 82 1136 207 q 1017 -137 1100 -42 q 815 -167 923 -167 q 601 -167 708 -167 m 816 -148 l 780 -137 l 768 -148 l 803 -160 l 816 -148 m 910 -125 l 898 -112 l 886 -125 l 898 -137 l 910 -125 m 946 -100 l 933 -90 l 923 -100 l 933 -112 l 946 -100 m 958 -90 l 946 -77 l 933 -90 l 958 -90 m 970 -77 l 958 -64 l 946 -77 l 970 -77 m 353 -52 l 341 -42 l 329 -52 l 341 -64 l 353 -52 m 388 -52 l 376 -42 l 364 -52 l 376 -64 l 388 -52 m 329 -42 l 316 -30 l 305 -42 l 316 -52 l 329 -42 m 1028 -42 l 1017 -30 l 1005 -42 l 1017 -52 l 1028 -42 m 305 -30 l 293 -18 l 281 -30 l 293 -42 l 305 -30 m 364 -30 l 353 -18 l 341 -30 l 353 -42 l 364 -30 m 1041 -30 l 1028 -18 l 1017 -30 l 1041 -30 m 341 -18 l 258 30 l 246 17 l 341 -18 m 1005 -18 l 993 -6 l 981 -18 l 993 -30 l 1005 -18 m 1053 -18 l 1041 -6 l 1028 -18 l 1053 -18 m 1065 -6 l 1053 5 l 1041 -6 l 1065 -6 m 1017 5 l 1005 17 l 993 5 l 1005 -6 l 1017 5 m 1065 17 l 1053 30 l 1041 17 l 1053 5 l 1065 17 m 1076 30 l 1076 42 l 1124 160 l 1113 172 l 1053 30 l 1076 30 m 234 65 l 221 77 l 211 65 l 221 53 l 234 65 m 199 100 l 186 112 l 174 100 l 186 89 l 199 100 m 186 125 l 174 137 l 163 112 l 174 100 l 186 125 m 1076 137 l 1076 148 l 1076 160 l 1065 172 l 1053 137 l 1065 125 l 1076 137 m 163 160 l 151 172 l 139 160 l 151 148 l 163 160 m 696 172 l 673 184 l 661 172 l 685 160 l 696 172 m 151 184 l 139 195 l 127 184 l 139 172 l 151 184 m 649 184 l 626 195 l 613 184 l 638 172 l 649 184 m 1113 184 l 1113 207 l 1124 220 l 1124 232 l 1113 243 l 1100 220 l 1076 148 l 1088 137 l 1113 184 m 578 195 l 554 207 l 518 232 l 471 255 l 459 243 l 543 195 l 566 184 l 578 195 m 875 195 l 863 207 l 851 195 l 863 184 l 875 195 m 459 207 l 448 220 l 436 207 l 448 195 l 459 207 m 423 220 l 411 232 l 401 220 l 411 207 l 423 220 m 886 220 l 875 232 l 863 220 l 875 207 l 886 220 m 851 232 l 851 279 l 863 290 l 863 302 l 851 315 l 838 290 l 827 232 l 838 220 l 851 232 m 886 243 l 875 255 l 863 243 l 875 232 l 886 243 m 1113 255 l 1124 267 l 1088 279 l 1088 243 l 1100 232 l 1113 255 m 411 279 l 401 290 l 388 279 l 401 267 l 411 279 m 127 290 l 116 302 l 103 290 l 116 279 l 127 290 m 1124 290 l 1124 302 l 1136 361 l 1124 374 l 1100 290 l 1113 279 l 1124 290 m 401 302 l 388 315 l 376 302 l 388 290 l 401 302 m 341 361 l 329 374 l 316 361 l 329 349 l 341 361 m 329 384 l 316 397 l 305 384 l 316 374 l 329 384 m 1113 384 l 1113 397 l 1100 409 l 1088 384 l 1100 374 l 1113 384 m 1136 384 l 1148 397 l 1124 409 l 1113 397 l 1136 384 m 341 409 l 329 421 l 316 409 l 329 397 l 341 409 m 329 432 l 329 444 l 316 456 l 305 432 l 316 421 l 329 432 m 341 479 l 341 504 l 353 540 l 341 552 l 316 479 l 329 468 l 341 479 m 1124 479 l 1124 516 l 1113 527 l 1100 479 l 1113 468 l 1124 479 m 1076 504 l 1076 540 l 1041 540 l 1041 504 l 1076 504 m 981 564 l 970 574 l 958 564 l 970 552 l 981 564 m 127 574 l 127 612 l 116 622 l 103 574 l 116 564 l 127 574 m 376 574 l 364 587 l 353 552 l 364 540 l 376 574 m 1100 574 l 1088 587 l 1076 574 l 1088 564 l 1100 574 m 388 599 l 376 612 l 364 587 l 388 599 m 993 599 l 886 622 l 875 612 l 981 587 l 993 599 m 401 612 l 401 622 l 411 635 l 436 681 l 423 694 l 388 635 l 376 612 l 401 612 m 875 622 l 816 635 l 803 622 l 863 612 l 875 622 m 139 669 l 127 681 l 116 669 l 127 659 l 139 669 m 388 669 l 376 681 l 364 669 l 376 659 l 388 669 m 151 716 l 139 728 l 127 716 l 139 706 l 151 716 m 448 716 l 436 728 l 423 716 l 436 706 l 448 716 m 199 728 l 186 741 l 174 728 l 186 716 l 199 728 m 305 728 l 293 741 l 281 728 l 293 716 l 305 728 m 459 728 l 459 741 l 471 753 l 459 764 l 448 753 l 436 728 l 459 728 m 186 753 l 174 764 l 163 753 l 174 741 l 186 753 m 483 764 l 471 776 l 459 764 l 483 764 m 199 776 l 186 788 l 174 776 l 186 764 l 199 776 m 495 776 l 483 788 l 471 776 l 495 776 m 211 801 l 199 812 l 186 801 l 199 788 l 211 801 m 221 812 l 211 824 l 199 812 l 221 812 m 234 836 l 221 848 l 211 836 l 221 824 l 234 836 m 566 836 l 554 848 l 543 836 l 554 824 l 566 836 m 495 848 l 483 859 l 471 848 l 483 836 l 495 848 m 531 859 l 518 871 l 506 859 l 518 848 l 531 859 m 234 871 l 221 883 l 211 871 l 221 859 l 234 871 m 566 896 l 554 907 l 543 896 l 554 883 l 566 896 m 673 896 l 661 907 l 649 896 l 661 883 l 673 896 m 601 907 l 578 919 l 566 907 l 590 896 l 601 907 m 626 919 l 613 931 l 601 919 l 613 907 l 626 919 m 816 931 l 791 955 l 780 919 l 803 919 l 816 931 m 293 943 l 281 955 l 269 943 l 281 931 l 293 943 m 305 955 l 293 967 l 281 955 l 305 955 m 305 979 l 293 991 l 281 979 l 293 967 l 305 979 m 316 991 l 305 1001 l 293 991 l 316 991 m 875 1014 l 863 1026 l 851 1014 l 863 1001 l 875 1014 m 151 53 l 159 49 l 139 53 l 86 169 q 60 216 74 191 q 38 274 46 241 l 86 169 q 151 53 117 112 m 376 1026 l 369 1033 l 531 1133 l 376 1026 m 685 1169 l 661 1162 l 673 1169 l 685 1169 m 875 1085 l 853 1099 q 875 1085 865 1093 m 838 1108 l 853 1099 q 837 1107 845 1103 l 838 1108 m 910 1049 l 883 1057 l 886 1061 l 910 1049 m 506 681 l 398 523 q 428 590 407 546 q 506 681 448 634 m 258 -18 l 263 -12 l 269 -30 l 258 -18 m 221 17 l 216 24 l 224 20 l 221 17 m 32 290 l 33 301 q 38 274 36 287 l 32 290 m 186 77 l 188 78 l 199 65 l 186 77 m 601 207 l 608 201 l 597 203 l 601 207 m 626 871 l 623 874 l 630 875 l 626 871 m 613 1144 l 616 1143 l 601 1133 l 613 1144 m 403 -98 q 453 -115 417 -103 q 547 -144 490 -127 q 403 -98 468 -129 "},"²":{"x_min":0,"x_max":0,"ha":694},"–":{"x_min":26.921875,"x_max":2126.90625,"ha":2154,"o":"m 1737 -173 l 1660 -117 l 1671 -106 l 1638 -73 q 1660 -34 1660 -62 q 1665 15 1660 -6 q 1671 65 1671 38 q 1671 115 1671 92 l 1570 126 l 1538 81 l 1559 38 l 1538 -6 l 1548 -17 l 1493 -51 l 1493 -73 l 1448 -106 l 1438 -85 l 1427 -117 l 1416 -95 l 1405 -106 l 1382 -95 l 1382 -73 l 1360 -73 l 1360 -29 l 1337 -29 l 1337 59 l 1360 105 l 1382 105 l 1382 137 l 1416 137 l 1438 182 l 1438 160 l 1503 137 l 1538 182 l 1548 160 l 1559 171 l 1538 147 l 1559 137 l 1570 147 l 1559 137 l 1671 115 l 1671 147 l 1649 248 l 1371 282 l 1382 293 l 1349 315 l 1392 338 l 1382 349 l 1604 349 l 1671 338 q 1671 365 1671 349 q 1676 398 1671 381 q 1687 426 1681 415 q 1705 449 1692 436 l 1682 460 l 1660 515 l 1692 571 l 1705 548 l 1716 571 l 1760 426 l 1747 426 l 1737 436 l 1726 327 l 1816 327 l 1937 349 q 1964 327 1948 327 q 2003 327 1981 327 q 2043 321 2025 327 q 2081 315 2060 315 l 2081 293 l 2071 282 l 2116 259 l 2093 248 l 2116 238 l 2093 238 l 2093 216 l 2015 193 l 2015 227 l 1737 227 l 1737 193 q 1759 120 1747 160 q 1776 48 1771 81 q 1787 -23 1782 15 q 1803 -95 1792 -62 l 1771 -117 l 1782 -128 l 1771 -128 l 1760 -117 l 1747 -140 l 1760 -162 l 1747 -128 l 1726 -128 l 1716 -140 l 1737 -173 m 1993 -95 l 1927 -62 l 1927 -40 l 1904 -40 l 1904 4 l 1882 4 l 1882 48 l 1915 59 l 1915 115 l 1904 126 l 1937 160 l 1959 160 l 2015 115 l 2025 126 l 2071 92 l 2081 38 l 2116 38 l 2126 -6 l 2093 -51 l 2060 -62 l 2071 -85 l 1993 -95 m 660 -29 l 660 -17 l 637 38 l 616 38 q 659 109 647 70 q 676 193 671 148 q 682 288 682 238 q 682 381 682 338 l 698 259 l 698 405 l 692 415 l 727 482 l 738 460 q 753 482 748 471 q 770 499 759 493 q 798 505 782 505 q 827 521 815 505 l 647 521 l 637 515 l 626 526 l 637 537 l 616 548 l 616 560 q 643 593 626 582 q 681 604 660 604 q 726 610 703 604 q 772 616 748 616 l 772 648 l 703 760 l 716 749 l 727 770 l 716 804 l 738 836 l 748 804 l 759 836 l 772 815 l 849 836 l 860 826 l 870 849 q 849 871 859 860 q 821 882 838 882 q 787 882 804 882 q 759 882 771 882 l 738 871 l 748 882 l 727 905 l 748 926 l 727 937 l 804 971 l 915 937 l 926 948 l 960 871 l 981 871 l 992 815 l 970 770 l 981 760 l 960 760 l 960 738 l 860 704 l 860 670 l 893 604 l 970 582 l 992 593 l 1026 571 l 1037 582 l 1048 537 l 1071 526 l 1071 449 l 1048 449 l 1048 426 l 849 370 l 849 349 l 804 338 l 782 349 q 765 326 771 338 q 759 304 759 315 q 759 276 759 293 q 759 248 759 259 l 772 115 l 759 15 l 738 15 l 738 -6 l 716 4 l 703 -6 l 716 -17 l 703 -6 l 660 -29 m 647 38 l 637 48 l 626 38 l 637 25 l 647 38 m 1448 147 l 1448 160 l 1438 171 l 1427 147 l 1438 137 l 1448 147 m 382 171 l 249 204 l 204 193 l 48 238 l 37 227 l 26 282 l 59 304 l 48 315 l 170 338 l 249 327 l 304 349 l 304 394 l 125 426 l 138 436 l 115 460 l 125 493 l 104 493 l 138 526 l 149 515 l 159 526 q 193 510 170 515 q 232 505 215 505 q 271 505 249 505 q 316 505 292 505 l 316 616 l 193 670 l 125 793 q 149 854 149 815 q 159 920 149 892 q 182 981 170 948 q 215 1038 193 1014 l 193 1048 l 236 1082 l 226 1093 l 293 1115 l 260 1125 q 287 1143 270 1138 q 325 1149 303 1149 q 365 1149 348 1149 q 404 1149 382 1149 q 448 1138 427 1138 q 492 1126 470 1138 q 532 1098 515 1115 q 570 1070 549 1082 q 609 1010 592 1037 q 631 949 626 982 q 637 876 637 915 q 637 804 637 837 l 504 616 l 404 582 l 404 537 l 427 537 l 415 526 l 448 515 l 459 526 l 482 515 l 482 482 l 515 482 l 493 471 l 515 460 l 515 449 l 493 405 l 470 405 l 470 381 l 438 394 l 438 349 l 470 349 l 493 359 l 493 349 l 470 327 l 538 293 l 549 304 l 560 293 l 570 304 l 549 282 l 570 271 l 581 282 l 570 238 q 532 221 549 227 q 498 210 515 216 q 460 204 482 204 q 415 204 438 204 l 415 182 l 382 171 m 2049 304 l 2036 315 l 2025 304 l 2036 293 l 2049 304 m 82 315 l 59 327 l 48 315 l 70 304 l 82 315 m 304 315 l 304 349 l 260 349 l 260 315 l 304 315 m 1570 405 l 1548 460 l 1514 471 l 1503 515 l 1503 505 l 1514 493 l 1527 537 l 1514 548 l 1548 604 l 1482 604 l 1427 582 l 1416 593 l 1371 571 l 1349 616 l 1371 626 l 1326 637 l 1405 670 l 1360 682 l 1527 704 l 1503 714 l 1493 738 l 1482 725 l 1482 787 l 1304 787 l 1315 804 l 1293 826 l 1304 836 l 1281 849 q 1320 865 1304 860 q 1359 871 1336 871 q 1403 871 1381 871 q 1448 871 1426 871 l 1499 860 l 1499 1038 l 1527 1038 l 1548 876 l 1604 876 l 1771 876 l 1792 981 l 1803 971 l 1838 1059 l 1848 1027 l 1865 1059 l 1865 905 l 1859 871 l 1915 871 l 2004 882 l 2071 871 l 2071 860 l 2049 836 l 2093 815 l 2071 804 l 2081 776 l 1937 776 l 1859 781 l 1848 770 l 1859 738 l 1848 693 l 1915 693 l 1893 682 l 1927 670 l 1893 659 l 1915 648 l 1915 637 q 1832 616 1882 616 q 1737 616 1782 616 q 1648 616 1692 616 q 1559 604 1604 616 l 1604 460 l 1593 449 l 1604 426 l 1593 426 l 1582 436 l 1570 405 m 1716 405 l 1716 426 l 1705 436 l 1692 405 l 1705 394 l 1716 405 m 1838 405 l 1838 449 l 1827 460 l 1859 548 l 1871 526 l 1915 616 l 1927 593 l 1937 616 l 1948 582 l 1937 482 l 1948 471 l 1915 426 l 1871 405 l 1848 415 l 1838 405 m 1848 460 l 1838 471 l 1827 460 l 1838 449 l 1848 460 m 1538 471 l 1538 482 l 1527 493 l 1514 471 l 1527 460 l 1538 471 m 1692 482 l 1682 493 l 1671 482 l 1682 471 l 1692 482 m 815 493 l 782 505 l 748 482 l 782 471 l 815 493 m 1871 493 l 1859 505 l 1848 493 l 1859 482 l 1871 493 m 904 505 l 838 515 l 838 482 l 860 482 l 904 505 m 1682 505 l 1682 515 l 1671 526 l 1660 505 l 1671 493 l 1682 505 m 1570 560 l 1570 593 l 1559 604 l 1548 560 l 1559 548 l 1570 560 m 1716 704 l 1716 725 l 1747 781 l 1638 793 l 1548 770 l 1559 749 l 1538 749 l 1538 725 l 1527 738 l 1514 704 l 1716 704 m 438 749 l 427 760 l 415 749 l 427 738 l 438 749 m 149 781 l 138 793 l 125 781 l 138 770 l 149 781 m 326 781 l 337 836 l 249 849 l 249 815 l 316 770 l 326 781 m 459 781 l 482 836 l 448 849 l 438 826 l 415 826 l 415 770 l 448 770 l 459 781 m 359 804 l 359 826 l 348 836 l 337 804 l 348 793 l 359 804 m 772 804 l 759 815 l 748 804 l 759 793 l 772 804 m 849 826 l 815 836 l 772 815 l 815 804 l 849 826 m 482 860 l 470 871 l 459 860 l 470 849 l 482 860 m 1638 871 l 1615 882 l 1604 871 l 1625 860 l 1638 871 m 482 882 l 482 959 l 415 959 l 415 926 l 438 905 l 448 926 l 459 926 l 459 915 l 438 892 l 482 882 m 359 915 l 359 971 l 304 971 l 282 948 l 293 915 l 359 915 m 926 926 l 915 937 l 904 926 l 915 915 l 926 926 m 326 1115 l 316 1125 l 304 1115 l 316 1104 l 326 1115 "},"ë":{"x_min":0,"x_max":0,"ha":694},"ƒ":{"x_min":27,"x_max":1229.109375,"ha":1256,"o":"m 400 -161 l 400 -149 l 388 -137 l 247 -149 q 213 -131 237 -137 q 178 -115 189 -126 q 160 -79 166 -103 q 131 -45 155 -56 l 120 25 q 144 77 144 48 q 149 130 144 106 q 155 183 155 154 q 166 235 155 212 l 212 270 l 201 306 l 178 306 l 189 317 l 178 329 l 189 352 l 178 364 l 155 352 l 212 434 l 237 434 l 260 481 l 95 585 q 56 643 85 620 q 27 701 27 666 q 27 777 27 737 q 27 854 27 818 l 73 994 l 85 983 l 155 1133 l 178 1064 l 144 900 l 400 883 l 575 883 l 575 854 l 609 854 l 586 841 l 609 831 l 586 818 l 609 808 l 586 808 l 586 783 l 388 760 l 388 783 l 131 808 l 131 772 l 144 737 l 166 737 l 189 678 l 364 631 l 412 643 l 458 631 l 458 608 l 505 597 l 529 562 l 516 550 l 540 539 l 540 527 l 505 504 l 516 491 l 481 481 l 493 456 l 481 446 q 540 375 516 410 q 569 293 564 340 q 575 200 575 246 q 575 106 575 154 l 470 -126 l 446 -126 l 446 -161 l 435 -137 l 422 -149 l 412 -137 l 400 -161 m 353 -10 l 318 2 l 306 -10 l 341 -21 l 353 -10 m 364 12 q 388 54 377 37 q 406 95 400 71 q 412 141 412 118 q 412 188 412 165 l 377 188 l 377 165 l 329 165 l 247 188 l 237 177 l 260 106 l 247 37 l 260 2 l 353 2 l 364 12 m 820 177 l 820 188 l 772 235 l 785 246 q 762 293 762 270 q 762 346 762 316 q 762 404 762 375 q 762 456 762 433 l 772 491 l 785 469 l 820 550 l 820 527 l 843 527 l 855 434 l 843 410 l 866 375 l 855 329 l 889 317 l 914 352 l 914 306 l 937 306 l 949 317 l 960 281 l 901 200 l 889 223 l 820 177 m 178 200 l 178 212 l 166 223 l 155 200 l 166 188 l 178 200 m 412 212 l 400 223 l 388 212 l 400 200 l 412 212 m 1183 212 l 1183 223 l 1147 246 l 1112 223 l 1112 246 l 1089 246 l 1099 258 l 1089 294 l 1066 294 l 1066 317 l 1089 410 l 1042 550 l 1042 539 l 1054 527 l 1066 562 l 1077 550 l 1089 573 l 1099 562 l 1112 573 l 1229 281 l 1206 246 l 1193 246 l 1183 270 l 1170 235 l 1183 212 m 412 235 l 400 246 l 388 235 l 400 223 l 412 235 m 271 258 l 260 270 l 247 258 l 260 246 l 271 258 m 412 246 l 412 317 l 318 317 l 283 306 l 271 270 l 412 246 m 260 281 l 247 294 l 237 270 l 247 258 l 260 281 m 785 434 l 785 456 l 772 469 l 762 434 l 772 423 l 785 434 m 306 469 l 283 481 l 271 469 l 295 456 l 306 469 m 1089 481 l 1077 491 l 1066 481 l 1077 469 l 1089 481 m 1077 504 l 1077 514 l 1066 527 l 1054 504 l 1066 491 l 1077 504 m 353 608 l 341 620 l 329 608 l 341 597 l 353 608 m 306 620 l 295 631 l 283 620 l 295 608 l 306 620 m 237 643 l 224 655 l 212 643 l 224 631 l 237 643 m 73 912 l 73 925 l 62 935 l 50 912 l 62 900 l 73 912 m 85 948 l 85 971 l 73 983 l 62 948 l 73 935 l 85 948 "},"Î":{"x_min":0,"x_max":0,"ha":694},"e":{"x_min":26.796875,"x_max":1142,"ha":1169,"o":"m 497 -171 q 317 -140 410 -158 q 162 -59 224 -122 l 125 3 l 100 15 l 88 89 l 39 118 l 39 275 l 39 933 l 75 1068 l 100 1080 l 75 1093 l 100 1093 l 100 1119 l 113 1106 l 174 1144 l 150 1156 l 162 1156 l 212 1144 l 683 1144 l 881 1131 l 869 1119 l 944 1093 l 895 1093 l 881 1106 l 832 1080 l 994 1032 l 919 1006 l 944 994 l 944 969 l 1006 969 l 944 957 l 1006 945 l 895 919 l 907 883 l 944 883 l 944 858 l 1006 858 l 881 846 l 794 858 l 782 846 l 844 833 l 758 820 l 869 802 l 770 802 l 447 802 l 360 777 l 707 777 l 360 765 l 360 622 l 534 622 l 782 647 l 895 634 l 925 640 l 919 634 l 944 622 l 956 598 l 972 600 l 968 598 l 981 585 l 895 560 l 956 548 l 931 535 l 1006 511 l 956 499 l 944 449 l 1018 449 l 869 424 l 1006 412 l 895 386 l 944 362 l 895 349 l 919 337 l 808 311 l 851 305 l 749 305 l 758 311 l 683 325 l 671 311 l 729 298 l 568 298 l 572 305 l 386 305 l 374 296 l 488 296 l 374 291 l 374 250 q 443 221 406 230 l 435 213 l 460 200 l 473 213 l 463 217 q 534 213 489 213 q 671 213 604 213 l 707 225 l 721 200 l 808 225 l 782 239 l 794 239 l 832 213 l 872 244 l 919 225 l 956 200 l 994 225 l 1018 213 l 1055 225 l 1068 213 l 1006 188 l 1043 151 l 1093 164 l 1105 151 l 1117 164 l 1129 151 l 1068 126 l 1080 114 l 1043 114 l 1043 77 l 1093 77 l 1129 101 l 1142 89 l 1093 77 l 1129 64 l 1043 51 l 1043 27 l 994 27 l 994 -9 l 1043 -9 l 1093 3 l 1080 -9 l 1129 -21 l 994 -71 l 1006 -83 l 907 -108 l 935 -128 q 727 -171 834 -160 q 497 -171 621 -183 m 770 -146 l 335 -108 l 323 -122 q 503 -158 410 -146 q 695 -171 596 -171 l 770 -146 m 844 -134 l 782 -122 l 770 -134 l 832 -146 l 844 -134 m 311 -122 l 186 -47 l 174 -59 l 299 -134 l 311 -122 m 895 -122 l 844 -108 l 832 -122 l 895 -122 m 695 -103 l 521 -103 l 509 -115 l 683 -115 l 695 -103 m 435 -96 l 422 -83 l 410 -96 l 422 -108 l 435 -96 m 634 -83 l 547 -71 l 534 -83 l 621 -96 l 634 -83 m 485 -71 l 447 -59 l 435 -71 l 473 -83 l 485 -71 m 323 -59 l 311 -47 l 299 -59 l 311 -71 l 323 -59 m 386 -59 l 360 -47 l 347 -59 l 374 -71 l 386 -59 m 299 -47 l 286 -34 l 273 -47 l 286 -59 l 299 -47 m 212 -34 l 200 -21 l 186 -34 l 200 -47 l 212 -34 m 435 -34 l 422 -21 l 410 -34 l 422 -47 l 435 -34 m 1030 -34 l 994 -21 l 981 -34 l 1018 -47 l 1030 -34 m 832 -21 l 820 -9 l 808 -21 l 820 -34 l 832 -21 m 944 -21 l 931 -9 l 919 -21 l 931 -34 l 944 -21 m 1055 -21 l 1043 -9 l 1030 -21 l 1043 -34 l 1055 -21 m 224 -9 l 212 3 l 200 -9 l 212 -21 l 224 -9 m 895 -9 l 881 3 l 869 -9 l 881 -21 l 895 -9 m 150 3 l 137 15 l 125 3 l 137 -9 l 150 3 m 125 27 l 113 39 l 100 27 l 113 15 l 125 27 m 150 77 l 137 89 l 125 77 l 137 64 l 150 77 m 125 101 l 113 114 l 100 101 l 113 89 l 125 101 m 88 114 l 88 138 l 75 151 l 63 114 l 75 101 l 88 114 m 707 188 l 634 200 l 621 188 l 695 176 l 707 188 m 422 200 l 398 213 l 386 200 l 410 188 l 422 200 m 584 200 l 534 213 l 521 200 l 572 188 l 584 200 m 75 263 l 75 311 l 63 325 l 51 263 l 63 250 l 75 263 m 360 263 l 360 275 l 347 288 l 335 263 l 347 250 l 360 263 m 956 511 l 931 523 l 919 511 l 944 499 l 956 511 m 88 820 l 88 883 l 75 895 l 63 820 l 75 808 l 88 820 m 683 840 l 485 840 l 473 826 l 671 826 l 683 840 m 485 858 l 473 870 l 460 858 l 473 846 l 485 858 m 435 895 l 410 907 l 398 895 l 422 883 l 435 895 m 88 907 l 75 919 l 63 907 l 75 895 l 88 907 m 63 945 l 63 957 l 51 969 l 39 945 l 51 933 l 63 945 m 100 994 l 88 1006 l 75 994 l 88 982 l 100 994 m 150 994 l 137 1006 l 125 994 l 137 982 l 150 994 m 100 1019 l 100 1032 l 88 1044 l 75 1019 l 88 1006 l 100 1019 m 174 1019 l 162 1032 l 150 1019 l 162 1006 l 174 1019 m 125 1056 l 88 1068 l 75 1056 l 113 1044 l 125 1056 m 820 1093 l 808 1106 l 794 1093 l 808 1080 l 820 1093 m 224 1106 l 212 1119 l 200 1106 l 212 1093 l 224 1106 m 273 1106 l 261 1119 l 248 1106 l 261 1093 l 273 1106 m 248 1119 l 236 1131 l 224 1119 l 236 1106 l 248 1119 m 584 1131 l 460 1144 l 447 1131 l 572 1119 l 584 1131 m 26 126 l 39 118 l 39 114 l 26 126 m 968 647 l 925 640 l 931 647 l 968 647 m 1018 610 l 972 600 l 981 610 l 1018 610 m 931 299 l 851 309 l 956 309 l 994 309 l 931 299 m 895 263 l 872 244 l 857 250 l 869 263 l 895 263 m 1006 250 l 919 225 l 981 250 l 1006 250 m 944 -134 l 935 -128 l 956 -122 l 981 -122 l 944 -134 m 447 225 l 463 217 q 443 221 454 218 l 447 225 m 559 291 l 488 294 l 568 294 l 559 291 m 745 299 l 729 303 l 749 303 l 745 299 "},"Ã":{"x_min":0,"x_max":0,"ha":694},"J":{"x_min":27,"x_max":901.859375,"ha":929,"o":"m 442 -173 l 240 -103 l 245 -97 l 234 -87 l 224 -97 l 191 -87 l 138 -29 l 146 -20 l 136 -9 l 127 -17 l 100 9 l 103 12 l 92 23 l 90 21 l 88 23 l 92 23 l 114 23 l 114 33 l 59 110 l 49 77 l 57 57 l 38 77 l 31 125 l 49 99 l 59 131 l 53 172 l 59 165 l 70 242 l 81 209 l 92 252 l 103 242 l 114 307 l 136 252 l 146 285 l 142 303 l 168 252 l 191 274 l 202 242 l 224 242 l 234 252 l 213 341 l 224 341 l 224 318 l 256 318 l 256 341 l 300 209 l 332 198 l 343 220 l 343 187 l 496 142 l 531 131 l 541 142 l 516 152 l 545 165 l 545 414 q 568 198 563 309 l 568 471 l 571 484 l 574 482 l 585 492 l 585 526 l 574 537 l 566 509 l 552 592 l 563 581 l 574 592 l 574 602 l 563 613 l 552 592 l 548 617 l 552 613 l 563 624 l 563 691 l 552 701 l 543 640 l 531 712 l 541 701 l 552 712 l 552 734 l 541 745 l 531 712 l 514 803 l 518 799 l 531 810 l 531 821 l 518 832 l 511 818 l 507 843 l 453 843 l 343 821 l 257 855 l 321 866 l 224 876 l 278 887 l 213 909 l 224 920 l 157 931 l 224 941 l 168 974 l 245 996 l 191 1017 l 257 1030 l 257 1062 l 213 1084 l 310 1106 l 267 1116 l 681 1159 l 671 1149 l 682 1138 l 693 1149 l 683 1159 l 693 1160 l 748 1149 l 781 1160 l 792 1149 l 803 1138 l 771 1128 l 781 1138 l 738 1149 l 727 1138 l 767 1127 l 693 1106 l 803 1095 l 836 1084 l 836 1062 l 857 1062 l 836 1051 l 873 1032 l 814 1007 l 857 985 l 836 974 l 846 963 l 792 952 l 792 931 l 748 909 l 781 898 l 868 920 l 868 909 l 803 898 l 792 866 l 770 866 l 759 855 q 827 586 803 723 q 852 307 852 449 l 868 318 l 868 505 l 849 612 q 891 252 891 416 l 815 10 l 814 12 l 748 -97 l 759 -108 l 770 -97 l 782 -93 l 781 -97 q 666 -156 726 -140 q 541 -173 606 -173 l 518 -162 l 442 -173 m 617 -151 l 606 -140 l 596 -151 l 606 -162 l 617 -151 m 738 -119 l 738 -87 l 716 -87 l 693 -108 l 738 -119 m 781 -32 l 770 -20 l 759 -32 l 770 -43 l 781 -32 m 563 154 l 552 165 l 541 154 l 552 142 l 563 154 m 857 154 l 857 187 l 846 198 l 836 154 l 846 142 l 857 154 m 245 220 l 234 231 l 224 220 l 234 209 l 245 220 m 596 252 l 596 406 l 579 416 l 579 252 l 585 242 l 596 252 m 453 1084 l 442 1095 l 431 1084 l 442 1073 l 453 1084 m 552 1084 l 541 1095 l 531 1084 l 541 1073 l 552 1084 m 682 1095 l 596 1106 l 585 1095 l 671 1084 l 682 1095 m 442 1106 l 409 1116 l 398 1106 l 431 1095 l 442 1106 m 596 1116 l 552 1127 l 541 1116 l 585 1106 l 596 1116 m 27 154 l 31 125 l 27 131 l 27 154 m 49 198 l 53 172 l 49 176 l 49 198 m 136 341 l 142 303 l 136 318 l 136 341 m 180 330 l 191 274 l 180 307 l 180 330 m 551 438 l 551 414 q 541 484 546 454 q 533 536 537 514 l 510 659 q 533 536 522 598 l 551 438 m 486 788 l 510 659 q 486 767 499 714 l 486 788 m 814 1160 l 792 1149 l 803 1160 l 814 1160 m 825 1106 l 803 1095 l 814 1106 l 825 1106 m 880 1030 l 873 1032 l 891 1041 l 901 1041 l 880 1030 m 234 -108 l 224 -97 l 240 -103 l 234 -108 m 803 -87 l 782 -93 l 815 10 l 825 1 l 803 -87 m 125 -20 l 127 -17 l 138 -29 l 136 -32 l 125 -20 m 81 12 l 90 21 l 100 9 l 92 1 l 81 12 m 70 23 l 57 57 l 88 23 l 70 23 m 507 154 l 516 152 l 496 142 l 507 154 m 803 866 l 849 612 q 792 866 820 743 l 803 866 m 563 492 l 566 509 l 571 484 l 563 492 m 541 624 l 543 640 l 548 617 l 541 624 m 507 810 l 511 818 l 514 803 l 507 810 m 770 1127 l 767 1127 l 771 1128 l 770 1127 m 682 1160 l 683 1159 l 681 1159 l 682 1160 "},"»":{"x_min":0,"x_max":0,"ha":694},"©":{"x_min":27,"x_max":1306.140625,"ha":1333,"o":"m 474 -176 l 404 -141 l 466 -163 l 474 -157 l 373 -109 l 412 -101 l 348 -78 l 348 -69 l 364 -61 l 325 -53 l 325 -47 l 364 -53 l 373 -47 l 309 -23 l 333 -14 l 309 -7 l 340 0 l 192 79 l 184 56 l 254 16 q 195 47 223 31 q 152 90 168 63 q 112 142 137 118 q 74 197 88 166 l 49 346 l 30 346 l 30 581 q 54 691 38 636 q 100 793 69 746 q 175 883 132 839 q 257 966 218 926 q 366 1063 311 1020 q 490 1134 420 1107 q 632 1161 561 1161 q 779 1161 702 1161 q 878 1134 827 1146 q 972 1103 928 1122 q 1054 1052 1015 1084 q 1133 981 1093 1020 q 1203 871 1172 926 q 1259 753 1235 817 q 1290 628 1282 690 q 1306 495 1297 566 q 1278 350 1291 425 q 1234 208 1266 276 q 1152 86 1203 141 q 1055 -31 1102 31 q 922 -99 992 -69 q 780 -152 851 -129 q 631 -176 709 -176 q 474 -176 553 -176 m 686 -163 l 663 -157 l 655 -163 l 678 -171 l 686 -163 m 522 -157 l 474 -141 l 466 -149 l 514 -163 l 522 -157 m 709 -145 l 537 -145 l 528 -153 l 702 -153 l 709 -145 m 741 -141 l 709 -132 l 702 -141 l 741 -141 m 779 -141 l 756 -132 l 748 -141 l 773 -149 l 779 -141 m 450 -132 l 443 -124 l 435 -132 l 443 -141 l 450 -132 m 427 -124 l 419 -118 l 412 -124 l 419 -132 l 427 -124 m 458 -124 l 450 -118 l 443 -124 l 458 -124 m 489 -124 l 474 -118 l 466 -124 l 482 -132 l 489 -124 m 819 -124 l 796 -118 l 773 -132 l 819 -124 m 843 -118 l 819 -109 l 812 -118 l 843 -118 m 427 -109 l 412 -101 l 404 -109 l 419 -118 l 427 -109 m 897 -92 l 874 -86 l 835 -109 l 897 -92 m 914 -86 l 897 -78 l 889 -86 l 914 -86 m 928 -78 l 914 -69 l 905 -78 l 928 -78 m 373 -69 l 364 -61 l 356 -69 l 364 -78 l 373 -69 m 945 -69 l 937 -61 l 928 -69 l 937 -78 l 945 -69 m 427 -61 l 419 -53 l 412 -61 l 419 -69 l 427 -61 m 379 -53 l 373 -47 l 364 -53 l 373 -61 l 379 -53 m 1007 -47 l 999 -39 l 992 -47 l 999 -53 l 1007 -47 m 1023 -39 l 1007 -31 l 999 -39 l 1023 -39 m 1039 -31 l 1023 -23 l 1015 -31 l 1039 -31 m 1047 -23 l 1039 -14 l 1032 -23 l 1047 -23 m 373 -7 l 348 0 l 340 -7 l 364 -14 l 373 -7 m 419 0 l 412 8 l 404 0 l 412 -7 l 419 0 m 396 8 l 379 16 l 373 8 l 387 0 l 396 8 m 325 16 l 317 23 l 309 16 l 317 8 l 325 16 m 309 23 l 302 31 l 294 23 l 302 16 l 309 23 m 333 31 l 325 40 l 317 31 l 325 23 l 333 31 m 553 31 l 545 40 l 537 31 l 545 23 l 553 31 m 655 31 l 576 40 l 568 31 l 646 23 l 655 31 m 1078 31 l 1071 40 l 1063 31 l 1071 23 l 1078 31 m 285 40 l 269 48 l 262 40 l 277 31 l 285 40 m 309 40 l 302 48 l 294 40 l 302 31 l 309 40 m 1086 40 l 1078 48 l 1071 40 l 1086 40 m 254 48 l 246 56 l 238 48 l 246 40 l 254 48 m 1102 48 l 1094 56 l 1086 48 l 1094 40 l 1102 48 m 505 56 l 497 63 l 489 56 l 497 48 l 505 56 m 1108 56 l 1102 63 l 1094 56 l 1108 56 m 246 63 l 238 71 l 230 63 l 238 56 l 246 63 m 489 63 l 482 71 l 497 79 l 474 95 q 528 74 497 78 q 596 70 560 70 q 663 70 631 70 q 725 70 694 70 q 787 86 756 78 q 846 106 819 95 q 905 130 874 118 q 961 158 937 141 q 1019 248 999 197 q 1047 353 1039 298 q 1066 463 1055 409 q 1078 572 1078 518 q 1063 636 1071 605 q 1046 698 1054 667 q 1027 760 1038 729 q 984 817 1015 792 q 898 871 945 856 q 800 903 851 887 q 693 919 748 919 q 584 919 638 919 q 505 902 545 910 q 435 863 466 895 q 372 804 404 832 q 309 746 340 777 l 302 730 l 285 730 q 254 643 262 690 q 238 546 246 597 q 230 447 230 495 q 230 346 230 400 l 238 298 l 230 276 q 246 239 238 259 q 266 204 254 219 q 293 173 277 188 q 309 133 309 158 l 348 118 l 340 110 l 419 95 l 387 87 l 364 95 l 348 79 l 435 63 l 450 71 l 482 56 l 489 63 m 514 62 l 505 71 l 497 62 l 514 62 m 1116 63 l 1108 71 l 1102 63 l 1116 63 m 223 71 l 215 79 l 207 71 l 215 63 l 223 71 m 779 71 l 733 71 l 522 71 q 560 48 537 48 q 604 48 584 48 q 646 48 623 48 q 694 48 669 48 l 779 71 m 246 79 l 238 87 l 230 79 l 238 71 l 246 79 m 796 79 l 779 87 l 773 79 l 796 79 m 1116 79 l 1108 87 l 1102 79 l 1108 71 l 1116 79 m 184 87 l 184 95 l 168 110 l 160 95 l 176 79 l 184 87 m 348 87 l 340 95 l 333 87 l 340 79 l 348 87 m 819 87 l 812 95 l 804 87 l 812 79 l 819 87 m 1125 87 l 1116 95 l 1108 87 l 1125 87 m 835 95 l 827 102 l 819 95 l 827 87 l 835 95 m 230 102 l 223 110 l 215 102 l 223 95 l 230 102 m 858 102 l 851 110 l 843 102 l 851 95 l 858 102 m 882 110 l 866 118 l 858 110 l 874 102 l 882 110 m 160 118 l 160 126 l 145 141 l 137 126 l 153 110 l 160 118 m 192 118 l 184 126 l 176 118 l 184 110 l 192 118 m 897 118 l 889 126 l 882 118 l 889 110 l 897 118 m 176 133 l 168 141 l 160 133 l 168 126 l 176 133 m 277 133 l 269 141 l 262 133 l 269 126 l 277 133 m 1102 133 l 1094 141 l 1086 133 l 1094 126 l 1102 133 m 522 146 l 427 188 q 380 267 404 228 q 332 346 356 307 q 309 432 309 385 q 309 526 309 479 q 321 561 317 541 q 336 596 325 581 q 360 628 348 612 q 379 659 373 644 l 458 721 l 678 746 l 669 738 l 773 721 l 773 707 l 835 691 l 819 682 l 858 651 l 843 659 l 835 651 l 882 612 l 866 628 l 851 605 l 874 581 l 866 581 l 843 605 l 835 597 l 851 581 l 835 589 l 804 572 l 819 558 l 796 581 l 787 572 l 733 605 l 725 597 l 741 589 l 733 589 l 646 605 l 560 581 q 549 542 553 566 q 541 499 545 518 q 537 455 537 479 q 537 409 537 432 q 572 389 553 392 q 612 386 592 386 q 650 386 631 386 q 694 386 669 386 l 764 432 l 717 377 l 725 369 l 773 409 l 756 392 l 773 386 l 796 409 l 741 352 l 748 346 l 787 369 l 796 361 l 819 386 l 764 337 l 779 329 l 827 369 l 796 329 l 804 321 l 812 329 l 819 321 l 843 346 l 779 276 l 796 276 l 843 315 l 779 259 l 804 251 l 851 290 q 811 255 827 275 q 784 212 796 236 q 753 177 773 188 q 709 146 733 166 l 522 146 m 1172 141 l 1164 150 l 1156 141 l 1164 133 l 1172 141 m 137 150 l 137 158 l 128 166 l 119 150 l 128 141 l 137 150 m 168 150 l 160 158 l 153 150 l 160 141 l 168 150 m 302 150 l 285 158 l 277 150 l 294 141 l 302 150 m 655 150 l 631 158 l 623 150 l 646 141 l 655 150 m 1108 150 l 1102 158 l 1094 150 l 1102 141 l 1108 150 m 522 158 l 466 180 l 458 172 l 514 150 l 522 158 m 568 158 l 522 172 l 514 166 l 568 158 m 1180 158 l 1172 166 l 1164 158 l 1172 150 l 1180 158 m 655 166 l 584 172 l 576 166 l 646 158 l 655 166 m 694 166 l 702 172 l 678 180 l 663 166 l 686 158 l 694 166 m 153 172 l 145 180 l 137 172 l 145 166 l 153 172 m 1187 172 l 1180 180 l 1172 172 l 1180 166 l 1187 172 m 97 180 l 97 197 l 82 228 l 74 197 l 88 172 l 97 180 m 269 180 l 262 188 l 254 180 l 262 172 l 269 180 m 450 180 l 443 188 l 435 180 l 443 172 l 450 180 m 709 180 l 702 188 l 694 180 l 702 172 l 709 180 m 741 180 l 748 188 l 725 197 l 717 188 l 741 180 m 128 188 l 128 205 l 119 211 l 113 188 l 119 180 l 128 188 m 474 188 l 466 197 l 458 188 l 466 180 l 474 188 m 505 188 l 497 197 l 489 188 l 497 180 l 505 188 m 537 188 l 528 197 l 522 188 l 528 180 l 537 188 m 1023 188 l 1015 197 l 1007 188 l 1015 180 l 1023 188 m 435 197 l 427 205 l 419 197 l 427 188 l 435 197 m 458 197 l 450 205 l 443 197 l 450 188 l 458 197 m 756 197 l 748 205 l 741 197 l 748 188 l 756 197 m 1032 197 l 1023 205 l 1015 197 l 1032 197 m 474 205 l 466 211 l 458 205 l 466 197 l 474 205 m 246 211 l 238 219 l 230 211 l 238 205 l 246 211 m 450 211 l 443 219 l 435 211 l 443 205 l 450 211 m 427 219 l 419 228 l 412 219 l 419 211 l 427 219 m 1015 219 l 1007 228 l 999 219 l 1007 211 l 1015 219 m 435 228 l 427 236 l 419 228 l 435 228 m 82 236 l 82 251 l 57 321 l 49 282 l 74 219 l 82 236 m 238 236 l 230 243 l 223 236 l 230 228 l 238 236 m 419 236 l 412 243 l 404 236 l 412 228 l 419 236 m 1023 236 l 1015 243 l 1007 236 l 1015 228 l 1023 236 m 113 243 l 105 251 l 97 243 l 105 236 l 113 243 m 1032 243 l 1032 251 l 1023 259 l 1015 243 l 1032 243 m 230 251 l 223 259 l 215 251 l 223 243 l 230 251 m 1039 259 l 1039 267 l 1032 276 l 1023 259 l 1032 251 l 1039 259 m 105 276 l 97 282 l 88 276 l 97 267 l 105 276 m 435 282 l 427 290 l 419 282 l 427 276 l 435 282 m 1047 282 l 1047 290 l 1039 298 l 1032 282 l 1039 276 l 1047 282 m 773 306 l 787 321 l 773 329 l 756 306 l 764 298 l 773 306 m 105 315 l 97 321 l 88 315 l 97 306 l 105 315 m 796 315 l 787 321 l 779 315 l 787 306 l 796 315 m 1055 315 l 1055 321 l 1047 329 l 1039 315 l 1047 306 l 1055 315 m 223 321 l 215 329 l 207 321 l 215 315 l 223 321 m 663 329 l 655 337 l 646 329 l 655 321 l 663 329 m 348 337 l 340 346 l 333 337 l 340 329 l 348 337 m 57 346 l 57 377 l 49 386 l 43 346 l 49 337 l 57 346 m 599 346 l 592 352 l 584 346 l 592 337 l 599 346 m 733 346 l 725 352 l 717 346 l 725 337 l 733 346 m 1258 346 l 1251 352 l 1243 346 l 1251 337 l 1258 346 m 340 352 l 340 361 l 333 369 l 325 352 l 333 346 l 340 352 m 686 352 l 678 361 l 669 352 l 678 346 l 686 352 m 1063 352 l 1063 361 l 1055 369 l 1047 352 l 1055 346 l 1063 352 m 669 369 l 678 382 l 576 382 l 568 377 l 663 361 l 669 369 m 333 377 l 333 386 l 325 392 l 317 377 l 325 369 l 333 377 m 356 377 l 348 386 l 340 377 l 348 369 l 356 377 m 528 377 l 522 386 l 514 377 l 522 369 l 528 377 m 1071 386 l 1071 392 l 1063 400 l 1055 386 l 1063 377 l 1071 386 m 43 392 l 43 535 l 88 754 l 82 761 q 46 679 57 721 q 31 589 35 636 q 27 490 27 541 q 27 392 27 440 l 34 386 l 43 392 m 537 392 l 528 400 l 522 392 l 528 386 l 537 392 m 443 409 l 435 417 l 427 409 l 435 400 l 443 409 m 325 417 l 325 425 l 317 432 l 309 417 l 317 409 l 325 417 m 1275 417 l 1275 440 l 1266 448 l 1258 417 l 1266 409 l 1275 417 m 1078 425 l 1078 432 l 1071 440 l 1063 425 l 1071 417 l 1078 425 m 514 448 l 514 456 l 505 463 l 497 448 l 505 440 l 514 448 m 1086 456 l 1086 463 l 1078 471 l 1071 456 l 1078 448 l 1086 456 m 364 479 l 364 518 l 356 526 l 348 479 l 356 471 l 364 479 m 1283 479 l 1283 502 l 1275 510 l 1266 479 l 1275 471 l 1283 479 m 222 510 l 222 535 l 238 589 l 230 597 q 215 549 215 572 q 211 499 215 526 q 207 444 207 471 q 207 392 207 417 l 222 329 l 222 510 m 333 510 l 333 526 l 356 605 l 348 612 q 332 593 339 605 q 325 565 325 581 q 321 538 325 550 q 317 510 317 526 l 325 502 l 333 510 m 74 518 l 74 558 l 65 566 l 57 518 l 65 510 l 74 518 m 1094 518 l 1094 526 l 1086 535 l 1078 518 l 1086 510 l 1094 518 m 528 541 l 522 550 l 514 541 l 522 535 l 528 541 m 1291 541 l 1283 550 l 1275 541 l 1283 535 l 1291 541 m 1298 550 l 1298 572 l 1291 581 l 1283 550 l 1298 550 m 373 558 l 364 566 l 356 558 l 364 550 l 373 558 m 373 581 l 373 589 l 364 597 l 356 581 l 364 572 l 373 581 m 560 581 l 553 589 l 545 581 l 553 572 l 560 581 m 1086 581 l 1086 589 l 1078 597 l 1071 581 l 1078 572 l 1086 581 m 1266 589 l 1258 597 l 1251 589 l 1258 581 l 1266 589 m 82 597 l 82 620 l 74 628 l 65 597 l 74 589 l 82 597 m 537 597 l 528 605 l 522 597 l 528 589 l 537 597 m 804 597 l 796 605 l 787 597 l 796 589 l 804 597 m 396 605 l 387 612 l 379 605 l 387 597 l 396 605 m 553 605 l 545 612 l 537 605 l 545 597 l 553 605 m 779 605 l 773 612 l 764 605 l 773 597 l 779 605 m 379 612 l 373 620 l 364 612 l 373 605 l 379 612 m 748 612 l 741 620 l 733 612 l 741 605 l 748 612 m 514 620 l 505 628 l 497 620 l 505 612 l 514 620 m 379 628 l 373 636 l 364 628 l 373 620 l 379 628 m 748 628 l 741 636 l 733 628 l 741 620 l 748 628 m 851 628 l 843 636 l 835 628 l 843 620 l 851 628 m 1275 628 l 1266 636 l 1258 628 l 1266 620 l 1275 628 m 412 636 l 404 644 l 396 636 l 404 628 l 412 636 m 678 636 l 663 644 l 655 636 l 669 628 l 678 636 m 725 636 l 717 644 l 709 636 l 717 628 l 725 636 m 819 636 l 812 644 l 804 636 l 812 628 l 819 636 m 1078 636 l 1078 644 l 1071 651 l 1063 636 l 1071 628 l 1078 636 m 1102 636 l 1094 644 l 1086 636 l 1094 628 l 1102 636 m 419 651 l 412 659 l 404 651 l 412 644 l 419 651 m 396 659 l 387 667 l 379 659 l 387 651 l 396 659 m 450 659 l 443 667 l 435 659 l 443 651 l 450 659 m 1266 659 l 1258 667 l 1251 659 l 1258 651 l 1266 659 m 835 667 l 827 676 l 819 667 l 827 659 l 835 667 m 1071 667 l 1071 676 l 1063 682 l 1055 667 l 1063 659 l 1071 667 m 812 676 l 804 682 l 796 676 l 804 667 l 812 676 m 764 682 l 756 691 l 748 682 l 756 676 l 764 682 m 1258 682 l 1251 691 l 1243 682 l 1251 676 l 1258 682 m 1266 691 l 1266 699 l 1258 707 l 1251 691 l 1266 691 m 458 699 l 450 707 l 443 699 l 450 691 l 458 699 m 702 699 l 663 707 l 655 699 l 694 691 l 702 699 m 1063 699 l 1063 707 l 1055 715 l 1047 699 l 1055 691 l 1063 699 m 482 707 l 474 715 l 466 707 l 474 699 l 482 707 m 522 707 l 505 715 l 497 707 l 514 699 l 522 707 m 97 715 l 88 721 l 82 715 l 88 707 l 97 715 m 553 715 l 537 721 l 528 715 l 545 707 l 553 715 m 733 715 l 725 721 l 717 715 l 725 707 l 733 715 m 1258 715 l 1258 730 l 1243 754 l 1235 730 l 1251 707 l 1258 715 m 269 721 l 262 730 l 254 721 l 262 715 l 269 721 m 592 721 l 584 730 l 576 721 l 584 715 l 592 721 m 1055 721 l 1047 730 l 1039 721 l 1047 715 l 1055 721 m 277 730 l 269 738 l 262 730 l 277 730 m 285 738 l 277 746 l 269 738 l 285 738 m 294 746 l 285 754 l 277 746 l 294 746 m 1227 754 l 1218 761 l 1212 754 l 1218 746 l 1227 754 m 97 761 l 97 769 l 105 786 l 97 792 l 82 761 l 88 754 l 97 761 m 294 761 l 285 769 l 277 761 l 285 754 l 294 761 m 1243 761 l 1235 769 l 1227 761 l 1235 754 l 1243 761 m 317 777 l 309 786 l 302 777 l 309 769 l 317 777 m 1227 777 l 1227 786 l 1218 792 l 1212 777 l 1218 769 l 1227 777 m 325 786 l 317 792 l 309 786 l 325 786 m 113 792 l 105 801 l 97 792 l 105 786 l 113 792 m 333 792 l 325 801 l 317 792 l 333 792 m 340 801 l 333 809 l 325 801 l 340 801 m 160 809 l 153 817 l 145 809 l 153 801 l 160 809 m 348 809 l 340 817 l 333 809 l 348 809 m 1218 809 l 1203 825 l 1195 809 l 1212 786 l 1218 809 m 356 817 l 348 825 l 340 817 l 356 817 m 364 825 l 356 832 l 348 825 l 364 825 m 373 832 l 364 840 l 356 832 l 373 832 m 976 832 l 968 840 l 961 832 l 968 825 l 976 832 m 1195 840 l 1187 848 l 1180 840 l 1187 832 l 1195 840 m 1015 848 l 1007 856 l 999 848 l 1007 840 l 1015 848 m 953 856 l 945 864 l 937 856 l 945 848 l 953 856 m 928 871 l 914 879 l 905 871 l 922 864 l 928 871 m 905 879 l 897 887 l 889 879 l 897 871 l 905 879 m 922 887 l 914 895 l 905 887 l 914 879 l 922 887 m 443 895 l 435 902 l 427 895 l 435 887 l 443 895 m 882 895 l 874 902 l 866 895 l 874 887 l 882 895 m 905 895 l 897 902 l 889 895 l 897 887 l 905 895 m 1180 895 l 1172 902 l 1164 895 l 1172 887 l 1180 895 m 450 902 l 443 910 l 435 902 l 450 902 m 866 902 l 843 910 l 835 902 l 858 895 l 866 902 m 230 910 l 223 919 l 215 910 l 223 902 l 230 910 m 497 910 l 482 919 l 474 910 l 489 902 l 497 910 m 835 910 l 812 919 l 804 910 l 827 902 l 835 910 m 1172 910 l 1164 919 l 1156 910 l 1164 902 l 1172 910 m 238 919 l 230 927 l 223 919 l 238 919 m 804 919 l 779 927 l 773 919 l 796 910 l 804 919 m 522 927 l 505 935 l 497 927 l 514 919 l 522 927 m 773 927 l 717 935 l 709 927 l 764 919 l 773 927 m 874 927 l 858 935 l 851 927 l 866 919 l 874 927 m 1141 927 l 1133 935 l 1125 927 l 1133 919 l 1141 927 m 843 935 l 827 942 l 819 935 l 835 927 l 843 935 m 709 946 l 568 946 l 514 938 l 709 946 m 812 942 l 796 950 l 787 942 l 804 935 l 812 942 m 1148 942 l 1148 950 l 1141 958 l 1133 942 l 1141 935 l 1148 942 m 779 950 l 764 958 l 756 950 l 773 942 l 779 950 m 1125 950 l 1116 958 l 1108 950 l 1116 942 l 1125 950 m 1133 966 l 1125 974 l 1116 966 l 1125 958 l 1133 966 m 1108 974 l 1102 981 l 1094 974 l 1102 966 l 1108 974 m 1125 981 l 1116 989 l 1108 981 l 1116 974 l 1125 981 m 1094 989 l 1086 997 l 1078 989 l 1086 981 l 1094 989 m 1071 1005 l 1063 1012 l 1055 1005 l 1063 997 l 1071 1005 m 1078 1012 l 1071 1020 l 1063 1012 l 1078 1012 m 1007 1028 l 999 1036 l 992 1028 l 999 1020 l 1007 1028 m 1055 1028 l 1039 1036 l 1032 1028 l 1047 1020 l 1055 1028 m 1078 1028 l 1071 1036 l 1063 1028 l 1071 1020 l 1078 1028 m 992 1036 l 984 1045 l 976 1036 l 984 1028 l 992 1036 m 1023 1045 l 1015 1052 l 1007 1045 l 1015 1036 l 1023 1045 m 1032 1052 l 1023 1060 l 1015 1052 l 1032 1052 m 1015 1060 l 1007 1068 l 999 1060 l 1007 1052 l 1015 1060 m 999 1068 l 984 1076 l 976 1068 l 992 1060 l 999 1068 m 1023 1068 l 1015 1076 l 1007 1068 l 1023 1068 m 1007 1076 l 999 1084 l 992 1076 l 1007 1076 m 992 1084 l 984 1090 l 976 1084 l 984 1076 l 992 1084 m 953 1090 l 937 1099 l 928 1090 l 945 1084 l 953 1090 m 976 1090 l 968 1099 l 961 1090 l 968 1084 l 976 1090 m 773 1107 l 756 1115 l 748 1107 l 764 1099 l 773 1107 m 466 1115 l 458 1122 l 450 1115 l 458 1107 l 466 1115 m 482 1122 l 474 1130 l 466 1122 l 474 1115 l 482 1122 m 756 1126 l 576 1126 l 568 1118 l 748 1118 l 756 1126 m 514 1130 l 497 1138 l 489 1130 l 505 1122 l 514 1130 "},"ò":{"x_min":0,"x_max":0,"ha":694},"^":{"x_min":27,"x_max":560,"ha":587,"o":"m 100 788 l 100 797 l 90 806 l 72 797 l 63 824 l 54 806 l 44 834 l 27 834 l 27 890 l 136 1036 l 209 1128 l 238 1128 l 265 1118 l 284 1155 l 348 1118 l 357 1128 q 412 1086 384 1109 q 467 1050 440 1064 q 517 1008 494 1036 q 560 953 540 981 l 560 963 l 550 972 l 540 944 l 560 898 l 550 880 l 540 880 l 532 890 l 523 853 l 513 853 l 504 870 l 411 824 l 394 834 l 329 890 l 302 890 l 302 870 q 261 853 284 853 q 224 834 238 853 q 196 796 209 815 q 155 788 182 778 l 146 806 l 127 797 l 117 806 l 109 788 l 100 788 m 421 843 l 411 853 l 403 843 l 411 834 l 421 843 m 274 861 l 265 870 l 255 861 l 265 853 l 274 861 m 540 972 l 532 981 l 523 972 l 532 963 l 540 972 m 523 990 l 513 999 l 504 990 l 513 981 l 523 990 m 127 999 l 117 1008 l 109 999 l 117 990 l 127 999 m 146 1026 l 136 1036 l 127 1026 l 136 1018 l 146 1026 m 155 1036 l 146 1045 l 136 1036 l 155 1036 m 200 1082 l 192 1091 l 182 1082 l 192 1072 l 200 1082 m 384 1100 l 375 1109 l 367 1100 l 375 1091 l 384 1100 "},"«":{"x_min":0,"x_max":0,"ha":694},"D":{"x_min":26.828125,"x_max":1041,"ha":1075,"o":"m 193 -147 l 193 -136 l 193 -100 l 168 -100 l 156 -112 l 146 -100 l 133 -137 l 193 -147 m 216 -137 l 204 -124 l 193 -137 l 216 -137 m 536 -124 l 525 -112 l 513 -124 l 525 -137 l 536 -124 m 263 -112 l 229 -100 l 216 -112 l 252 -124 l 263 -112 m 573 -112 l 548 -100 l 536 -112 l 560 -124 l 573 -112 m 525 -100 l 513 -89 l 501 -100 l 513 -112 l 525 -100 m 596 -100 l 573 -89 l 560 -100 l 596 -100 m 156 -89 l 156 -77 l 146 -65 l 133 -89 l 146 -100 l 156 -89 m 181 -89 l 181 -77 l 168 -65 l 156 -77 l 181 -89 m 324 -89 l 216 -77 l 204 -89 l 311 -100 l 324 -89 m 181 -52 l 181 -42 l 168 -30 l 156 -52 l 168 -65 l 181 -52 m 252 -52 l 241 -42 l 229 -52 l 241 -65 l 252 -52 m 513 -42 l 465 -30 l 453 -42 l 501 -52 l 513 -42 m 608 -42 l 596 -30 l 583 -42 l 596 -52 l 608 -42 m 643 -17 l 631 -5 l 620 -17 l 631 -30 l 643 -17 m 726 -17 l 715 -5 l 703 -17 l 715 -30 l 726 -17 m 679 -5 l 668 5 l 656 -5 l 668 -17 l 679 -5 m 751 -5 l 738 5 l 726 -5 l 738 -17 l 751 -5 m 703 5 l 679 18 l 668 5 l 703 5 m 715 18 l 703 30 l 691 18 l 715 18 m 763 18 l 751 30 l 738 18 l 751 5 l 763 18 m 774 30 l 763 42 l 751 30 l 774 30 m 833 30 l 821 42 l 810 30 l 821 18 l 833 30 m 786 42 l 774 53 l 763 42 l 786 42 m 846 42 l 833 53 l 821 42 l 846 42 m 798 53 l 786 65 l 774 53 l 798 53 m 858 53 l 846 65 l 833 53 l 858 53 m 810 65 l 798 77 l 786 65 l 810 65 m 869 65 l 858 77 l 846 65 l 869 65 m 881 77 l 893 100 l 905 112 l 893 125 l 881 112 l 858 77 l 881 77 m 774 112 l 763 125 l 751 112 l 763 100 l 774 112 m 846 112 l 833 125 l 821 112 l 833 100 l 846 112 m 916 125 l 905 137 l 893 125 l 916 125 m 929 137 l 941 160 l 953 172 l 941 185 l 929 172 l 905 137 l 929 137 m 881 160 l 869 172 l 858 160 l 869 147 l 881 160 m 324 172 l 311 185 l 299 172 l 311 160 l 324 172 m 441 172 l 346 185 l 335 172 l 430 160 l 441 172 m 525 172 l 513 185 l 501 172 l 513 160 l 525 172 m 643 172 l 631 185 l 620 172 l 631 160 l 643 172 m 905 185 l 893 195 l 881 185 l 893 172 l 905 185 m 964 185 l 976 207 l 988 220 l 988 232 l 976 243 l 964 220 l 941 185 l 964 185 m 525 195 l 513 207 l 501 195 l 513 185 l 525 195 m 916 195 l 916 207 l 929 220 l 953 267 l 941 279 l 905 220 l 893 195 l 916 195 m 324 207 l 324 694 l 311 741 l 329 754 l 329 195 l 430 195 l 631 289 q 692 408 673 343 l 703 397 l 715 409 l 715 421 l 703 432 l 694 415 q 706 496 706 461 l 715 444 l 726 457 l 726 492 l 738 575 l 703 682 l 695 623 q 686 674 688 653 q 679 706 683 694 l 691 717 l 679 729 l 672 721 q 631 764 658 744 q 516 827 574 797 l 525 836 l 513 848 l 501 836 l 506 831 q 467 850 487 840 l 478 859 l 453 872 l 442 861 l 434 865 l 441 872 l 430 884 l 418 872 l 421 869 q 257 884 345 893 l 257 848 l 257 695 l 252 706 l 241 682 l 252 669 l 275 680 l 294 302 l 305 669 l 305 195 l 324 207 m 548 207 l 536 220 l 525 207 l 536 195 l 548 207 m 573 220 l 548 232 l 536 220 l 573 220 m 608 220 l 596 232 l 583 220 l 596 207 l 608 220 m 583 232 l 573 243 l 560 232 l 583 232 m 596 243 l 583 255 l 573 243 l 596 243 m 608 255 l 596 267 l 583 255 l 608 255 m 1000 255 l 988 267 l 976 255 l 988 243 l 1000 255 m 643 267 l 631 279 l 620 267 l 643 267 m 656 279 l 643 289 l 631 279 l 656 279 m 964 289 l 953 302 l 941 289 l 953 279 l 964 289 m 953 314 l 941 327 l 929 314 l 941 302 l 953 314 m 691 327 l 679 338 l 668 327 l 679 314 l 691 327 m 1000 327 l 988 338 l 976 327 l 988 314 l 1000 327 m 703 338 l 691 350 l 679 338 l 703 338 m 763 338 l 751 350 l 738 338 l 751 327 l 763 338 m 964 338 l 953 350 l 941 338 l 953 327 l 964 338 m 715 350 l 715 362 l 726 374 l 715 385 l 703 374 l 691 350 l 715 350 m 1011 374 l 1000 385 l 988 374 l 1000 362 l 1011 374 m 1011 421 l 1011 469 l 1000 480 l 988 421 l 1000 409 l 1011 421 m 73 516 l 73 575 l 61 587 l 51 516 l 61 504 l 73 516 m 1036 516 l 1036 587 l 1023 599 l 1011 516 l 1023 504 l 1036 516 m 763 564 l 763 599 l 751 611 l 738 564 l 751 552 l 763 564 m 751 669 l 738 682 l 726 669 l 738 659 l 751 669 m 263 682 l 262 680 l 262 695 l 263 694 l 263 682 m 726 706 l 715 717 l 703 706 l 715 694 l 726 706 m 715 729 l 703 741 l 691 729 l 703 717 l 715 729 m 86 764 l 73 777 l 61 764 l 73 754 l 86 764 m 679 789 l 668 801 l 656 789 l 668 777 l 679 789 m 953 801 l 941 812 l 929 801 l 941 789 l 953 801 m 583 812 l 573 824 l 560 812 l 573 801 l 583 812 m 560 824 l 536 836 l 525 824 l 548 812 l 560 824 m 608 824 l 596 836 l 583 824 l 596 812 l 608 824 m 252 836 l 252 848 l 241 859 l 229 836 l 241 824 l 252 836 m 583 836 l 573 848 l 560 836 l 573 824 l 583 836 m 73 848 l 61 859 l 51 848 l 61 836 l 73 848 m 560 848 l 548 859 l 536 848 l 548 836 l 560 848 m 536 859 l 525 872 l 513 859 l 525 848 l 536 859 m 583 859 l 573 872 l 560 859 l 573 848 l 583 859 m 548 872 l 536 884 l 525 872 l 548 872 m 525 884 l 501 896 l 488 884 l 513 872 l 525 884 m 418 901 l 263 901 l 252 889 l 406 889 l 418 901 m 893 896 l 881 906 l 869 896 l 881 884 l 893 896 m 869 931 l 858 944 l 846 931 l 858 919 l 869 931 m 833 944 l 821 955 l 810 944 l 821 931 l 833 944 m 846 955 l 833 967 l 821 955 l 846 955 m 821 967 l 810 979 l 798 967 l 810 955 l 821 967 m 726 991 l 715 1002 l 703 991 l 715 979 l 726 991 m 786 991 l 738 1026 l 726 1014 l 774 979 l 786 991 m 858 991 l 846 1002 l 833 991 l 846 979 l 858 991 m 691 1014 l 679 1026 l 668 1014 l 679 1002 l 691 1014 m 98 1026 l 86 1039 l 73 1026 l 86 1014 l 98 1026 m 715 1026 l 703 1039 l 691 1026 l 703 1014 l 715 1026 m 73 1039 l 61 1049 l 51 1039 l 61 1026 l 73 1039 m 216 1049 l 204 1062 l 193 1049 l 204 1039 l 216 1049 m 679 1049 l 668 1062 l 656 1049 l 668 1039 l 679 1049 m 216 1074 l 216 1109 l 168 1109 l 168 1074 l 216 1074 m 252 1086 l 241 1096 l 229 1086 l 241 1074 l 252 1086 m 27 527 l 27 322 l 26 327 l 27 527 m 39 706 l 51 659 l 39 669 l 39 706 m 513 1133 l 529 1125 l 488 1133 l 513 1133 m 26 137 l 34 207 l 34 127 l 26 137 m 703 587 q 708 496 708 541 l 691 599 l 695 623 q 703 587 699 606 m 26 267 l 31 288 l 31 261 l 26 267 m 691 409 l 694 415 l 692 408 l 691 409 m 668 717 l 672 721 q 679 706 676 714 l 668 717 m 513 824 l 506 831 l 516 827 l 513 824 m 441 859 l 442 861 l 467 850 l 465 848 l 441 859 m 430 859 l 421 869 l 434 865 l 430 859 m 39 955 l 42 959 l 45 949 l 39 955 m 26 1014 l 30 1018 l 33 1007 l 26 1014 m 560 1121 l 560 1112 l 529 1125 l 560 1121 m 478 1134 l 488 1133 l 475 1131 l 478 1134 m 513 -172 l 488 -160 l 490 -153 l 133 -153 l 133 -137 l 133 -112 l 121 -5 l 86 5 l 73 -77 l 51 53 l 37 -5 l 37 127 l 39 125 l 51 137 l 51 243 l 39 255 l 33 207 l 33 261 l 39 255 l 51 267 l 51 302 l 39 314 l 30 288 l 30 322 l 44 314 l 44 659 l 61 754 l 39 906 l 51 919 l 45 949 l 51 944 l 61 955 l 51 967 l 42 959 l 33 1007 l 39 1002 l 51 1014 l 39 1026 l 30 1018 l 26 1039 l 39 1049 l 51 1039 l 61 1074 l 73 1049 l 98 1086 l 86 1121 l 109 1134 l 133 1086 l 146 1120 l 475 1120 l 465 1121 l 548 1086 l 560 1096 l 560 1112 l 821 991 l 833 1002 l 656 1110 l 668 1110 q 869 985 786 1074 q 1011 789 953 896 q 1041 575 1041 682 q 1041 350 1041 469 q 977 177 1029 255 q 858 30 926 100 l 536 -160 l 525 -160 l 513 -172 m 501 -147 l 490 -160 l 524 -160 l 501 -147 "},"∙":{"x_min":27.5625,"x_max":355.796875,"ha":382,"o":"m 123 345 l 27 469 l 46 518 l 37 546 l 66 586 l 85 586 l 104 623 l 133 642 l 123 652 l 201 672 q 230 647 210 652 q 268 638 250 642 q 302 619 287 633 q 327 595 316 604 l 355 508 l 346 499 l 355 450 l 316 392 l 297 392 l 287 364 l 269 364 l 269 345 l 210 345 l 172 364 l 142 354 l 123 373 l 114 354 l 123 345 m 259 354 l 250 364 l 240 354 l 250 345 l 259 354 m 95 382 l 85 392 l 76 382 l 85 373 l 95 382 m 76 565 l 66 575 l 56 565 l 66 556 l 76 565 m 316 595 l 306 604 l 297 595 l 306 586 l 316 595 m 297 614 l 287 623 l 278 614 l 287 604 l 297 614 m 142 652 l 133 661 l 123 652 l 133 642 l 142 652 m 163 661 l 153 672 l 142 661 l 153 652 l 163 661 "},"ÿ":{"x_min":0,"x_max":0,"ha":694},"í":{"x_min":0,"x_max":0,"ha":694},"ˆ":{"x_min":27,"x_max":560,"ha":587,"o":"m 100 788 l 100 797 l 90 806 l 72 797 l 63 824 l 54 806 l 44 834 l 27 834 l 27 890 l 136 1036 l 209 1128 l 238 1128 l 265 1118 l 284 1155 l 348 1118 l 357 1128 q 412 1086 384 1109 q 467 1050 440 1064 q 517 1008 494 1036 q 560 953 540 981 l 560 963 l 550 972 l 540 944 l 560 898 l 550 880 l 540 880 l 532 890 l 523 853 l 513 853 l 504 870 l 411 824 l 394 834 l 329 890 l 302 890 l 302 870 q 261 853 284 853 q 224 834 238 853 q 196 796 209 815 q 155 788 182 778 l 146 806 l 127 797 l 117 806 l 109 788 l 100 788 m 421 843 l 411 853 l 403 843 l 411 834 l 421 843 m 274 861 l 265 870 l 255 861 l 265 853 l 274 861 m 540 972 l 532 981 l 523 972 l 532 963 l 540 972 m 523 990 l 513 999 l 504 990 l 513 981 l 523 990 m 127 999 l 117 1008 l 109 999 l 117 990 l 127 999 m 146 1026 l 136 1036 l 127 1026 l 136 1018 l 146 1026 m 155 1036 l 146 1045 l 136 1036 l 155 1036 m 200 1082 l 192 1091 l 182 1082 l 192 1072 l 200 1082 m 384 1100 l 375 1109 l 367 1100 l 375 1091 l 384 1100 "},"w":{"x_min":27,"x_max":1788,"ha":1827,"o":"m 602 -172 l 530 -147 l 495 -160 q 422 -141 458 -147 q 350 -111 386 -135 q 284 -64 314 -88 q 230 -4 254 -41 l 99 152 l 123 115 l 136 152 q 99 235 111 187 q 81 324 87 283 q 69 414 76 366 q 51 510 63 462 l 63 522 l 27 725 l 27 690 l 76 666 q 76 755 76 713 q 81 845 76 797 q 92 935 86 893 q 111 1013 98 977 l 136 1013 l 159 1097 l 171 1073 l 183 1097 l 195 1038 l 230 1085 l 243 1050 l 254 1085 l 266 1013 l 279 1050 l 279 1025 l 266 988 l 302 666 l 314 809 l 327 666 l 339 678 l 411 318 l 423 355 l 411 415 l 411 366 l 471 234 l 483 246 l 530 187 l 590 211 q 620 378 602 294 q 650 546 639 462 q 661 726 661 630 q 661 905 661 821 l 685 797 l 710 1000 l 733 893 l 758 1085 l 770 1050 l 780 1061 l 793 1000 l 805 1013 l 817 977 l 841 1061 l 852 1000 l 865 1038 l 889 965 l 901 1038 l 913 977 l 924 1038 l 937 1038 l 949 988 l 961 1061 l 973 1000 l 986 1050 l 1009 941 l 1021 988 l 1033 965 l 1045 977 q 1093 773 1058 869 q 1164 576 1128 678 q 1224 367 1199 475 q 1321 187 1248 259 l 1368 222 q 1398 343 1381 283 q 1415 475 1415 403 q 1415 612 1415 546 q 1415 750 1415 678 l 1381 1013 l 1381 977 q 1404 834 1392 905 q 1416 684 1416 762 q 1416 528 1416 606 q 1428 378 1416 450 q 1451 457 1451 415 q 1451 546 1451 499 q 1451 636 1451 594 q 1451 725 1451 678 l 1416 1050 l 1428 1110 l 1451 1013 l 1476 1061 l 1465 1110 l 1487 1145 l 1476 1181 l 1476 1169 l 1487 1157 l 1499 1169 l 1499 1133 l 1536 1133 l 1559 1169 l 1571 1122 l 1584 1145 l 1584 1110 l 1619 1110 l 1619 1157 l 1631 1097 l 1643 1145 l 1656 1145 l 1680 1050 l 1690 1122 l 1680 1169 l 1680 1133 l 1690 1122 l 1703 1157 l 1740 977 l 1752 1050 l 1740 1097 l 1740 1085 l 1752 1073 l 1763 1085 q 1788 935 1788 1013 q 1788 780 1788 857 q 1788 624 1788 702 q 1788 462 1788 546 q 1751 318 1775 391 q 1709 175 1728 246 q 1654 31 1690 103 q 1584 -100 1619 -40 l 1476 -160 l 1465 -147 l 1416 -172 l 1356 -135 l 1308 -160 q 1235 -130 1272 -147 q 1158 -106 1199 -112 q 1088 -70 1118 -100 q 1021 -4 1058 -40 l 924 103 l 817 -88 q 769 -112 793 -100 q 716 -142 746 -124 q 656 -160 685 -160 q 602 -172 627 -160 m 518 -147 l 495 -135 l 483 -147 l 506 -160 l 518 -147 m 602 -147 l 555 -135 l 542 -147 l 590 -160 l 602 -147 m 1451 -147 l 1404 -124 l 1381 -147 l 1428 -172 l 1451 -147 m 483 -135 l 458 -124 l 446 -135 l 471 -147 l 483 -135 m 1381 -135 l 1368 -124 l 1356 -135 l 1368 -147 l 1381 -135 m 434 -124 l 411 -112 l 399 -124 l 423 -135 l 434 -124 m 1272 -124 l 1261 -112 l 1248 -124 l 1261 -135 l 1272 -124 m 386 -112 l 374 -100 l 363 -112 l 374 -124 l 386 -112 m 1248 -112 l 1224 -100 l 1212 -112 l 1236 -124 l 1248 -112 m 1428 -112 l 1416 -100 l 1404 -112 l 1416 -124 l 1428 -112 m 685 -100 l 674 -88 l 662 -100 l 674 -112 l 685 -100 m 1284 -100 l 1272 -88 l 1261 -100 l 1272 -112 l 1284 -100 m 1487 -100 l 1465 -88 l 1451 -100 l 1487 -100 m 710 -88 l 697 -76 l 685 -88 l 697 -100 l 710 -88 m 1177 -88 l 1153 -76 l 1141 -88 l 1165 -100 l 1177 -88 m 1547 -88 l 1524 -76 l 1499 -100 l 1547 -88 m 733 -76 l 721 -64 l 710 -76 l 721 -88 l 733 -76 m 780 -76 l 758 -64 l 746 -76 l 780 -76 m 1128 -76 l 1118 -64 l 1105 -76 l 1118 -88 l 1128 -76 m 1487 -76 l 1476 -64 l 1465 -76 l 1476 -88 l 1487 -76 m 793 -64 l 780 -53 l 770 -64 l 793 -64 m 1547 -64 l 1524 -53 l 1512 -64 l 1536 -76 l 1547 -64 m 1559 -53 l 1547 -41 l 1536 -53 l 1559 -53 m 458 -41 l 446 -28 l 434 -41 l 446 -53 l 458 -41 m 805 -41 l 817 -16 l 805 -4 l 770 -41 l 793 -53 l 805 -41 m 1571 -41 l 1559 -28 l 1547 -41 l 1571 -41 m 1596 -28 l 1584 -16 l 1571 -28 l 1584 -41 l 1596 -28 m 1571 -16 l 1559 -4 l 1547 -16 l 1559 -28 l 1571 -16 m 829 -4 l 817 8 l 805 -4 l 817 -16 l 829 -4 m 1608 -4 l 1596 8 l 1584 -4 l 1596 -16 l 1608 -4 m 852 8 l 841 18 l 829 8 l 841 -4 l 852 8 m 1619 18 l 1608 31 l 1596 18 l 1608 8 l 1619 18 m 865 31 l 865 43 l 852 55 l 841 31 l 852 18 l 865 31 m 1631 43 l 1619 55 l 1608 43 l 1619 31 l 1631 43 m 829 55 l 817 68 l 805 55 l 817 43 l 829 55 m 877 55 l 865 68 l 852 55 l 865 43 l 877 55 m 889 80 l 877 91 l 865 80 l 877 68 l 889 80 m 171 103 l 159 115 l 148 103 l 159 91 l 171 103 m 852 103 l 841 115 l 829 103 l 841 91 l 852 103 m 961 103 l 949 115 l 937 103 l 949 91 l 961 103 m 148 115 l 136 128 l 123 115 l 136 103 l 148 115 m 913 115 l 901 128 l 889 91 l 913 115 m 1619 115 l 1608 128 l 1596 115 l 1608 103 l 1619 115 m 159 128 l 148 140 l 136 128 l 159 128 m 949 128 l 937 140 l 924 128 l 949 128 m 924 140 l 913 152 l 901 128 l 924 140 m 1631 140 l 1619 152 l 1608 140 l 1619 128 l 1631 140 m 685 152 l 674 163 l 662 152 l 674 140 l 685 152 m 1643 163 l 1631 175 l 1619 163 l 1631 152 l 1643 163 m 495 175 l 483 187 l 471 175 l 483 163 l 495 175 m 567 175 l 578 199 l 567 211 l 530 187 l 555 163 l 567 175 m 1284 175 l 1272 187 l 1261 175 l 1272 163 l 1284 175 m 1416 175 l 1416 187 l 1404 199 l 1392 175 l 1404 163 l 1416 175 m 136 187 l 123 199 l 111 187 l 123 175 l 136 187 m 423 187 l 411 199 l 399 187 l 411 175 l 423 187 m 1212 187 l 1199 199 l 1189 187 l 1199 175 l 1212 187 m 1344 187 l 1333 199 l 1321 187 l 1333 175 l 1344 187 m 1656 187 l 1643 199 l 1631 187 l 1643 175 l 1656 187 m 483 199 l 446 234 l 434 211 l 471 175 l 483 199 m 614 199 l 602 211 l 590 199 l 602 187 l 614 199 m 662 199 l 650 211 l 639 199 l 650 187 l 662 199 m 1272 199 l 1236 234 l 1224 211 l 1261 175 l 1272 199 m 1428 199 l 1428 211 l 1416 222 l 1404 199 l 1416 187 l 1428 199 m 123 211 l 111 222 l 99 211 l 111 199 l 123 211 m 1381 211 l 1368 222 l 1356 211 l 1368 199 l 1381 211 m 148 222 l 136 234 l 123 222 l 136 211 l 148 222 m 1440 222 l 1440 234 l 1428 246 l 1416 222 l 1428 211 l 1440 222 m 434 234 l 423 246 l 411 234 l 423 222 l 434 234 m 614 246 l 602 259 l 590 246 l 602 234 l 614 246 m 1212 246 l 1199 259 l 1189 246 l 1199 234 l 1212 246 m 1453 246 l 1453 259 l 1440 271 l 1428 246 l 1440 234 l 1453 246 m 111 259 l 99 271 l 87 259 l 99 246 l 111 259 m 423 259 l 399 294 l 386 259 l 411 234 l 423 259 m 627 259 l 627 294 l 614 306 l 602 259 l 627 259 m 710 259 l 697 271 l 685 259 l 697 246 l 710 259 m 123 271 l 111 283 l 99 271 l 123 271 m 1153 283 l 1141 294 l 1128 283 l 1141 271 l 1153 283 m 1199 283 l 1189 294 l 1177 283 l 1189 271 l 1199 283 m 1465 283 l 1451 294 l 1440 283 l 1451 271 l 1465 283 m 399 306 l 399 331 l 386 343 l 374 306 l 386 294 l 399 306 m 639 306 l 639 343 l 627 355 l 614 306 l 627 294 l 639 306 m 721 306 l 710 318 l 697 306 l 710 294 l 721 306 m 111 318 l 99 331 l 87 318 l 99 306 l 111 318 m 1141 318 l 1141 331 l 1128 343 l 1118 318 l 1128 306 l 1141 318 m 1189 318 l 1177 331 l 1165 318 l 1177 306 l 1189 318 m 1416 318 l 1416 331 l 1404 343 l 1392 318 l 1404 306 l 1416 318 m 136 331 l 136 366 l 123 378 l 111 331 l 123 318 l 136 331 m 339 343 l 327 355 l 314 343 l 327 331 l 339 343 m 374 343 l 374 366 l 363 378 l 351 343 l 363 331 l 374 343 m 650 355 l 650 391 q 674 475 674 427 q 685 570 674 522 q 697 666 697 618 q 697 762 697 713 l 674 809 q 662 696 662 762 q 656 576 662 630 q 638 468 650 522 q 627 355 627 415 l 639 343 l 650 355 m 733 355 l 721 366 l 710 355 l 721 343 l 733 355 m 1212 355 l 1199 366 l 1189 355 l 1199 343 l 1212 355 m 1428 355 l 1428 378 l 1416 391 l 1404 355 l 1416 343 l 1428 355 m 1153 378 l 1141 391 l 1128 378 l 1141 366 l 1153 378 m 1728 378 l 1728 403 l 1715 415 l 1703 378 l 1715 366 l 1728 378 m 99 391 l 87 403 l 76 391 l 87 378 l 99 391 m 363 391 l 363 427 l 351 438 l 339 378 l 351 366 l 363 391 m 1165 391 l 1153 403 l 1141 391 l 1165 391 m 1199 391 l 1189 403 l 1177 391 l 1189 378 l 1199 391 m 1524 391 l 1512 403 l 1499 391 l 1512 378 l 1524 391 m 123 403 l 123 427 l 111 438 l 99 403 l 111 391 l 123 403 m 746 403 l 746 415 l 733 427 l 721 403 l 733 391 l 746 403 m 1189 427 l 1189 438 l 1177 450 l 1165 427 l 1177 415 l 1189 427 m 87 450 l 76 462 l 63 450 l 76 438 l 87 450 m 758 450 l 758 487 l 746 499 l 733 450 l 746 438 l 758 450 m 111 462 l 111 510 l 99 522 l 87 462 l 99 450 l 111 462 m 351 462 l 351 499 l 339 510 l 327 438 l 339 427 l 351 462 m 1177 462 l 1165 475 l 1153 462 l 1165 450 l 1177 462 m 1788 462 l 1775 475 l 1763 450 l 1775 438 l 1788 462 m 770 510 l 770 546 l 758 559 l 746 510 l 758 499 l 770 510 m 1118 510 l 1118 522 l 1105 534 l 1093 510 l 1105 499 l 1118 510 m 1165 510 l 1165 522 l 1153 534 l 1141 510 l 1153 499 l 1165 510 m 339 522 l 339 594 l 327 606 l 314 522 l 327 510 l 339 522 m 76 534 l 63 546 l 51 534 l 63 522 l 76 534 m 99 546 l 99 594 l 87 606 l 76 546 l 87 534 l 99 546 m 1105 546 l 1093 559 l 1081 534 l 1093 522 l 1105 546 m 1153 546 l 1153 582 l 1141 594 l 1128 534 l 1141 522 l 1153 546 m 1069 559 l 1058 569 l 1045 559 l 1058 546 l 1069 559 m 1058 594 l 1045 606 l 1033 594 l 1045 582 l 1058 594 m 1105 594 l 1093 606 l 1081 594 l 1093 582 l 1105 594 m 1141 606 l 1128 618 l 1118 594 l 1128 582 l 1141 606 m 63 618 l 51 630 l 39 618 l 51 606 l 63 618 m 1118 618 l 1105 630 l 1093 618 l 1105 606 l 1118 618 m 87 630 l 87 666 l 76 678 l 63 630 l 76 618 l 87 630 m 302 630 l 291 641 l 279 630 l 291 618 l 302 630 m 327 630 l 327 666 l 314 678 l 302 641 l 327 630 m 1093 630 l 1081 641 l 1069 630 l 1081 618 l 1093 630 m 1081 666 l 1069 678 l 1058 666 l 1069 653 l 1081 666 m 279 702 l 279 893 l 260 905 l 260 702 l 266 690 l 279 702 m 1069 702 l 1058 713 l 1045 702 l 1058 690 l 1069 702 m 1105 702 l 1093 713 l 1081 702 l 1093 690 l 1105 702 m 1499 702 l 1499 774 l 1487 785 l 1476 702 l 1487 690 l 1499 702 m 1093 737 l 1081 750 l 1069 737 l 1081 725 l 1093 737 m 111 750 l 111 785 l 99 797 l 87 750 l 99 737 l 111 750 m 1081 774 l 1069 785 l 1058 774 l 1069 762 l 1081 774 m 1775 774 l 1775 834 l 1763 846 l 1752 774 l 1763 762 l 1775 774 m 1465 797 l 1451 809 l 1440 797 l 1451 785 l 1465 797 m 1069 809 l 1058 821 l 1045 809 l 1058 797 l 1069 809 m 1487 834 l 1487 905 l 1476 916 l 1465 834 l 1476 821 l 1487 834 m 111 846 l 111 857 l 123 977 l 111 988 l 87 846 l 99 834 l 111 846 m 254 905 l 243 916 l 230 785 l 243 774 l 254 905 m 986 905 l 986 953 l 973 965 l 961 905 l 973 893 l 986 905 m 1763 905 l 1763 965 l 1752 977 l 1740 905 l 1752 893 l 1763 905 m 1451 928 l 1440 941 l 1428 928 l 1440 916 l 1451 928 m 1476 941 l 1476 988 l 1465 1000 l 1451 941 l 1465 928 l 1476 941 m 230 965 l 219 977 l 207 965 l 219 953 l 230 965 m 159 1013 l 159 1025 l 148 1038 l 136 1013 l 148 1000 l 159 1013 m 243 1013 l 243 1050 l 230 1061 l 219 1013 l 230 1000 l 243 1013 m 1440 1013 l 1428 1025 l 1416 1013 l 1428 1000 l 1440 1013 m 1703 1013 l 1703 1038 l 1690 1050 l 1680 1013 l 1690 1000 l 1703 1013 m 1524 1038 l 1512 1050 l 1499 1038 l 1512 1025 l 1524 1038 m 171 1050 l 171 1073 l 159 1085 l 148 1050 l 159 1038 l 171 1050 m 1619 1085 l 1619 1097 l 1608 1110 l 1596 1085 l 1608 1073 l 1619 1085 m 1656 1085 l 1656 1097 l 1643 1110 l 1631 1085 l 1643 1073 l 1656 1085 m 1547 1110 l 1547 1122 l 1536 1133 l 1524 1110 l 1536 1097 l 1547 1110 "},"$":{"x_min":27.3125,"x_max":931.953125,"ha":959,"o":"m 531 -188 l 531 -182 l 545 -155 l 539 -148 l 510 -161 l 503 -148 l 490 -168 l 490 -161 l 503 -141 l 490 -112 l 483 -127 l 483 -118 l 490 -99 l 483 -92 l 463 -134 l 463 -127 l 483 -85 l 476 -78 l 448 -127 l 448 -118 l 469 -85 l 463 -72 l 476 -43 l 469 -30 l 510 66 l 469 73 l 510 79 l 448 93 l 302 73 l 324 73 l 331 79 l 296 86 l 317 93 l 296 101 l 331 108 l 324 129 l 289 129 l 324 135 l 296 142 l 296 149 l 510 170 l 510 287 l 490 287 l 503 294 l 476 301 l 400 284 l 317 284 l 289 281 l 309 281 l 317 287 l 275 301 l 262 294 l 255 301 l 242 294 l 255 294 l 255 308 l 248 315 l 226 308 l 242 308 l 242 329 l 248 322 l 269 329 l 269 349 l 248 356 l 233 349 l 233 363 q 296 380 261 377 q 365 384 331 384 q 431 394 400 384 q 490 415 463 405 l 351 415 l 463 432 l 463 446 l 497 452 l 497 544 l 483 544 q 438 504 463 521 q 386 481 414 488 q 333 456 358 474 q 282 439 309 439 l 137 515 l 47 633 l 68 627 l 68 646 q 43 694 47 666 q 37 750 40 722 q 30 809 33 778 q 27 867 27 840 l 47 979 l 54 970 l 130 1124 l 137 1116 l 151 1130 l 157 1124 l 199 1171 l 185 1137 l 193 1130 l 219 1158 l 233 1151 l 248 1165 l 242 1158 l 275 1144 l 282 1151 l 289 1144 l 193 985 l 199 979 l 255 1068 q 227 1027 241 1048 q 202 985 213 1006 q 189 943 192 964 q 185 895 185 923 l 199 874 l 209 970 l 209 957 l 209 805 l 275 681 l 317 653 l 371 688 q 396 757 378 722 q 414 833 414 791 q 414 912 414 874 q 414 992 414 950 l 400 1040 l 400 1026 l 407 1019 l 421 1068 l 414 1088 l 414 1075 l 427 1048 l 434 1081 l 421 1130 l 421 1124 l 427 1116 l 441 1151 l 448 1109 l 463 1109 l 476 1130 l 463 1178 l 463 1165 l 483 1116 l 490 1144 l 483 1165 l 483 1151 l 490 1144 l 497 1158 l 503 1151 l 517 1178 l 531 1151 l 539 1165 l 572 1075 l 579 1102 l 572 1137 l 579 1144 l 572 1165 l 579 1165 q 620 999 599 1081 q 655 833 642 916 q 680 666 669 749 q 691 495 691 584 l 738 495 l 766 502 l 793 495 l 820 502 l 800 502 l 786 488 l 814 481 l 842 488 l 849 481 l 883 488 l 862 488 l 820 467 l 856 459 l 883 467 l 889 459 l 862 452 l 876 446 l 856 446 l 856 432 l 869 419 l 898 426 l 876 426 l 862 412 l 889 398 l 862 392 l 869 384 l 856 370 l 883 363 l 814 336 l 835 329 l 862 336 l 842 336 l 717 315 l 780 308 l 807 315 l 786 315 l 780 308 l 786 297 l 704 297 l 704 225 q 748 225 724 225 q 793 221 773 225 q 835 214 814 218 q 876 204 856 211 l 835 197 l 869 193 l 842 193 l 744 193 l 786 207 l 704 207 l 704 173 l 898 173 l 911 142 l 898 135 l 931 129 l 904 122 l 911 115 l 828 101 l 889 79 l 869 73 l 904 66 l 876 66 l 835 73 l 814 66 l 814 46 l 849 46 l 820 46 l 773 53 l 786 59 l 691 73 q 680 22 684 46 q 669 -30 676 -2 q 648 -78 662 -58 q 628 -127 635 -99 l 614 -127 l 608 -155 l 608 -148 l 628 -99 l 621 -92 l 593 -141 l 586 -127 l 579 -141 l 572 -134 l 552 -175 l 545 -161 l 531 -188 m 517 -148 l 517 -141 l 510 -134 l 503 -148 l 510 -155 l 517 -148 m 552 -148 l 552 -141 l 545 -134 l 539 -148 l 545 -155 l 552 -148 m 524 -134 l 517 -127 l 510 -134 l 517 -141 l 524 -134 m 565 -134 l 558 -127 l 552 -141 l 558 -148 l 565 -134 m 572 -127 l 565 -118 l 558 -127 l 572 -127 m 586 -118 l 579 -112 l 572 -118 l 586 -118 m 503 -112 l 503 -106 l 497 -99 l 490 -112 l 497 -118 l 503 -112 m 593 -112 l 593 -106 l 586 -99 l 579 -112 l 593 -112 m 608 -106 l 599 -99 l 593 -106 l 599 -112 l 608 -106 m 599 -92 l 593 -85 l 586 -99 l 593 -106 l 599 -92 m 635 -92 l 635 -85 l 628 -78 l 621 -92 l 628 -99 l 635 -92 m 497 -85 l 490 -78 l 483 -85 l 490 -92 l 497 -85 m 608 -78 l 599 -72 l 593 -78 l 599 -85 l 608 -78 m 642 -78 l 642 -72 l 635 -65 l 628 -78 l 635 -85 l 642 -78 m 483 -72 l 476 -65 l 469 -72 l 476 -78 l 483 -72 m 503 -72 l 503 -65 l 497 -58 l 490 -72 l 497 -78 l 503 -72 m 490 -58 l 483 -51 l 476 -58 l 483 -65 l 490 -58 m 510 -58 l 510 -51 l 503 -43 l 497 -58 l 503 -65 l 510 -58 m 599 -51 l 593 -43 l 586 -51 l 593 -58 l 599 -51 m 648 -51 l 642 -43 l 635 -51 l 642 -58 l 648 -51 m 497 -43 l 490 -36 l 483 -43 l 490 -51 l 497 -43 m 483 -36 l 483 -30 l 476 -23 l 469 -36 l 476 -43 l 483 -36 m 517 -36 l 510 -30 l 503 -36 l 510 -43 l 517 -36 m 503 -30 l 503 -16 l 497 -9 l 490 -30 l 497 -36 l 503 -30 m 524 -23 l 517 -16 l 510 -23 l 517 -30 l 524 -23 m 510 -9 l 510 3 l 503 10 l 497 -9 l 503 -16 l 510 -9 m 524 -2 l 517 3 l 510 -2 l 517 -9 l 524 -2 m 669 -2 l 662 3 l 655 -2 l 662 -9 l 669 -2 m 531 10 l 524 17 l 517 10 l 524 3 l 531 10 m 675 25 l 684 53 l 676 59 l 662 10 l 669 3 l 675 25 m 539 32 l 539 46 l 531 53 l 524 32 l 531 25 l 539 32 m 545 66 l 539 73 l 531 66 l 539 59 l 545 66 m 800 66 l 786 73 l 780 66 l 793 59 l 800 66 m 849 79 l 807 86 l 800 79 l 842 73 l 849 79 m 691 86 l 684 93 l 676 86 l 684 79 l 691 86 m 344 142 l 324 149 l 317 142 l 337 135 l 344 142 m 524 177 l 524 274 l 513 281 l 513 177 l 517 170 l 524 177 m 393 294 l 324 301 l 317 294 l 386 287 l 393 294 m 427 294 l 421 301 l 414 294 l 421 287 l 427 294 m 454 301 l 448 308 l 441 301 l 448 294 l 454 301 m 517 301 l 510 308 l 503 301 l 510 294 l 517 301 m 282 308 l 275 315 l 269 308 l 275 301 l 282 308 m 434 308 l 427 315 l 421 308 l 427 301 l 434 308 m 483 308 l 476 315 l 469 308 l 476 301 l 483 308 m 407 315 l 400 322 l 393 315 l 400 308 l 407 315 m 463 315 l 454 322 l 448 315 l 454 308 l 463 315 m 275 322 l 269 329 l 262 322 l 269 315 l 275 322 m 814 349 l 780 356 l 773 349 l 807 342 l 814 349 m 262 363 l 248 370 l 242 363 l 255 356 l 262 363 m 849 384 l 842 392 l 835 384 l 842 377 l 849 384 m 517 419 l 510 426 l 503 419 l 510 412 l 517 419 m 842 426 l 835 432 l 828 426 l 835 419 l 842 426 m 490 446 l 476 452 l 469 446 l 483 439 l 490 446 m 835 446 l 814 452 l 807 446 l 828 439 l 835 446 m 302 452 l 255 459 l 248 452 l 309 439 l 317 446 l 302 452 m 510 452 l 503 459 l 497 452 l 503 446 l 510 452 m 262 467 l 242 474 l 233 467 l 255 459 l 262 467 m 510 467 l 510 528 l 503 536 l 497 467 l 503 459 l 510 467 m 233 474 l 206 488 l 199 481 l 226 467 l 233 474 m 282 474 l 269 481 l 262 474 l 275 467 l 282 474 m 358 474 l 344 481 l 296 474 l 296 459 l 358 474 m 255 481 l 248 488 l 242 481 l 248 474 l 255 481 m 371 481 l 358 488 l 351 481 l 371 481 m 309 488 l 302 495 l 296 488 l 302 481 l 309 488 m 766 488 l 704 495 l 697 488 l 759 481 l 766 488 m 178 495 l 172 502 l 164 495 l 172 488 l 178 495 m 364 495 l 351 502 l 344 495 l 358 488 l 364 495 m 331 502 l 324 508 l 317 502 l 324 495 l 331 502 m 378 502 l 364 508 l 358 502 l 378 502 m 676 502 l 676 508 l 669 515 l 662 502 l 669 495 l 676 502 m 172 508 l 172 515 l 157 515 l 151 508 l 164 495 l 172 508 m 393 508 l 386 515 l 378 508 l 386 502 l 393 508 m 193 515 l 185 521 l 178 515 l 185 508 l 193 515 m 144 521 l 137 528 l 130 521 l 137 515 l 144 521 m 441 521 l 434 528 l 427 521 l 434 515 l 441 521 m 151 528 l 151 536 l 123 556 l 116 550 l 151 528 m 448 528 l 441 536 l 434 528 l 448 528 m 463 536 l 454 544 l 448 536 l 454 528 l 463 536 m 469 544 l 463 550 l 454 544 l 469 544 m 503 544 l 503 550 l 497 556 l 490 544 l 497 536 l 503 544 m 476 550 l 469 556 l 463 550 l 476 550 m 164 556 l 157 563 l 151 556 l 157 550 l 164 556 m 490 556 l 490 563 l 483 570 l 469 556 l 490 556 m 103 563 l 96 570 l 88 563 l 96 556 l 103 563 m 151 563 l 144 570 l 137 563 l 144 556 l 151 563 m 123 570 l 116 577 l 110 570 l 116 563 l 123 570 m 503 570 l 503 584 l 497 591 l 490 570 l 497 563 l 503 570 m 96 577 l 88 584 l 81 577 l 88 570 l 96 577 m 144 577 l 137 584 l 130 577 l 137 570 l 144 577 m 476 577 l 469 584 l 463 577 l 469 570 l 476 577 m 116 584 l 110 591 l 103 584 l 116 584 m 103 591 l 96 597 l 88 591 l 96 584 l 103 591 m 81 597 l 75 604 l 68 597 l 75 591 l 81 597 m 669 597 l 669 620 l 662 627 l 655 597 l 662 591 l 669 597 m 103 604 l 96 613 l 88 604 l 96 597 l 103 604 m 81 613 l 75 620 l 68 613 l 75 604 l 81 613 m 490 613 l 483 620 l 476 613 l 483 604 l 490 613 m 68 620 l 61 627 l 54 620 l 61 613 l 68 620 m 103 620 l 96 627 l 88 620 l 96 613 l 103 620 m 75 627 l 68 633 l 61 627 l 75 627 m 96 633 l 88 639 l 81 633 l 96 633 m 358 639 l 351 646 l 344 639 l 351 633 l 358 639 m 275 646 l 269 653 l 262 646 l 269 639 l 275 646 m 81 653 l 75 660 l 68 633 l 81 633 l 88 639 l 81 653 m 262 653 l 255 660 l 248 653 l 255 646 l 262 653 m 302 653 l 296 660 l 289 653 l 296 646 l 302 653 m 331 653 l 324 660 l 317 653 l 324 646 l 331 653 m 337 660 l 331 666 l 324 660 l 337 660 m 364 660 l 358 666 l 351 660 l 358 653 l 364 660 m 248 666 l 242 674 l 233 666 l 242 660 l 248 666 m 351 666 l 344 674 l 337 666 l 344 660 l 351 666 m 371 666 l 364 674 l 358 666 l 371 666 m 269 674 l 262 681 l 255 674 l 262 666 l 269 674 m 358 674 l 351 681 l 344 674 l 358 674 m 61 681 l 61 688 l 54 695 l 47 681 l 54 674 l 61 681 m 75 681 l 75 688 l 68 695 l 61 688 l 75 681 m 364 681 l 358 688 l 351 681 l 364 681 m 393 681 l 386 688 l 378 681 l 386 674 l 393 681 m 242 688 l 233 695 l 226 688 l 233 681 l 242 688 m 262 688 l 255 695 l 248 688 l 255 681 l 262 688 m 414 688 l 407 695 l 400 688 l 407 681 l 414 688 m 400 695 l 400 702 l 393 709 l 386 695 l 393 688 l 400 695 m 68 702 l 68 722 l 40 791 l 33 749 l 40 716 l 54 716 l 61 695 l 68 702 m 219 702 l 213 709 l 206 702 l 213 695 l 219 702 m 242 702 l 233 709 l 226 702 l 233 695 l 242 702 m 248 709 l 242 716 l 233 709 l 248 709 m 407 709 l 407 716 l 400 722 l 393 709 l 400 702 l 407 709 m 213 716 l 206 722 l 199 716 l 206 709 l 213 716 m 393 722 l 386 729 l 378 722 l 386 716 l 393 722 m 206 743 l 206 749 l 199 758 l 193 743 l 199 736 l 206 743 m 414 743 l 407 749 l 400 743 l 407 736 l 414 743 m 434 749 l 434 758 l 427 764 l 421 749 l 427 743 l 434 749 m 219 758 l 213 764 l 206 758 l 213 749 l 219 758 m 407 758 l 400 764 l 393 758 l 400 749 l 407 758 m 441 764 l 441 771 l 434 778 l 427 764 l 434 758 l 441 764 m 655 764 l 648 771 l 642 764 l 648 758 l 655 764 m 193 798 l 193 805 l 199 819 l 185 867 l 178 798 l 185 791 l 193 798 m 441 812 l 434 819 l 427 812 l 434 805 l 441 812 m 642 834 l 642 840 l 635 847 l 628 834 l 635 825 l 642 834 m 61 847 l 54 854 l 47 847 l 54 840 l 61 847 m 427 861 l 427 923 l 421 930 l 414 861 l 421 854 l 427 861 m 635 867 l 635 888 l 621 916 l 614 888 l 628 861 l 635 867 m 68 881 l 68 909 l 88 1026 l 81 1033 q 64 1002 67 1019 q 57 964 60 985 q 54 923 54 943 q 54 881 54 903 l 61 874 l 68 881 m 157 916 l 157 930 l 151 937 l 144 916 l 151 909 l 157 916 m 621 930 l 614 937 l 608 916 l 614 909 l 621 930 m 427 970 l 427 985 l 421 992 l 414 970 l 421 964 l 427 970 m 621 979 l 614 985 l 608 979 l 614 970 l 621 979 m 421 1006 l 421 1012 l 414 1019 l 407 1006 l 414 999 l 421 1006 m 116 1019 l 110 1026 l 103 1019 l 110 1012 l 116 1019 m 427 1019 l 427 1026 l 421 1033 l 414 1019 l 421 1012 l 427 1019 m 96 1033 l 96 1040 l 88 1048 l 81 1033 l 88 1026 l 96 1033 m 123 1033 l 116 1040 l 110 1033 l 116 1026 l 123 1033 m 130 1040 l 130 1048 l 123 1054 l 116 1040 l 130 1040 m 110 1048 l 110 1054 l 103 1061 l 96 1048 l 103 1040 l 110 1048 m 137 1061 l 130 1068 l 123 1061 l 130 1054 l 137 1061 m 586 1061 l 586 1075 l 579 1081 l 572 1061 l 579 1054 l 586 1061 m 144 1075 l 137 1081 l 130 1075 l 137 1068 l 144 1075 m 448 1081 l 448 1088 l 441 1095 l 434 1081 l 441 1075 l 448 1081 m 151 1088 l 144 1095 l 137 1088 l 144 1081 l 151 1088 m 137 1088 l 137 1102 l 130 1109 l 116 1095 l 137 1088 m 248 1095 l 242 1102 l 233 1095 l 242 1088 l 248 1095 m 476 1095 l 469 1102 l 463 1095 l 469 1088 l 476 1095 m 441 1102 l 441 1116 l 434 1124 l 427 1102 l 434 1095 l 441 1102 m 144 1109 l 137 1116 l 130 1109 l 137 1102 l 144 1109 m 151 1116 l 144 1124 l 137 1116 l 151 1116 m 178 1116 l 172 1124 l 164 1116 l 172 1109 l 178 1116 m 269 1116 l 262 1124 l 255 1116 l 262 1109 l 269 1116 m 497 1116 l 490 1124 l 483 1116 l 490 1109 l 497 1116 m 185 1124 l 178 1130 l 172 1124 l 185 1124 m 255 1124 l 248 1130 l 242 1124 l 248 1116 l 255 1124 m 275 1124 l 269 1130 l 262 1124 l 275 1124 m 262 1137 l 255 1144 l 248 1137 l 255 1130 l 262 1137 m 524 1151 l 524 1158 l 517 1165 l 510 1151 l 517 1144 l 524 1151 "},"\\":{"x_min":27.578125,"x_max":560,"ha":587,"o":"m 454 -170 l 438 -146 l 430 -154 l 404 -113 l 396 -130 l 404 -154 l 404 -146 l 396 -138 l 388 -146 l 388 -130 l 371 -130 q 203 141 261 -6 q 98 445 145 289 q 52 762 52 601 q 27 1079 52 922 l 35 1087 l 52 1045 l 60 1071 l 52 1128 l 60 1128 l 68 1103 l 76 1168 l 92 1103 l 100 1128 l 116 1087 l 124 1103 l 141 1103 l 150 1160 l 159 1128 l 167 1168 l 183 1111 l 199 1136 l 207 1071 l 232 1071 l 232 1119 l 281 930 l 290 979 l 273 1111 l 273 1087 q 327 885 306 988 q 363 675 347 782 q 400 466 379 569 q 446 264 421 364 l 438 232 l 479 125 l 470 108 l 527 9 l 535 17 l 551 1 l 535 17 l 527 1 l 560 -113 l 560 -105 l 551 -97 l 535 -113 l 511 -73 l 503 -89 l 519 -146 l 511 -146 l 470 -105 l 446 -146 l 454 -170 m 503 -97 l 495 -89 l 487 -97 l 495 -105 l 503 -97 m 404 -55 l 396 -47 l 388 -55 l 396 -64 l 404 -55 m 355 -47 l 347 -39 l 339 -47 l 347 -55 l 355 -47 m 240 92 l 240 100 l 232 108 l 223 92 l 232 84 l 240 92 m 232 117 l 232 125 l 215 149 l 207 125 l 223 100 l 232 117 m 215 157 l 207 165 l 199 157 l 207 149 l 215 157 m 207 182 l 199 190 l 191 182 l 199 174 l 207 182 m 264 198 l 256 206 l 248 198 l 256 190 l 264 198 m 421 273 l 421 289 l 404 313 l 396 289 l 412 264 l 421 273 m 167 289 l 167 297 l 159 305 l 150 289 l 159 281 l 167 289 m 159 313 l 159 321 l 141 346 l 132 321 l 150 297 l 159 313 m 412 330 l 412 338 l 404 346 l 396 330 l 404 321 l 412 330 m 141 354 l 132 364 l 124 354 l 132 346 l 141 354 m 404 354 l 396 364 l 388 346 l 396 338 l 404 354 m 150 364 l 141 372 l 132 364 l 150 364 m 404 380 l 404 397 q 379 531 388 461 q 363 671 371 601 q 339 806 355 740 q 306 939 323 872 l 298 872 l 396 372 l 404 380 m 132 388 l 124 397 l 116 388 l 124 380 l 132 388 m 141 397 l 132 405 l 124 397 l 141 397 m 124 421 l 116 429 l 108 421 l 116 413 l 124 421 m 132 429 l 124 437 l 116 429 l 132 429 m 116 453 l 108 461 l 100 453 l 108 445 l 116 453 m 108 486 l 100 494 l 92 486 l 100 478 l 108 486 m 100 512 l 100 520 l 92 528 l 84 512 l 92 503 l 100 512 m 108 528 l 100 536 l 92 528 l 100 520 l 108 528 m 92 544 l 84 553 l 76 544 l 84 536 l 92 544 m 100 553 l 92 561 l 84 553 l 100 553 m 92 585 l 84 593 l 76 585 l 84 577 l 92 585 m 84 625 l 76 634 l 68 625 l 76 617 l 84 625 m 92 634 l 92 643 l 84 651 l 76 634 l 92 634 m 76 683 l 68 692 l 60 683 l 68 675 l 76 683 m 84 692 l 84 716 l 76 724 l 68 692 l 84 692 m 68 756 l 60 765 l 52 756 l 60 748 l 68 756 m 76 765 l 76 831 l 68 839 l 60 765 l 76 765 m 60 888 l 52 896 l 43 888 l 52 880 l 60 888 m 60 988 l 52 996 l 43 988 l 52 979 l 60 988 "},"Ì":{"x_min":0,"x_max":0,"ha":694},"µ":{"x_min":0,"x_max":0,"ha":694},"Ç":{"x_min":0,"x_max":0,"ha":694},"’":{"x_min":27.375,"x_max":368,"ha":395,"o":"m 164 687 l 173 696 l 156 705 l 137 696 l 146 705 l 127 715 l 119 705 l 110 733 l 91 733 l 110 761 l 91 769 l 127 778 l 146 824 l 119 889 l 100 889 l 81 880 l 73 907 l 64 889 l 64 917 l 45 917 l 27 990 l 36 1017 l 27 1026 l 100 1109 l 91 1119 q 114 1133 100 1128 q 145 1138 127 1138 q 178 1138 164 1138 q 210 1138 192 1138 l 219 1128 l 210 1119 l 293 1100 l 284 1091 l 368 999 l 368 880 l 331 769 l 312 769 l 312 752 l 293 752 l 293 733 l 256 715 l 275 733 l 256 742 l 202 723 q 202 705 202 715 q 192 696 202 696 q 178 691 183 696 q 164 687 173 687 m 192 705 l 183 715 l 173 705 l 183 696 l 192 705 m 156 715 l 146 723 l 137 715 l 146 705 l 156 715 m 119 769 l 110 778 l 100 769 l 110 761 l 119 769 m 164 815 l 146 824 l 137 815 l 156 805 l 164 815 m 164 834 l 156 844 l 146 834 l 156 824 l 164 834 m 156 852 l 146 861 l 137 852 l 146 844 l 156 852 m 54 990 l 45 999 l 36 990 l 45 980 l 54 990 m 64 1045 l 54 1055 l 45 1045 l 54 1036 l 64 1045 m 110 1119 l 100 1128 l 91 1119 l 100 1109 l 110 1119 m 127 1128 l 119 1138 l 110 1128 l 119 1119 l 127 1128 "},"-":{"x_min":27.125,"x_max":557.453125,"ha":585,"o":"m 134 348 l 326 348 l 355 344 l 404 353 l 364 353 l 336 348 l 143 348 l 134 348 m 153 372 l 162 401 l 143 401 l 134 391 l 143 401 l 104 412 l 94 401 l 104 412 l 36 421 l 27 412 l 113 450 l 75 459 l 66 450 l 94 469 l 47 478 l 36 469 l 66 508 l 104 527 l 75 546 l 66 537 l 56 546 l 47 537 l 153 565 l 162 595 l 143 604 l 134 595 l 143 604 l 123 614 l 104 614 l 374 614 l 404 614 l 451 623 l 442 614 l 470 604 l 519 614 l 481 614 l 451 595 l 509 575 l 461 565 l 519 556 l 470 546 l 538 537 l 519 527 l 528 517 l 509 508 l 519 498 l 500 488 l 528 478 l 470 450 l 509 431 l 557 440 l 538 440 l 470 412 l 509 401 l 442 391 l 404 401 l 394 391 l 423 382 l 355 376 l 162 376 l 153 372 m 240 391 l 181 401 l 172 391 l 230 382 l 240 391 m 143 431 l 94 440 l 85 431 l 134 421 l 143 431 m 181 431 l 162 440 l 153 431 l 172 421 l 181 431 m 470 431 l 461 440 l 451 431 l 461 421 l 470 431 m 162 450 l 123 459 l 113 450 l 153 440 l 162 450 m 123 488 l 66 498 l 56 488 l 113 478 l 123 488 m 123 517 l 104 527 l 94 517 l 113 508 l 123 517 m 491 517 l 481 527 l 470 517 l 481 508 l 491 517 m 113 537 l 104 546 l 94 537 l 104 527 l 113 537 m 451 546 l 432 556 l 423 546 l 442 537 l 451 546 m 336 565 l 307 575 l 297 565 l 326 556 l 336 565 m 442 565 l 432 575 l 423 565 l 432 556 l 442 565 m 181 575 l 172 585 l 162 575 l 172 565 l 181 575 "},"Q":{"x_min":31.109375,"x_max":1161.953125,"ha":1189,"o":"m 927 -168 l 937 -149 q 908 -106 918 -130 q 875 -69 899 -83 q 828 -41 852 -55 q 786 -17 805 -27 q 725 -55 757 -46 q 659 -70 692 -65 q 588 -78 626 -74 q 513 -83 551 -83 l 494 -79 l 345 -79 q 280 -56 308 -75 q 223 -22 252 -37 q 171 19 195 -8 q 120 75 147 47 q 82 160 101 113 q 53 249 63 207 q 35 337 44 291 q 35 441 26 384 q 54 531 44 489 q 73 620 64 573 q 96 709 82 667 q 130 789 111 751 l 139 779 l 298 1033 l 345 1071 l 327 1079 l 327 1088 l 345 1098 l 298 1107 l 279 1098 l 289 1098 q 349 1112 317 1107 q 410 1130 382 1116 q 476 1135 439 1145 q 542 1149 513 1126 l 410 1149 l 391 1149 l 401 1149 l 533 1149 q 636 1112 589 1131 q 735 1071 683 1094 q 833 1017 786 1049 q 918 939 880 984 q 992 840 954 892 q 1049 732 1030 789 q 1081 615 1068 676 q 1086 489 1095 554 q 1067 413 1076 451 q 1044 338 1058 376 q 1016 268 1030 300 q 983 197 1002 236 q 1040 165 1012 178 q 1087 122 1069 151 q 1123 70 1105 94 q 1161 20 1142 47 l 1123 56 l 1095 38 l 1152 -65 l 1142 -92 l 1123 -92 l 1114 -83 l 1086 -92 l 1086 -120 l 1105 -158 l 1086 -168 l 1105 -168 l 1105 -139 l 1076 -111 l 1021 -149 l 1040 -149 l 1040 -130 l 1031 -120 l 1012 -130 l 974 -102 l 974 -120 l 992 -158 l 974 -168 l 974 -158 l 983 -168 l 992 -139 l 974 -102 l 946 -102 l 927 -168 m 937 -102 l 927 -75 l 899 -75 l 889 -83 l 927 -111 l 937 -102 m 1086 -92 l 1086 -83 l 1076 -75 l 1069 -92 l 1076 -102 l 1086 -92 m 974 -83 l 964 -75 l 955 -83 l 964 -92 l 974 -83 m 364 -75 l 345 -65 l 336 -75 l 355 -83 l 364 -75 m 439 -75 l 448 -65 l 364 -55 l 355 -65 l 439 -75 m 1105 -75 l 1095 -65 l 1086 -75 l 1095 -83 l 1105 -75 m 561 -65 l 552 -55 l 542 -65 l 552 -75 l 561 -65 m 899 -65 l 880 -46 l 870 -65 l 889 -83 l 899 -65 m 1114 -65 l 1105 -55 l 1095 -65 l 1114 -65 m 355 -55 l 345 -46 l 336 -55 l 345 -65 l 355 -55 m 467 -55 l 458 -46 l 448 -55 l 458 -65 l 467 -55 m 317 -46 q 256 -8 289 -27 q 195 38 223 10 q 138 94 166 66 q 101 151 110 123 l 91 123 q 129 66 101 94 q 185 9 157 37 q 246 -32 214 -17 q 308 -75 279 -46 l 336 -75 l 345 -65 l 317 -46 m 391 -46 l 308 -17 l 298 -27 l 391 -46 m 429 -46 l 410 -37 l 401 -46 l 420 -55 l 429 -46 m 861 -46 l 852 -37 l 842 -46 l 852 -55 l 861 -46 m 1086 -46 l 1076 -37 l 1069 -46 l 1076 -55 l 1086 -46 m 401 -37 l 391 -27 l 382 -37 l 401 -37 m 870 -37 l 861 -27 l 852 -37 l 870 -37 m 899 -37 l 889 -27 l 880 -37 l 889 -46 l 899 -37 m 1086 -27 l 1076 -17 l 1069 -27 l 1076 -37 l 1086 -27 m 355 -17 l 345 -8 l 336 -17 l 345 -27 l 355 -17 m 899 -17 l 889 -8 l 880 -17 l 889 -27 l 899 -17 m 1133 -17 l 1123 -8 l 1114 -17 l 1123 -27 l 1133 -17 m 289 -8 l 279 1 l 270 -8 l 279 -17 l 289 -8 m 336 -8 l 270 29 l 260 20 l 336 -8 m 815 1 l 767 20 l 767 -8 l 795 -17 l 815 1 m 842 1 l 833 10 l 824 1 l 833 -8 l 842 1 m 861 10 l 852 20 l 842 10 l 852 1 l 861 10 m 233 20 l 223 29 l 214 20 l 223 10 l 233 20 m 721 29 l 702 38 l 693 29 l 711 20 l 721 29 m 824 29 l 815 38 l 805 29 l 815 20 l 824 29 m 214 38 l 205 47 l 195 38 l 205 29 l 214 38 m 738 38 l 721 47 l 711 38 l 738 38 m 795 38 l 786 47 l 776 38 l 786 29 l 795 38 m 748 47 l 738 56 l 729 47 l 748 47 m 195 56 l 185 66 l 176 56 l 185 47 l 195 56 m 233 56 l 195 75 l 185 66 l 233 56 m 795 56 l 786 66 l 776 56 l 786 47 l 795 56 m 1076 56 l 1069 66 l 1059 56 l 1069 47 l 1076 56 m 176 75 l 166 85 l 157 75 l 166 66 l 176 75 m 1095 75 l 1086 85 l 1076 75 l 1086 66 l 1095 75 m 185 85 l 176 94 l 166 85 l 185 85 m 1050 85 l 1040 94 l 1031 85 l 1040 75 l 1050 85 m 1105 85 l 1095 94 l 1086 85 l 1105 85 m 157 94 l 147 104 l 139 94 l 147 85 l 157 94 m 260 104 l 252 113 l 243 104 l 252 94 l 260 104 m 139 113 l 130 123 l 120 113 l 130 104 l 139 113 m 382 113 l 374 123 l 364 113 l 374 104 l 382 113 m 494 113 l 448 132 l 439 123 l 486 104 l 494 113 m 1050 113 l 1040 123 l 1031 113 l 1040 104 l 1050 113 m 570 123 l 504 132 l 494 123 l 561 113 l 570 123 m 139 132 l 130 142 l 120 132 l 130 123 l 139 132 m 1050 132 l 1040 142 l 1031 132 l 1040 123 l 1050 132 m 439 142 l 429 151 l 420 142 l 429 132 l 439 142 m 992 142 l 983 151 l 974 142 l 983 132 l 992 142 m 1059 142 l 1050 151 l 1040 142 l 1059 142 m 101 159 l 101 169 l 82 197 l 73 169 l 91 142 l 101 159 m 420 159 l 345 207 l 336 197 l 410 151 l 420 159 m 458 159 l 448 169 l 439 159 l 448 151 l 458 159 m 974 159 l 964 169 l 955 159 l 964 151 l 974 159 m 130 169 l 120 178 l 110 169 l 120 159 l 130 169 m 355 169 l 345 178 l 336 169 l 345 159 l 355 169 m 504 178 l 458 188 l 448 178 l 494 169 l 504 178 m 946 178 l 937 188 l 927 178 l 937 169 l 946 178 m 120 188 l 73 282 l 64 254 l 110 169 l 120 188 m 542 188 l 513 197 l 504 188 l 542 188 m 599 197 l 580 207 l 570 197 l 589 188 l 599 197 m 317 207 l 308 216 l 298 207 l 308 197 l 317 207 m 552 207 l 523 226 l 513 197 l 542 197 l 552 207 m 336 216 l 327 226 l 317 216 l 327 207 l 336 216 m 974 216 l 964 226 l 955 216 l 964 207 l 974 216 m 345 226 l 336 236 l 327 226 l 345 226 m 552 226 l 504 254 l 504 226 l 542 216 l 552 226 m 983 226 l 974 236 l 964 226 l 983 226 m 964 236 l 955 245 l 946 236 l 955 226 l 964 236 m 992 236 l 1002 264 l 992 272 l 974 236 l 992 236 m 279 254 l 270 264 l 260 254 l 270 245 l 279 254 m 317 254 l 308 264 l 298 254 l 308 245 l 317 254 m 494 264 l 467 310 l 494 272 l 504 300 l 486 329 l 494 348 l 486 357 l 494 394 l 458 422 l 467 394 l 504 384 l 513 394 l 504 413 l 513 422 l 486 451 l 494 470 l 523 432 l 542 470 l 504 517 l 533 489 l 552 517 l 542 535 l 542 517 l 561 517 l 570 498 l 580 507 l 693 403 l 693 384 l 738 367 l 824 573 q 800 630 814 602 q 767 681 786 657 q 730 728 748 705 q 683 770 711 751 q 622 817 655 798 q 556 849 589 836 q 486 872 523 863 q 410 881 448 881 l 374 836 l 382 826 q 336 737 355 779 q 303 648 317 695 q 279 550 289 602 q 260 451 270 498 l 270 422 l 260 413 l 289 329 l 298 338 q 312 300 308 319 q 331 268 317 282 q 360 240 345 254 q 391 207 374 226 l 486 188 l 494 197 l 504 188 l 513 216 l 494 236 l 504 245 l 494 264 m 1012 272 l 1012 282 l 1002 291 l 992 272 l 1002 264 l 1012 272 m 289 282 l 279 291 l 270 282 l 279 272 l 289 282 m 983 300 l 974 310 l 964 300 l 974 291 l 983 300 m 1021 300 l 1012 310 l 1002 300 l 1012 291 l 1021 300 m 523 319 l 513 329 l 504 319 l 513 310 l 523 319 m 1002 319 l 992 329 l 983 319 l 992 310 l 1002 319 m 54 329 l 54 367 l 44 376 l 35 329 l 44 319 l 54 329 m 711 338 l 702 348 l 693 338 l 702 329 l 711 338 m 1012 338 l 1012 348 l 1002 357 l 992 338 l 1002 329 l 1012 338 m 533 348 l 523 357 l 513 348 l 523 338 l 533 348 m 776 357 q 805 395 795 376 q 824 432 814 413 q 837 470 833 451 q 842 517 842 489 l 824 554 l 738 367 l 767 348 l 776 357 m 1021 357 l 1021 376 l 1012 384 l 1002 357 l 1012 348 l 1021 357 m 205 367 l 205 376 l 195 384 l 185 367 l 195 357 l 205 367 m 260 367 l 252 376 l 243 367 l 252 357 l 260 367 m 636 367 l 626 376 l 617 367 l 626 357 l 636 367 m 513 376 l 504 384 l 494 376 l 504 367 l 513 376 m 552 384 l 542 394 l 533 384 l 542 376 l 552 384 m 1031 384 l 1031 403 l 1021 413 l 1012 384 l 1021 376 l 1031 384 m 260 394 l 260 403 l 252 413 l 243 394 l 252 384 l 260 394 m 533 394 l 533 403 l 523 413 l 513 394 l 523 384 l 533 394 m 607 394 l 599 403 l 589 394 l 599 384 l 607 394 m 552 432 l 542 441 l 533 432 l 542 422 l 552 432 m 636 432 l 626 441 l 617 432 l 626 422 l 636 432 m 243 451 l 243 498 l 233 507 l 223 451 l 233 441 l 243 451 m 552 451 l 552 460 l 542 470 l 533 451 l 542 441 l 552 451 m 617 451 l 607 460 l 599 451 l 607 441 l 617 451 m 1012 451 l 1012 460 l 1002 470 l 992 451 l 1002 441 l 1012 451 m 1069 451 l 1069 507 l 1059 517 l 1050 451 l 1059 441 l 1069 451 m 64 460 l 64 489 l 54 498 l 44 460 l 54 451 l 64 460 m 599 470 l 589 479 l 580 470 l 589 460 l 599 470 m 570 479 l 561 489 l 552 479 l 561 470 l 570 479 m 1040 479 l 1031 489 l 1021 479 l 1031 470 l 1040 479 m 580 489 l 570 498 l 561 489 l 580 489 m 91 507 l 82 517 l 73 507 l 82 498 l 91 507 m 260 526 l 260 554 l 252 564 l 243 526 l 252 517 l 260 526 m 842 554 l 842 564 l 833 573 l 824 554 l 833 545 l 842 554 m 1050 554 l 1040 564 l 1031 554 l 1040 545 l 1050 554 m 270 564 l 270 592 l 327 741 l 317 751 q 288 709 298 732 q 269 662 279 686 q 256 615 260 638 q 252 564 252 592 l 260 554 l 270 564 m 852 583 l 852 602 l 842 611 l 833 583 l 842 573 l 852 583 m 1050 583 l 1040 592 l 1031 583 l 1040 573 l 1050 583 m 842 619 l 842 629 l 833 638 l 824 611 l 833 602 l 842 619 m 1050 629 l 1050 638 l 1040 648 l 1031 629 l 1040 619 l 1050 629 m 815 638 l 805 648 l 795 638 l 805 629 l 815 638 m 805 657 l 805 667 q 762 723 786 695 q 715 774 738 751 q 664 817 692 798 q 607 854 635 836 l 561 863 l 552 854 q 622 817 589 836 q 688 765 654 798 q 744 699 721 732 q 795 638 767 667 l 805 657 m 824 676 l 815 686 l 805 676 l 815 667 l 824 676 m 1050 676 l 1040 686 l 1031 676 l 1040 667 l 1050 676 m 1031 695 l 1021 705 l 1012 695 l 1021 686 l 1031 695 m 815 705 l 815 714 l 805 724 l 795 705 l 805 695 l 815 705 m 1021 714 l 1012 724 l 1002 714 l 1012 705 l 1021 714 m 120 724 l 110 732 l 101 724 l 110 714 l 120 724 m 776 724 l 767 732 l 757 724 l 767 714 l 776 724 m 964 724 l 955 732 l 946 724 l 955 714 l 964 724 m 130 741 l 130 751 l 120 760 l 110 741 l 120 732 l 130 741 m 795 741 l 786 751 l 776 741 l 786 732 l 795 741 m 336 760 l 327 770 l 317 760 l 327 751 l 336 760 m 776 760 l 767 770 l 757 760 l 767 751 l 776 760 m 955 760 l 946 770 l 937 760 l 946 751 l 955 760 m 1021 760 l 1012 770 l 1002 760 l 1012 751 l 1021 760 m 139 770 l 130 779 l 120 770 l 130 760 l 139 770 m 738 770 l 729 779 l 721 770 l 729 760 l 738 770 m 983 770 l 974 779 l 964 770 l 974 760 l 983 770 m 1012 779 l 1012 789 l 1002 798 l 992 779 l 1002 770 l 1012 779 m 757 789 l 748 798 l 738 789 l 748 779 l 757 789 m 992 798 l 983 808 l 974 798 l 983 789 l 992 798 m 355 808 l 345 817 l 336 808 l 345 798 l 355 808 m 721 808 l 711 817 l 702 808 l 711 798 l 721 808 m 1002 808 l 1002 817 l 992 826 l 983 808 l 1002 808 m 974 817 l 974 826 l 955 854 l 946 826 l 964 808 l 974 817 m 683 826 l 674 836 l 664 826 l 674 817 l 683 826 m 185 836 l 176 845 l 166 836 l 176 826 l 185 836 m 355 836 l 345 845 l 336 836 l 345 826 l 355 836 m 664 836 l 655 845 l 645 836 l 655 826 l 664 836 m 983 836 l 974 845 l 964 836 l 974 826 l 983 836 m 683 845 l 645 873 l 636 863 l 683 845 m 974 854 l 964 863 l 955 854 l 964 845 l 974 854 m 552 863 l 533 873 l 523 863 l 542 854 l 552 863 m 214 873 l 205 881 l 195 873 l 205 863 l 214 873 m 523 873 l 504 881 l 494 873 l 513 863 l 523 873 m 570 873 l 552 881 l 542 873 l 570 873 m 617 873 l 589 881 l 580 873 l 636 845 l 645 854 l 617 873 m 908 873 l 899 881 l 889 873 l 899 863 l 908 873 m 937 873 l 927 881 l 918 873 l 927 863 l 937 873 m 223 891 l 214 902 l 205 891 l 214 881 l 223 891 m 504 891 l 439 902 l 429 891 l 494 881 l 504 891 m 570 891 l 542 902 l 533 891 l 561 881 l 570 891 m 617 891 l 599 902 l 589 891 l 607 881 l 617 891 m 233 902 l 233 911 l 223 921 l 214 902 l 233 902 m 420 902 l 410 911 l 401 902 l 410 891 l 420 902 m 589 902 l 580 911 l 570 902 l 580 891 l 589 902 m 937 902 l 927 911 l 918 902 l 927 891 l 937 902 m 599 911 l 589 921 l 580 911 l 599 911 m 908 911 l 899 921 l 889 911 l 899 902 l 908 911 m 243 921 l 233 930 l 223 921 l 233 911 l 243 921 m 918 921 l 908 930 l 899 921 l 918 921 m 889 930 l 880 939 l 870 930 l 880 921 l 889 930 m 252 939 l 243 949 l 233 939 l 243 930 l 252 939 m 870 939 l 861 949 l 852 939 l 861 930 l 870 939 m 260 949 l 252 959 l 243 949 l 260 949 m 270 959 l 270 967 l 260 976 l 252 959 l 270 959 m 815 959 l 805 967 l 795 959 l 805 949 l 815 959 m 852 959 l 842 967 l 833 959 l 842 949 l 852 959 m 279 976 l 270 986 l 260 976 l 270 967 l 279 976 m 833 976 l 824 986 l 815 976 l 824 967 l 833 976 m 870 976 l 861 986 l 852 976 l 861 967 l 870 976 m 289 986 l 279 995 l 270 986 l 289 986 m 795 995 l 786 1004 l 776 995 l 786 986 l 795 995 m 298 1004 l 289 1014 l 279 1004 l 289 995 l 298 1004 m 327 1014 l 317 1024 l 308 1014 l 327 1014 m 757 1014 l 748 1024 l 738 1014 l 748 1004 l 757 1014 m 767 1024 l 757 1033 l 748 1024 l 767 1024 m 748 1033 l 702 1052 l 693 1043 l 738 1024 l 748 1033 m 693 1052 l 683 1062 l 674 1052 l 683 1043 l 693 1052 m 355 1062 l 345 1071 l 336 1062 l 345 1052 l 355 1062 m 711 1062 l 693 1071 l 683 1062 l 711 1062 m 374 1071 l 364 1079 l 355 1071 l 364 1062 l 374 1071 m 355 1079 l 345 1088 l 336 1079 l 345 1071 l 355 1079 m 655 1079 l 580 1098 l 570 1088 l 645 1071 l 655 1079 m 467 1107 l 429 1116 l 420 1107 l 458 1098 l 467 1107 m 580 1116 l 486 1126 l 476 1116 l 570 1107 l 580 1116 m 467 1126 l 420 1135 l 410 1126 l 458 1116 l 467 1126 "},"M":{"x_min":27,"x_max":1443,"ha":1476,"o":"m 294 -174 l 294 -141 l 283 -130 l 273 -152 l 262 -89 l 251 -130 l 240 -78 l 230 -89 l 219 -35 l 197 -35 l 188 -3 l 177 -68 q 123 156 155 50 q 92 392 92 263 l 81 381 l 59 593 l 48 488 l 48 584 l 59 690 l 37 927 l 27 905 l 27 916 l 133 1064 l 122 1075 l 197 1161 l 251 1161 l 262 1150 l 369 1161 q 566 995 476 1097 q 732 787 657 894 l 883 1001 l 903 1001 l 946 1043 l 1084 1107 l 1149 1097 l 1170 1107 l 1192 1097 l 1203 1107 q 1325 990 1277 1064 q 1415 841 1373 915 q 1443 706 1443 776 q 1443 562 1443 637 q 1349 226 1401 392 q 1203 -99 1297 61 l 1203 -89 l 1288 81 l 1277 92 q 1202 -19 1234 39 q 1139 -130 1170 -78 l 1139 -120 l 1192 -35 l 1159 -24 l 1106 -109 l 1095 -99 l 1084 -120 l 1074 -109 l 1063 -130 l 1053 -120 l 1042 -130 l 1063 -78 l 1053 -68 l 1021 -120 l 1021 -109 l 1042 -78 l 1021 -68 l 999 -89 l 1010 -68 l 988 -46 l 977 -57 l 999 -3 l 977 7 l 968 -3 l 957 7 l 924 -35 q 1080 301 1021 125 q 1139 670 1139 477 l 1106 787 l 1074 787 l 1053 755 q 935 594 988 679 q 850 413 883 508 l 829 413 l 829 392 l 807 434 l 787 381 l 764 381 l 764 359 l 743 403 l 732 381 l 721 403 l 711 381 l 701 392 l 690 370 l 679 381 l 668 359 l 657 392 l 646 370 l 646 403 l 625 403 l 625 434 l 604 434 l 582 499 l 572 477 l 550 477 l 550 455 q 482 621 530 541 q 380 776 434 701 l 369 744 q 452 381 423 573 q 482 -3 481 188 l 482 61 q 448 434 482 252 q 359 787 415 616 l 348 679 q 417 348 401 519 q 454 7 434 177 l 444 -46 l 454 -130 l 454 -89 l 434 -89 l 434 -68 l 401 -68 l 391 -174 l 391 -120 l 359 -120 l 316 -163 l 305 -89 l 294 -174 m 338 -141 l 327 -130 l 316 -141 l 327 -152 l 338 -141 m 1084 -89 l 1074 -78 l 1063 -89 l 1074 -99 l 1084 -89 m 1074 -68 l 1063 -57 l 1053 -68 l 1063 -78 l 1074 -68 m 348 -57 l 338 -46 l 327 -57 l 338 -68 l 348 -57 m 1021 -57 l 1010 -46 l 999 -57 l 1010 -68 l 1021 -57 m 1010 -35 l 999 -24 l 988 -35 l 999 -46 l 1010 -35 m 1021 -14 l 1010 -3 l 999 -14 l 1010 -24 l 1021 -14 m 1192 -14 l 1181 -3 l 1170 -14 l 1181 -24 l 1192 -14 m 188 7 l 177 18 l 166 7 l 177 -3 l 188 7 m 977 18 l 968 29 l 957 7 l 968 -3 l 977 18 m 1010 18 l 999 29 l 988 18 l 999 7 l 1010 18 m 1203 18 l 1192 29 l 1181 18 l 1192 7 l 1203 18 m 988 29 l 977 39 l 968 29 l 988 29 m 188 39 l 177 50 l 166 39 l 177 29 l 188 39 m 1224 39 l 1213 50 l 1203 39 l 1213 29 l 1224 39 m 999 50 l 988 61 l 977 50 l 988 39 l 999 50 m 166 61 l 155 70 l 144 61 l 155 50 l 166 61 m 1234 61 l 1234 70 l 1224 81 l 1213 61 l 1224 50 l 1234 61 m 1244 81 l 1234 92 l 1224 81 l 1234 70 l 1244 81 m 155 92 l 144 103 l 133 92 l 144 81 l 155 92 m 1031 103 l 1021 114 l 1010 103 l 1021 92 l 1031 103 m 1288 103 l 1288 125 l 1277 135 l 1255 92 l 1266 81 l 1288 103 m 1042 135 l 1031 146 l 1021 135 l 1031 125 l 1042 135 m 1299 135 l 1299 146 l 1288 156 l 1277 135 l 1288 125 l 1299 135 m 155 146 l 144 156 l 133 146 l 144 135 l 155 146 m 1277 156 l 1266 167 l 1255 156 l 1266 146 l 1277 156 m 1319 156 l 1309 167 l 1299 146 l 1309 135 l 1319 156 m 1288 177 l 1277 188 l 1266 177 l 1277 167 l 1288 177 m 1330 177 l 1319 188 l 1309 167 l 1330 177 m 1319 199 l 1309 210 l 1299 188 l 1309 177 l 1319 199 m 1074 221 l 1063 232 l 1053 221 l 1063 210 l 1074 221 m 1330 221 l 1319 232 l 1309 210 l 1330 221 m 1341 232 l 1341 241 l 1330 252 l 1319 232 l 1341 232 m 1352 263 l 1341 273 l 1330 263 l 1341 252 l 1352 263 m 1330 273 l 1319 284 l 1309 273 l 1319 263 l 1330 273 m 1363 284 l 1363 295 l 1415 499 l 1406 508 l 1341 284 l 1352 273 l 1363 284 m 1117 317 l 1106 326 l 1095 317 l 1106 306 l 1117 317 m 122 359 l 112 370 l 102 359 l 112 348 l 122 359 m 1139 381 l 1128 392 l 1117 381 l 1128 370 l 1139 381 m 690 392 l 679 403 l 668 392 l 679 381 l 690 392 m 711 403 l 701 413 l 690 403 l 701 392 l 711 403 m 657 413 l 646 424 l 635 413 l 646 403 l 657 413 m 787 413 l 807 444 l 776 455 l 776 434 l 754 434 l 754 392 l 787 392 l 787 413 m 1149 413 l 1149 424 l 1139 434 l 1128 413 l 1139 403 l 1149 413 m 721 424 l 711 434 l 701 424 l 711 413 l 721 424 m 646 444 l 635 455 l 625 444 l 635 434 l 646 444 m 850 444 l 1010 723 l 988 723 l 883 541 l 861 541 l 818 424 l 850 424 l 850 444 m 92 455 l 92 573 l 81 584 l 70 455 l 81 444 l 92 455 m 1373 466 l 1363 477 l 1352 466 l 1363 455 l 1373 466 m 572 499 l 572 508 l 444 723 l 434 701 l 539 477 l 572 477 l 572 499 m 829 499 l 818 508 l 807 499 l 818 488 l 829 499 m 1170 508 l 1159 519 l 1149 508 l 1159 499 l 1170 508 m 839 519 l 829 530 l 818 519 l 829 508 l 839 519 m 1181 530 l 1181 551 l 1170 562 l 1159 530 l 1170 519 l 1181 530 m 112 551 l 112 562 l 102 573 l 92 551 l 102 541 l 112 551 m 1159 562 l 1159 701 l 1106 797 l 1095 787 q 1134 663 1134 733 q 1149 530 1134 593 l 1159 562 m 872 573 l 861 584 l 850 573 l 861 562 l 872 573 m 1181 584 l 1181 690 l 1170 701 l 1159 584 l 1170 573 l 1181 584 m 883 593 l 872 604 l 861 593 l 872 584 l 883 593 m 892 615 l 883 626 l 872 615 l 883 604 l 892 615 m 903 637 l 892 648 l 883 637 l 892 626 l 903 637 m 1203 659 l 1192 670 l 1181 659 l 1192 648 l 1203 659 m 81 679 l 81 701 l 70 712 l 59 679 l 70 670 l 81 679 m 498 701 l 487 712 l 475 701 l 487 690 l 498 701 m 487 723 l 475 733 l 464 723 l 475 712 l 487 723 m 1021 723 l 1010 733 l 999 723 l 1010 712 l 1021 723 m 1170 723 l 1159 733 l 1149 723 l 1159 712 l 1170 723 m 434 733 l 423 744 l 412 733 l 423 723 l 434 733 m 1406 733 l 1395 744 l 1384 733 l 1395 723 l 1406 733 m 1010 744 l 1010 755 l 999 765 l 988 744 l 999 733 l 1010 744 m 1021 765 l 1010 776 l 999 765 l 1010 755 l 1021 765 m 434 776 l 423 787 l 412 776 l 423 765 l 434 776 m 70 787 l 70 936 l 54 947 l 54 787 l 59 776 l 70 787 m 348 787 l 338 797 l 327 765 l 338 755 l 348 787 m 1063 787 l 1084 808 l 1063 819 l 1010 776 l 1063 787 m 412 797 l 401 808 l 391 797 l 401 787 l 412 797 m 338 808 l 338 819 l 327 830 l 316 808 l 327 797 l 338 808 m 391 819 l 380 830 l 369 819 l 380 808 l 391 819 m 797 830 l 787 841 l 776 830 l 787 819 l 797 830 m 625 861 l 615 872 l 604 861 l 615 850 l 625 861 m 316 872 l 305 883 l 294 872 l 305 861 l 316 872 m 604 883 l 593 894 l 582 883 l 593 872 l 604 883 m 818 883 l 807 894 l 797 883 l 807 872 l 818 883 m 92 905 l 92 947 l 81 958 l 70 905 l 81 894 l 92 905 m 582 905 l 572 916 l 561 905 l 572 894 l 582 905 m 850 905 l 839 916 l 829 905 l 839 894 l 850 905 m 861 927 l 850 936 l 839 927 l 850 916 l 861 927 m 1288 927 l 1277 936 l 1266 927 l 1277 916 l 1288 927 m 112 936 l 102 947 l 92 936 l 102 927 l 112 936 m 872 947 l 883 958 l 861 969 l 839 947 l 861 936 l 872 947 m 1255 947 l 1244 958 l 1234 947 l 1244 936 l 1255 947 m 112 958 l 112 969 l 102 980 l 92 958 l 102 947 l 112 958 m 892 969 l 883 980 l 872 969 l 883 958 l 892 969 m 914 980 l 914 1001 l 883 1001 l 883 980 l 914 980 m 112 990 l 102 1001 l 92 990 l 102 980 l 112 990 m 177 990 l 166 1001 l 155 990 l 166 980 l 177 990 m 1266 990 l 1255 1001 l 1244 990 l 1255 980 l 1266 990 m 92 1001 l 81 1012 l 70 1001 l 81 990 l 92 1001 m 924 1001 l 914 1012 l 903 1001 l 914 990 l 924 1001 m 946 1012 l 935 1022 l 924 1012 l 935 1001 l 946 1012 m 977 1012 l 968 1022 l 957 1012 l 968 1001 l 977 1012 m 957 1022 l 946 1032 l 935 1022 l 957 1022 m 1021 1022 l 999 1032 l 988 1022 l 1010 1012 l 1021 1022 m 1170 1022 l 1159 1032 l 1149 1022 l 1159 1012 l 1170 1022 m 133 1032 l 122 1043 l 112 1032 l 122 1022 l 133 1032 m 977 1032 l 968 1043 l 957 1032 l 968 1022 l 977 1032 m 1031 1032 l 1021 1043 l 1010 1032 l 1031 1032 m 1095 1032 l 1084 1043 l 1074 1032 l 1084 1022 l 1095 1032 m 1213 1032 l 1181 1043 l 1170 1032 l 1203 1022 l 1213 1032 m 166 1043 l 155 1054 l 144 1043 l 155 1032 l 166 1043 m 999 1043 l 988 1054 l 977 1043 l 988 1032 l 999 1043 m 1053 1043 l 1042 1054 l 1031 1043 l 1042 1032 l 1053 1043 m 1117 1043 l 1095 1054 l 1084 1043 l 1117 1043 m 1170 1043 l 1159 1054 l 1149 1043 l 1159 1032 l 1170 1043 m 412 1054 l 401 1064 l 391 1054 l 401 1043 l 412 1054 m 1074 1054 l 1053 1064 l 1042 1054 l 1074 1054 m 1192 1054 l 1170 1064 l 1159 1054 l 1192 1054 m 1234 1054 l 1224 1064 l 1213 1054 l 1224 1043 l 1234 1054 m 1213 1064 l 1203 1075 l 1192 1064 l 1203 1054 l 1213 1064 m 155 1075 l 197 1117 l 177 1129 l 133 1075 l 144 1064 l 155 1075 m 1139 1075 l 1128 1086 l 1117 1075 l 1128 1064 l 1139 1075 m 1084 1086 l 1042 1097 l 977 1064 l 1010 1054 l 1084 1086 m 1181 1086 l 1159 1097 l 1149 1086 l 1170 1075 l 1181 1086 m 208 1097 l 197 1107 l 188 1097 l 197 1086 l 208 1097 m 251 1097 l 262 1107 l 240 1117 l 219 1097 l 240 1086 l 251 1097 m 338 1097 l 327 1107 l 316 1097 l 327 1086 l 338 1097 m 369 1097 l 359 1107 l 348 1097 l 359 1086 l 369 1097 m 219 1107 l 208 1117 l 197 1107 l 219 1107 m 294 1107 l 283 1117 l 273 1107 l 283 1097 l 294 1107 m 230 1117 l 219 1129 l 208 1117 l 230 1117 m 273 1117 l 262 1129 l 251 1117 l 262 1107 l 273 1117 m 305 1118 l 294 1129 l 283 1118 l 305 1118 m 338 1117 l 327 1129 l 316 1117 l 327 1107 l 338 1117 m 380 1117 l 369 1129 l 359 1117 l 369 1107 l 380 1117 m 283 1129 l 283 1139 l 273 1150 l 262 1129 l 283 1129 m 359 1129 l 348 1139 l 338 1129 l 348 1117 l 359 1129 m 230 1139 l 240 1150 l 197 1161 l 177 1139 l 219 1129 l 230 1139 m 338 1150 l 316 1161 l 305 1150 l 327 1139 l 338 1150 "},"C":{"x_min":34.109375,"x_max":1008.203125,"ha":1035,"o":"m 493 -159 l 272 -48 l 173 110 l 124 135 q 45 338 63 222 q 39 577 26 455 q 112 787 63 689 q 210 971 161 885 l 260 1033 l 419 1094 l 444 1082 l 554 1119 l 469 1131 l 590 1143 l 640 1131 l 653 1143 l 628 1156 l 640 1156 l 838 1070 l 850 1082 l 799 1119 l 812 1119 q 916 1045 874 1094 q 984 934 959 996 l 972 921 l 996 849 l 984 849 l 972 885 l 935 897 l 923 885 l 996 762 l 996 787 l 984 800 l 972 750 l 960 787 l 935 750 l 923 750 l 898 800 l 886 774 l 898 762 l 874 762 l 874 787 l 850 787 l 850 812 l 812 812 l 812 787 l 862 701 l 850 664 l 825 713 l 812 701 l 812 738 l 775 738 l 775 701 l 787 664 l 787 689 l 750 725 l 762 713 l 775 738 l 738 774 l 726 738 l 689 800 l 578 861 l 529 836 l 542 824 q 425 615 469 725 q 394 368 382 504 l 444 271 l 578 222 l 714 307 l 726 295 l 775 368 l 762 356 l 787 320 l 799 332 l 825 320 l 850 332 l 862 320 l 886 356 l 862 307 l 886 271 l 935 332 l 948 320 l 898 246 l 948 234 l 972 271 l 948 222 l 960 210 l 996 259 l 911 122 l 935 110 l 972 122 l 1008 196 l 996 184 l 1008 171 l 960 86 l 972 74 l 984 86 l 996 74 l 1008 86 q 959 18 996 37 q 898 -36 923 0 l 762 -110 l 750 -134 l 493 -159 m 517 -147 l 493 -134 l 481 -147 l 517 -147 m 481 -134 l 456 -122 l 444 -134 l 469 -147 l 481 -134 m 665 -129 l 517 -129 l 505 -134 l 665 -129 m 444 -122 l 272 -12 l 260 -36 l 432 -134 l 444 -122 m 481 -110 l 444 -97 l 432 -110 l 481 -110 m 603 -97 l 529 -85 l 517 -97 l 590 -110 l 603 -97 m 738 -85 l 726 -73 l 714 -85 l 726 -97 l 738 -85 m 505 -73 l 493 -61 l 481 -73 l 493 -85 l 505 -73 m 554 -73 l 542 -61 l 529 -73 l 542 -85 l 554 -73 m 469 -61 l 456 -48 l 444 -61 l 456 -73 l 469 -61 m 799 -48 l 787 -36 l 775 -48 l 787 -61 l 799 -48 m 469 -36 l 444 -24 l 432 -36 l 456 -48 l 469 -36 m 825 -36 l 812 -24 l 799 -36 l 812 -48 l 825 -36 m 432 -24 l 419 -12 l 406 -24 l 419 -36 l 432 -24 m 750 -24 l 738 -12 l 726 -24 l 738 -36 l 750 -24 m 874 -24 l 862 -12 l 850 -24 l 862 -36 l 874 -24 m 296 -12 l 284 0 l 272 -12 l 284 -24 l 296 -12 m 787 -12 l 799 0 l 775 13 l 750 -12 l 775 -24 l 787 -12 m 838 -12 l 812 0 l 799 -12 l 825 -24 l 838 -12 m 333 0 l 320 13 l 308 0 l 320 -12 l 333 0 m 850 0 l 838 13 l 825 0 l 850 0 m 272 13 l 260 25 l 248 13 l 260 0 l 272 13 m 898 13 l 886 25 l 874 13 l 886 0 l 898 13 m 235 25 l 221 37 l 210 25 l 221 13 l 235 25 m 850 25 l 838 37 l 825 25 l 838 13 l 850 25 m 948 13 l 948 37 l 935 49 l 911 25 l 948 13 m 308 37 l 296 49 l 284 37 l 296 25 l 308 37 m 911 37 l 874 49 l 862 37 l 898 25 l 911 37 m 862 49 l 850 61 l 838 49 l 850 37 l 862 49 m 960 49 l 972 74 l 960 86 l 935 49 l 948 37 l 960 49 m 923 61 l 911 74 l 898 61 l 911 49 l 923 61 m 874 74 l 862 86 l 850 74 l 862 61 l 874 74 m 935 74 l 923 86 l 911 74 l 935 74 m 935 98 l 923 110 l 911 98 l 923 86 l 935 98 m 197 110 l 197 122 l 149 210 l 136 171 l 185 98 l 197 110 m 960 110 l 948 122 l 935 110 l 948 98 l 960 110 m 149 135 l 149 147 q 75 381 75 246 q 75 652 75 516 l 87 689 l 75 701 q 39 523 39 615 q 39 332 39 431 l 136 122 l 149 135 m 566 196 l 529 210 l 517 196 l 554 184 l 566 196 m 149 222 l 149 234 l 136 246 l 124 222 l 136 210 l 149 222 m 628 222 l 590 234 l 578 222 l 615 210 l 628 222 m 677 222 l 653 234 l 640 222 l 665 210 l 677 222 m 493 234 l 469 246 l 456 234 l 481 222 l 493 234 m 124 246 l 112 259 l 99 246 l 112 234 l 124 246 m 456 246 l 444 259 l 432 246 l 444 234 l 456 246 m 714 246 l 701 259 l 689 246 l 701 234 l 714 246 m 775 246 l 762 259 l 750 246 l 762 234 l 775 246 m 726 259 l 750 295 l 738 307 l 701 259 l 726 259 m 787 259 l 775 271 l 762 259 l 787 259 m 762 271 l 750 283 l 738 271 l 750 259 l 762 271 m 112 295 l 112 307 l 99 320 l 87 295 l 99 283 l 112 295 m 762 307 l 775 332 l 762 344 l 738 307 l 750 295 l 762 307 m 850 320 l 838 332 l 825 320 l 838 307 l 850 320 m 382 504 l 382 516 l 369 529 l 357 504 l 369 492 l 382 504 m 124 516 l 124 603 l 112 615 l 99 516 l 112 504 l 124 516 m 382 652 l 382 664 l 394 713 l 382 725 l 357 652 l 369 640 l 382 652 m 432 664 l 419 676 l 406 664 l 419 652 l 432 664 m 136 689 l 124 701 l 112 689 l 124 676 l 136 689 m 444 689 l 432 701 l 419 689 l 432 676 l 444 689 m 456 713 l 444 725 l 432 713 l 444 701 l 456 713 m 112 725 l 112 738 l 99 750 l 87 725 l 99 713 l 112 725 m 419 738 l 419 750 l 406 762 l 394 738 l 406 725 l 419 738 m 469 738 l 456 750 l 444 738 l 456 725 l 469 738 m 838 738 l 838 750 l 799 774 l 787 762 l 850 689 l 862 738 l 838 738 m 197 762 l 197 774 l 185 787 l 173 762 l 185 750 l 197 762 m 775 762 l 762 774 l 750 762 l 762 750 l 775 762 m 136 774 l 124 787 l 112 774 l 124 762 l 136 774 m 432 774 l 419 787 l 406 774 l 419 762 l 432 774 m 444 787 l 432 800 l 419 787 l 444 787 m 149 800 l 136 812 l 124 800 l 136 787 l 149 800 m 787 800 l 775 812 l 762 800 l 775 787 l 787 800 m 935 800 l 923 812 l 911 800 l 923 787 l 935 800 m 469 800 l 469 824 l 456 836 l 432 812 l 469 800 m 517 812 l 505 824 l 493 812 l 505 800 l 517 812 m 161 824 l 149 836 l 136 824 l 149 812 l 161 824 m 221 824 l 210 836 l 197 824 l 210 812 l 221 824 m 935 824 l 923 836 l 911 824 l 923 812 l 935 824 m 517 836 l 505 849 l 493 836 l 505 824 l 517 836 m 665 836 l 640 849 l 628 836 l 653 824 l 665 836 m 714 836 l 701 849 l 689 836 l 701 824 l 714 836 m 173 849 l 161 861 l 149 849 l 161 836 l 173 849 m 911 849 l 898 861 l 886 849 l 898 836 l 911 849 m 248 861 l 248 873 l 235 885 l 221 861 l 235 849 l 248 861 m 628 861 l 615 873 l 603 861 l 615 849 l 628 861 m 185 873 l 173 885 l 161 873 l 173 861 l 185 873 m 505 873 l 469 885 l 456 873 l 493 861 l 505 873 m 689 873 l 677 885 l 665 873 l 677 861 l 689 873 m 260 885 l 272 897 l 235 909 l 235 885 l 248 873 l 260 885 m 566 885 l 554 897 l 542 885 l 554 873 l 566 885 m 197 897 l 197 909 l 185 921 l 173 897 l 185 885 l 197 897 m 603 897 l 590 909 l 578 897 l 590 885 l 603 897 m 210 921 l 210 934 l 197 946 l 185 921 l 197 909 l 210 921 m 272 921 l 260 934 l 248 921 l 260 909 l 272 921 m 284 934 l 284 946 l 272 959 l 260 934 l 284 934 m 898 934 l 886 946 l 874 934 l 886 921 l 898 934 m 221 946 l 210 959 l 197 946 l 210 934 l 221 946 m 935 946 l 923 959 l 911 946 l 923 934 l 935 946 m 948 959 l 935 971 l 923 959 l 948 959 m 235 971 l 221 983 l 210 971 l 221 959 l 235 971 m 260 983 l 248 996 l 235 983 l 248 971 l 260 983 m 923 983 l 911 996 l 898 983 l 911 971 l 923 983 m 272 1008 l 260 1021 l 248 1008 l 260 996 l 272 1008 m 911 1008 l 911 1021 l 874 1033 l 862 996 l 898 983 l 911 1008 m 333 1021 l 320 1033 l 308 1021 l 333 1021 m 345 1033 l 333 1046 l 320 1033 l 345 1033 m 850 1033 l 838 1046 l 825 1033 l 838 1021 l 850 1033 m 320 1046 l 308 1058 l 296 1046 l 308 1033 l 320 1046 m 862 1046 l 850 1058 l 838 1046 l 862 1046 m 357 1058 l 333 1070 l 320 1058 l 345 1046 l 357 1058 m 874 1058 l 862 1070 l 850 1058 l 874 1058 m 382 1070 l 369 1082 l 357 1070 l 369 1058 l 382 1070 m 406 1082 l 394 1094 l 382 1082 l 394 1070 l 406 1082 m 689 1094 l 677 1106 l 665 1094 l 677 1082 l 689 1094 m 738 1094 l 726 1106 l 714 1094 l 726 1082 l 738 1094 m 603 1106 l 590 1119 l 578 1106 l 590 1094 l 603 1106 m 714 1119 l 653 1143 l 640 1131 l 701 1106 l 714 1119 "},"œ":{"x_min":0,"x_max":0,"ha":694},"!":{"x_min":27,"x_max":393.078125,"ha":420,"o":"m 210 -195 l 210 -169 l 53 -126 l 53 -100 l 63 -65 l 44 -65 l 35 -73 l 35 -65 l 80 66 l 63 74 l 27 39 l 27 57 l 123 100 l 88 109 l 63 92 q 88 109 80 100 q 118 118 96 118 q 150 126 141 118 q 175 145 159 135 l 167 154 q 192 145 175 145 q 223 136 210 145 q 250 122 237 127 q 271 100 263 118 l 280 118 l 263 145 l 280 100 l 350 66 l 350 84 l 342 92 l 393 -39 l 377 -108 l 377 -83 l 350 -83 l 350 -100 l 315 -108 l 315 -126 l 324 -179 l 324 -144 l 306 -126 l 280 -134 l 271 -187 l 263 -161 l 254 -187 l 228 -161 l 210 -195 m 210 -161 l 192 -152 l 184 -161 l 202 -169 l 210 -161 m 80 -126 l 71 -118 l 63 -126 l 71 -134 l 80 -126 m 88 -118 l 88 -83 l 63 -83 l 63 -108 l 88 -118 m 141 -118 l 131 -108 l 123 -118 l 131 -126 l 141 -118 m 159 -108 l 149 -100 l 141 -108 l 149 -118 l 159 -108 m 368 -73 l 359 -65 l 350 -73 l 359 -83 l 368 -73 m 71 -65 l 71 -39 l 63 -29 l 44 -55 l 63 -73 l 71 -65 m 332 -65 l 324 -55 l 315 -65 l 324 -73 l 332 -65 m 123 -29 l 113 -21 l 105 -29 l 113 -39 l 123 -29 m 359 -21 l 350 -12 l 342 -21 l 350 -29 l 359 -21 m 377 -21 l 377 23 l 368 31 l 350 -4 l 377 -21 m 71 23 l 71 31 l 63 39 l 53 23 l 63 13 l 71 23 m 350 31 l 350 39 l 342 48 l 332 31 l 342 23 l 350 31 m 80 39 l 80 48 l 71 57 l 63 39 l 71 31 l 80 39 m 306 48 l 298 57 l 289 48 l 298 39 l 306 48 m 88 57 l 80 66 l 71 57 l 80 48 l 88 57 m 159 84 l 141 92 l 131 84 l 149 74 l 159 84 m 219 100 l 210 109 l 202 100 l 210 92 l 219 100 m 246 100 l 246 118 l 228 118 l 219 109 l 246 100 m 202 109 l 192 118 l 184 109 l 192 100 l 202 109 m 210 127 l 210 146 l 192 146 l 184 135 l 202 118 l 210 127 m 202 206 l 202 232 l 210 241 l 202 302 l 175 302 l 167 257 l 159 318 l 149 292 l 141 353 l 149 406 l 141 414 l 131 371 l 123 424 l 149 677 l 113 878 l 105 834 l 96 922 l 113 1009 l 105 1018 q 92 983 96 1000 q 84 948 88 965 q 80 908 80 930 q 81 869 80 886 l 81 973 l 159 1166 l 175 1166 l 175 1140 l 202 1140 l 210 1115 l 219 1131 l 237 1140 l 246 1131 l 271 1166 l 280 1158 l 289 1166 l 289 1141 l 315 1141 l 315 1158 l 332 1158 l 332 1131 l 350 1131 l 359 1097 l 368 1115 l 389 1115 l 389 536 l 368 292 l 368 327 l 377 371 l 359 424 l 342 310 l 332 335 l 315 232 l 298 284 l 271 275 l 263 214 l 254 249 l 246 214 l 237 257 l 228 249 l 219 267 l 202 206 m 175 327 l 175 335 l 167 345 l 159 327 l 167 318 l 175 327 m 159 345 l 159 353 l 149 363 l 141 335 l 149 327 l 159 345 m 167 406 l 167 414 l 159 424 l 149 406 l 159 397 l 167 406 m 385 424 l 385 485 l 385 965 l 372 973 l 372 424 l 368 414 l 385 424 m 159 432 l 159 475 l 149 485 l 141 432 l 149 424 l 159 432 m 167 581 l 167 589 l 159 599 l 149 581 l 159 572 l 167 581 m 113 922 l 105 930 l 96 922 l 105 912 l 113 922 m 131 1009 l 123 1018 l 113 1009 l 123 1000 l 131 1009 m 377 1009 l 377 1036 l 368 1044 l 359 1009 l 368 1000 l 377 1009 m 113 1036 l 105 1044 l 96 1036 l 105 1026 l 113 1036 m 377 1062 l 377 1087 l 385 1105 l 377 1115 l 350 1079 l 368 1052 l 377 1062 m 149 1070 l 141 1079 l 131 1070 l 141 1062 l 149 1070 m 271 1123 l 263 1131 l 254 1123 l 263 1115 l 271 1123 m 167 1123 l 167 1140 l 159 1148 l 141 1131 l 167 1123 m 332 1123 l 332 1148 l 324 1158 l 306 1123 l 332 1123 m 289 1140 l 289 1148 l 280 1158 l 271 1140 l 280 1131 l 289 1140 "},"ç":{"x_min":0,"x_max":0,"ha":694},"È":{"x_min":0,"x_max":0,"ha":694},"{":{"x_min":26.78125,"x_max":675.59375,"ha":703,"o":"m 332 146 l 332 164 l 295 174 l 286 164 l 286 174 l 295 182 l 286 201 l 295 211 l 276 230 l 267 211 l 267 220 l 286 266 l 249 284 l 230 276 l 82 349 l 45 387 l 26 552 l 82 683 q 124 706 101 692 q 170 724 147 719 q 216 729 193 729 q 267 729 239 729 l 369 683 l 416 743 l 583 743 l 619 729 l 675 525 q 624 424 647 479 q 550 331 601 368 q 457 247 499 293 q 397 146 416 201 l 397 155 l 407 164 l 387 174 l 369 155 l 360 164 l 350 146 l 332 146 m 295 238 l 295 247 l 286 257 l 276 238 l 286 230 l 295 238 m 453 257 l 443 266 l 434 257 l 443 247 l 453 257 m 304 266 l 295 276 l 286 266 l 295 257 l 304 266 m 341 339 l 407 424 l 387 443 l 378 424 l 369 433 l 350 405 l 332 405 l 322 424 l 314 414 l 304 433 l 295 414 l 286 506 l 276 470 l 276 525 l 286 562 l 184 608 q 156 571 165 590 q 142 529 147 552 q 138 483 138 506 q 138 433 138 460 q 156 405 147 424 q 179 377 165 387 q 212 363 193 368 q 239 349 230 358 l 332 331 l 341 339 m 443 433 q 480 470 462 451 q 508 512 499 489 q 527 558 518 535 q 527 608 535 581 l 508 627 q 480 585 499 608 q 453 539 462 562 q 434 493 443 516 q 426 443 426 470 l 407 443 l 407 424 l 416 414 l 443 433 m 480 443 l 472 451 l 462 443 l 472 433 l 480 443 m 518 479 l 508 489 l 499 479 l 508 470 l 518 479 m 518 506 l 508 516 l 499 506 l 508 498 l 518 506 m 527 525 l 518 535 l 508 525 l 518 516 l 527 525 m 535 544 l 527 552 l 518 544 l 527 535 l 535 544 m 480 600 l 472 608 l 462 600 l 472 590 l 480 600 m 82 655 l 72 664 l 63 655 l 72 646 l 82 655 m 91 664 l 82 674 l 72 664 l 91 664 m 101 674 l 91 683 l 82 674 l 101 674 m 332 683 l 322 692 l 314 683 l 322 674 l 332 683 m 601 711 l 601 719 l 591 729 l 583 711 l 591 702 l 601 711 m 258 719 l 249 729 l 239 719 l 249 711 l 258 719 m 426 719 l 416 729 l 407 719 l 416 711 l 426 719 m 573 738 l 564 748 l 554 738 l 564 729 l 573 738 "},"X":{"x_min":27.359375,"x_max":1290.609375,"ha":1318,"o":"m 1046 -174 q 1003 -158 1024 -163 q 971 -132 982 -152 q 939 -106 960 -111 q 907 -80 918 -100 l 918 -69 l 568 239 q 505 185 537 217 q 446 121 473 153 q 393 58 420 90 q 356 -5 366 26 l 345 4 l 282 -111 l 271 -47 l 249 -100 l 240 -100 l 240 -80 l 249 -69 l 218 -47 l 229 -58 l 240 -37 l 218 -16 l 176 -37 l 144 -100 l 144 -80 l 176 -26 l 144 -16 l 133 -26 l 113 -16 l 91 -47 l 80 -16 l 71 -47 l 71 -26 l 80 4 l 71 26 l 80 58 l 49 58 l 49 26 l 49 47 q 70 89 60 68 q 96 132 80 111 q 118 180 113 153 q 133 228 123 207 l 123 239 l 60 122 l 60 144 q 128 244 80 197 q 213 344 176 291 q 307 440 249 397 q 399 535 366 483 l 187 769 l 187 789 l 166 789 l 166 811 l 123 833 l 133 843 l 91 875 l 91 897 l 71 897 l 71 917 l 27 938 l 49 917 l 60 938 l 27 981 l 49 960 l 80 991 l 49 1033 l 71 1023 l 80 1033 l 60 1066 l 71 1033 l 102 1033 l 102 1055 l 113 1044 l 123 1066 l 113 1076 l 123 1086 l 113 1097 l 187 1055 l 187 1076 l 229 1044 l 240 1066 l 249 1044 l 271 1055 l 313 1033 l 313 1055 l 293 1076 l 377 1013 l 377 991 l 410 991 l 410 970 l 441 970 l 441 949 l 473 938 l 537 875 l 526 864 l 631 736 l 812 917 l 801 928 l 790 917 l 1046 1150 l 1056 1139 l 1077 1160 l 1046 1129 l 1066 1118 l 1098 1150 l 1088 1139 l 1119 1129 l 1151 1150 l 1173 1139 l 1204 1171 l 1193 1160 l 1204 1150 l 1173 1108 l 1182 1097 l 1226 1129 l 1182 1066 l 1193 1055 l 1246 1097 l 1215 1066 l 1235 1055 l 1268 1086 l 1226 1023 l 1246 1013 l 1279 1044 l 1226 991 l 1268 960 l 1290 981 q 1204 875 1235 928 q 1125 769 1173 822 q 1029 668 1077 716 q 940 567 982 620 l 865 503 l 1279 4 l 1246 -5 l 1226 -80 l 1204 -90 l 1226 -174 l 1215 -174 l 1226 -132 l 1162 -122 l 1151 -132 l 1173 -185 l 1141 -185 l 1173 -185 l 1173 -152 l 1151 -132 l 1141 -152 l 1109 -152 l 1098 -142 l 1077 -174 l 1046 -174 m 1024 -152 l 1013 -142 l 1002 -152 l 1013 -163 l 1024 -152 m 1077 -142 l 1066 -132 l 1056 -142 l 1066 -152 l 1077 -142 m 1002 -132 l 993 -122 l 982 -132 l 993 -142 l 1002 -132 m 1035 -132 l 1013 -111 l 1002 -122 l 1035 -132 m 1109 -132 l 1098 -122 l 1088 -132 l 1098 -142 l 1109 -132 m 1141 -122 l 1130 -111 l 1119 -122 l 1130 -132 l 1141 -122 m 1193 -111 l 1173 -100 l 1162 -111 l 1182 -122 l 1193 -111 m 1002 -100 l 982 -90 l 971 -100 l 993 -111 l 1002 -100 m 940 -90 l 929 -80 l 918 -90 l 929 -100 l 940 -90 m 960 -69 l 940 -58 l 929 -69 l 949 -80 l 960 -69 m 260 -47 l 249 -37 l 240 -47 l 249 -58 l 260 -47 m 293 -47 l 282 -37 l 271 -47 l 282 -58 l 293 -47 m 940 -47 l 876 4 l 865 -5 l 929 -58 l 940 -47 m 1215 -47 l 1204 -37 l 1193 -47 l 1204 -58 l 1215 -47 m 304 -26 l 304 -16 l 293 -5 l 282 -26 l 293 -37 l 304 -26 m 1226 -26 l 1226 -16 l 1215 -5 l 1204 -26 l 1215 -37 l 1226 -26 m 102 -16 l 91 -5 l 80 -16 l 91 -26 l 102 -16 m 249 -16 l 240 -5 l 229 -16 l 240 -26 l 249 -16 m 1193 4 l 1182 15 l 1173 4 l 1182 -5 l 1193 4 m 865 15 l 854 26 l 843 15 l 854 4 l 865 15 m 1235 26 l 1226 36 l 1215 26 l 1226 15 l 1235 26 m 1258 26 l 1258 36 l 1235 58 l 1226 36 l 1258 26 m 366 36 l 356 47 l 334 15 l 345 4 l 366 36 m 832 36 l 823 47 l 812 36 l 823 26 l 832 36 m 377 47 l 366 58 l 356 47 l 377 47 m 345 58 l 334 69 l 323 58 l 334 47 l 345 58 m 812 58 l 801 69 l 790 58 l 801 47 l 812 58 m 1204 58 l 1193 69 l 1182 58 l 1193 47 l 1204 58 m 80 69 l 71 80 l 60 69 l 71 58 l 80 69 m 102 80 l 80 100 l 71 80 l 102 80 m 388 80 l 377 91 l 366 80 l 377 69 l 388 80 m 790 80 l 779 91 l 769 80 l 779 69 l 790 80 m 399 91 l 388 100 l 377 91 l 399 91 m 1204 91 l 1193 100 l 1182 91 l 1193 80 l 1204 91 m 113 100 l 113 111 l 102 122 l 91 100 l 102 91 l 113 100 m 377 100 l 366 111 l 356 100 l 366 91 l 377 100 m 759 100 l 748 111 l 737 100 l 748 91 l 759 100 m 388 111 l 377 122 l 366 111 l 388 111 m 1182 111 l 1173 122 l 1162 111 l 1173 100 l 1182 111 m 737 122 l 599 270 l 579 239 l 674 133 l 726 111 l 737 122 m 1119 122 l 1109 133 l 1098 122 l 1109 111 l 1119 122 m 123 133 l 113 144 l 102 133 l 113 122 l 123 133 m 1162 133 l 1151 144 l 1141 133 l 1151 122 l 1162 133 m 133 144 l 123 153 l 113 144 l 133 144 m 451 144 l 441 153 l 430 144 l 441 133 l 451 144 m 462 153 l 451 164 l 441 153 l 462 153 m 1109 153 l 1098 164 l 1088 153 l 1098 144 l 1109 153 m 1141 153 l 1141 164 l 896 441 l 885 419 l 1130 144 l 1141 153 m 473 164 l 462 175 l 451 164 l 473 164 m 144 175 l 133 186 l 123 175 l 133 164 l 144 175 m 441 175 l 430 186 l 420 175 l 430 164 l 441 175 m 1088 175 l 1077 186 l 1066 175 l 1077 164 l 1088 175 m 451 186 l 441 197 l 430 186 l 451 186 m 144 197 l 176 260 l 166 270 l 123 197 l 133 186 l 144 197 m 462 197 l 451 207 l 441 197 l 462 197 m 473 217 l 462 228 l 451 217 l 462 207 l 473 217 m 483 228 l 473 239 l 462 228 l 483 228 m 1046 228 l 1035 239 l 1024 228 l 1035 217 l 1046 228 m 187 239 l 176 249 l 166 239 l 176 228 l 187 239 m 493 239 l 483 249 l 473 239 l 493 239 m 196 249 l 207 270 l 196 281 l 176 249 l 196 249 m 504 249 l 493 260 l 483 249 l 504 249 m 515 260 l 504 270 l 493 260 l 515 260 m 526 270 l 515 281 l 504 270 l 526 270 m 218 281 l 207 291 l 196 281 l 207 270 l 218 281 m 537 281 l 526 291 l 515 281 l 537 281 m 229 291 l 218 302 l 207 291 l 229 291 m 196 302 l 187 313 l 176 302 l 187 291 l 196 302 m 240 302 l 229 313 l 218 302 l 240 302 m 515 302 l 504 313 l 493 302 l 504 291 l 515 302 m 982 302 l 971 313 l 960 302 l 971 291 l 982 302 m 207 313 l 196 324 l 187 313 l 207 313 m 260 313 l 249 324 l 240 313 l 249 302 l 260 313 m 218 324 l 207 334 l 196 324 l 218 324 m 271 324 l 260 334 l 249 324 l 271 324 m 249 334 l 260 355 l 249 366 l 229 334 l 249 334 m 282 334 l 271 344 l 260 334 l 282 334 m 940 355 l 929 366 l 918 355 l 929 344 l 940 355 m 271 366 l 260 377 l 249 366 l 260 355 l 271 366 m 282 377 l 293 397 l 282 408 l 260 377 l 282 377 m 918 377 l 907 386 l 896 377 l 907 366 l 918 377 m 313 397 l 304 408 l 293 397 l 304 386 l 313 397 m 323 408 l 313 419 l 304 408 l 323 408 m 334 419 l 323 430 l 313 419 l 334 419 m 345 430 l 334 441 l 323 430 l 345 430 m 876 430 l 865 441 l 854 430 l 865 419 l 876 430 m 356 441 l 345 450 l 334 441 l 356 441 m 366 450 l 356 461 l 345 450 l 366 450 m 854 450 l 843 461 l 832 450 l 843 441 l 854 450 m 885 450 l 876 461 l 865 450 l 876 441 l 885 450 m 377 461 l 366 472 l 356 461 l 377 461 m 388 472 l 377 483 l 366 472 l 388 472 m 832 472 l 823 483 l 812 472 l 823 461 l 832 472 m 865 472 l 854 483 l 843 472 l 854 461 l 865 472 m 399 483 l 388 493 l 377 483 l 399 483 m 843 493 l 832 503 l 823 493 l 832 483 l 843 493 m 410 503 l 399 514 l 388 503 l 399 493 l 410 503 m 801 503 l 790 514 l 779 503 l 790 493 l 801 503 m 843 546 l 832 556 l 823 546 l 832 535 l 843 546 m 854 556 l 843 567 l 832 556 l 854 556 m 865 567 l 854 578 l 843 567 l 865 567 m 876 578 l 865 589 l 854 578 l 876 578 m 885 589 l 876 599 l 865 589 l 885 589 m 896 599 l 885 610 l 876 599 l 896 599 m 907 610 l 896 620 l 885 610 l 907 610 m 918 620 l 907 631 l 896 620 l 918 620 m 388 631 l 377 641 l 366 631 l 377 620 l 388 631 m 929 631 l 918 641 l 907 631 l 929 631 m 971 663 l 960 673 l 949 663 l 960 652 l 971 663 m 982 673 l 971 683 l 960 673 l 982 673 m 621 683 l 610 694 l 599 683 l 610 673 l 621 683 m 993 683 l 982 694 l 971 683 l 993 683 m 1002 694 l 993 705 l 982 694 l 1002 694 m 599 705 l 589 716 l 579 705 l 589 694 l 599 705 m 1013 705 l 1002 716 l 993 705 l 1013 705 m 621 716 l 621 727 l 483 875 l 473 864 l 610 705 l 621 716 m 674 716 l 663 727 l 653 716 l 663 705 l 674 716 m 1024 716 l 1013 727 l 1002 716 l 1024 716 m 579 727 l 568 736 l 557 727 l 568 716 l 579 727 m 684 727 l 674 736 l 663 727 l 684 727 m 1035 727 l 1024 736 l 1013 727 l 1035 727 m 695 736 l 684 747 l 674 736 l 695 736 m 706 747 l 695 758 l 684 747 l 706 747 m 716 758 l 706 769 l 695 758 l 716 758 m 726 769 l 716 780 l 706 769 l 726 769 m 537 780 l 526 789 l 515 780 l 526 769 l 537 780 m 737 780 l 726 789 l 716 780 l 737 780 m 716 800 l 706 811 l 695 800 l 706 789 l 716 800 m 1130 800 l 1119 811 l 1109 800 l 1119 789 l 1130 800 m 726 811 l 716 822 l 706 811 l 726 811 m 1141 811 l 1130 822 l 1119 811 l 1141 811 m 737 822 l 726 833 l 716 822 l 737 822 m 790 822 l 779 833 l 769 822 l 779 811 l 790 822 m 748 833 l 737 843 l 726 833 l 748 833 m 801 833 l 790 843 l 779 833 l 801 833 m 483 843 l 473 853 l 462 843 l 473 833 l 483 843 m 1173 843 l 1162 853 l 1151 843 l 1162 833 l 1173 843 m 1182 853 l 1173 864 l 1162 853 l 1182 853 m 144 864 l 133 875 l 123 864 l 133 853 l 144 864 m 1193 864 l 1182 875 l 1173 864 l 1193 864 m 801 875 l 790 886 l 779 875 l 790 864 l 801 875 m 1204 875 l 1193 886 l 1182 875 l 1204 875 m 123 886 l 113 897 l 102 886 l 113 875 l 123 886 m 812 886 l 801 897 l 790 886 l 812 886 m 102 906 l 91 917 l 80 906 l 91 897 l 102 906 m 1215 906 l 1204 917 l 1193 906 l 1204 897 l 1215 906 m 854 917 l 843 928 l 832 917 l 843 906 l 854 917 m 80 928 l 71 938 l 60 928 l 71 917 l 80 928 m 823 928 l 812 938 l 801 928 l 812 917 l 823 928 m 865 928 l 854 938 l 843 928 l 865 928 m 91 938 l 80 949 l 71 938 l 91 938 m 843 938 l 832 949 l 823 938 l 832 928 l 843 938 m 876 938 l 865 949 l 854 938 l 876 938 m 854 949 l 843 960 l 832 949 l 854 949 m 885 949 l 876 960 l 865 949 l 885 949 m 1226 949 l 1215 960 l 1204 949 l 1215 938 l 1226 949 m 865 960 l 854 970 l 843 960 l 865 960 m 896 960 l 885 970 l 876 960 l 896 960 m 1235 960 l 1226 970 l 1215 960 l 1235 960 m 876 970 l 865 981 l 854 970 l 876 970 m 907 970 l 896 981 l 885 970 l 907 970 m 1204 970 l 1193 981 l 1182 970 l 1193 960 l 1204 970 m 885 981 l 876 991 l 865 981 l 885 981 m 918 981 l 907 991 l 896 981 l 918 981 m 102 991 l 91 1002 l 80 991 l 91 981 l 102 991 m 356 991 l 345 1002 l 334 991 l 345 981 l 356 991 m 896 991 l 885 1002 l 876 991 l 896 991 m 929 991 l 918 1002 l 907 991 l 929 991 m 166 1002 l 155 1013 l 144 1002 l 155 991 l 166 1002 m 907 1002 l 896 1013 l 885 1002 l 907 1002 m 940 1002 l 929 1013 l 918 1002 l 940 1002 m 918 1013 l 907 1023 l 896 1013 l 918 1013 m 949 1013 l 940 1023 l 929 1013 l 949 1013 m 334 1023 l 323 1033 l 313 1023 l 323 1013 l 334 1023 m 960 1023 l 949 1033 l 940 1023 l 960 1023 m 144 1033 l 133 1044 l 123 1033 l 133 1023 l 144 1033 m 260 1033 l 249 1044 l 240 1033 l 249 1023 l 260 1033 m 971 1033 l 960 1044 l 949 1033 l 971 1033 m 176 1044 l 166 1055 l 155 1044 l 166 1033 l 176 1044 m 207 1044 l 196 1055 l 187 1044 l 196 1033 l 207 1044 m 271 1044 l 260 1055 l 249 1044 l 271 1044 m 949 1044 l 940 1055 l 929 1044 l 940 1033 l 949 1044 m 982 1044 l 971 1055 l 960 1044 l 982 1044 m 1215 1044 l 1204 1055 l 1193 1044 l 1204 1033 l 1215 1044 m 155 1055 l 144 1066 l 133 1055 l 144 1044 l 155 1055 m 993 1055 l 982 1066 l 971 1055 l 993 1055 m 1002 1066 l 993 1076 l 982 1066 l 1002 1066 m 1024 1076 l 1013 1086 l 1002 1076 l 1013 1066 l 1024 1076 m 1130 1076 l 1119 1086 l 1109 1076 l 1119 1066 l 1130 1076 m 1002 1086 l 993 1097 l 982 1086 l 993 1076 l 1002 1086 m 1035 1097 l 1024 1108 l 1013 1097 l 1024 1086 l 1035 1097 m 1130 1097 l 1119 1108 l 1109 1097 l 1119 1086 l 1130 1097 m 1046 1108 l 1035 1118 l 1024 1108 l 1046 1108 "},"ô":{"x_min":0,"x_max":0,"ha":694},"¼":{"x_min":0,"x_max":0,"ha":694},"#":{"x_min":27.25,"x_max":660.765625,"ha":688,"o":"m 522 437 l 522 515 l 512 524 l 504 489 l 496 542 l 486 507 l 478 532 l 468 515 l 460 550 l 435 498 l 417 611 l 374 619 l 374 602 l 382 585 l 382 593 l 374 602 l 366 576 l 392 489 l 392 498 l 366 558 l 356 524 l 366 507 l 366 515 l 339 532 l 331 524 l 323 542 l 313 489 l 313 507 l 295 507 l 287 524 l 279 515 l 252 558 l 244 550 l 226 629 l 157 629 l 226 641 l 114 641 l 131 655 l 114 663 l 157 680 l 122 698 l 165 706 l 157 715 l 218 724 l 209 775 l 209 749 l 226 724 l 236 785 l 218 906 l 139 906 l 70 898 l 131 898 l 139 906 l 62 915 l 35 898 l 27 923 l 62 949 l 35 959 q 84 976 62 967 q 131 985 105 985 q 183 993 157 985 q 236 1002 209 1002 l 236 1063 l 252 1063 l 252 1096 l 261 1071 l 269 1106 l 279 1088 l 287 1114 l 295 1088 l 304 1096 l 323 1010 l 356 1010 l 417 1019 l 425 1010 l 452 1106 l 460 1088 l 468 1106 l 478 1096 l 486 1122 l 496 1096 l 504 1106 l 522 1002 l 635 992 l 609 976 l 643 967 l 652 949 l 635 941 l 660 933 l 565 906 l 652 898 l 530 898 l 530 846 l 556 732 l 626 724 l 635 732 l 643 706 l 626 698 l 652 688 l 617 672 l 643 645 l 635 637 l 652 629 l 643 629 l 626 637 l 617 629 l 643 593 l 635 585 l 635 602 l 609 602 l 609 481 l 591 568 l 583 542 l 591 507 l 574 455 l 574 481 l 583 576 l 574 585 l 547 455 l 539 524 l 522 437 m 339 542 l 331 550 l 323 542 l 331 532 l 339 542 m 287 550 l 279 558 l 269 550 l 279 542 l 287 550 m 269 558 l 261 568 l 252 558 l 261 550 l 269 558 m 252 585 l 252 593 l 244 602 l 236 585 l 244 576 l 252 585 m 591 585 l 583 593 l 574 585 l 583 576 l 591 585 m 261 602 l 252 611 l 244 602 l 252 593 l 261 602 m 374 629 l 366 637 l 356 629 l 366 619 l 374 629 m 252 637 l 236 645 l 226 637 l 244 629 l 252 637 m 635 645 l 626 655 l 617 645 l 626 637 l 635 645 m 435 724 l 425 732 l 417 724 l 425 715 l 435 724 m 414 732 l 414 836 l 409 759 l 417 749 q 435 772 435 759 q 435 798 435 785 q 435 823 435 810 q 435 846 435 836 l 417 906 l 356 915 l 323 906 l 323 880 l 339 724 l 409 724 l 414 732 m 443 732 l 435 741 l 425 732 l 443 732 m 244 810 l 244 819 l 236 828 l 226 810 l 236 802 l 244 810 m 244 862 l 244 872 l 236 880 l 226 862 l 236 854 l 244 862 m 443 880 l 435 889 l 425 880 l 435 872 l 443 880 m 236 889 l 236 898 l 226 906 l 218 889 l 226 880 l 236 889 m 218 915 l 157 923 l 149 915 l 209 906 l 218 915 m 417 923 l 331 933 l 323 923 l 409 915 l 417 923 m 78 959 l 70 967 l 62 959 l 70 949 l 78 959 "},"Ê":{"x_min":0,"x_max":0,"ha":694},")":{"x_min":26.875,"x_max":712,"ha":739,"o":"m 230 -177 l 230 -167 l 249 -149 l 193 -112 l 174 -149 l 157 -149 l 157 -140 l 183 -112 l 166 -75 l 147 -112 l 138 -112 l 128 -103 l 111 -112 l 111 -103 l 138 -75 l 119 -66 l 119 -56 l 138 -29 l 119 -1 l 82 -29 l 82 -47 l 73 -47 l 73 -37 l 119 -10 l 147 44 l 174 54 l 174 71 l 166 81 l 92 25 l 92 8 l 82 8 l 82 17 l 128 44 l 147 81 q 221 146 193 109 q 277 225 249 183 q 323 313 305 267 q 369 396 341 359 l 379 378 l 314 248 l 323 238 q 355 285 341 257 q 383 341 369 313 q 411 392 396 369 q 415 451 425 415 q 355 586 406 526 q 254 702 305 647 q 152 818 203 758 q 73 943 101 878 l 55 943 l 26 1008 l 55 953 l 82 953 l 92 962 l 36 1063 l 63 1027 l 82 1045 l 73 1073 l 82 1073 l 92 1045 l 111 1045 l 128 1063 l 119 1073 l 128 1082 l 111 1090 l 111 1100 l 138 1073 l 147 1100 l 138 1109 l 147 1128 l 166 1138 l 157 1156 l 157 1146 l 166 1138 l 174 1156 l 193 1138 l 203 1156 l 193 1175 l 193 1156 l 212 1156 l 258 1090 l 268 1109 l 258 1128 q 374 971 314 1045 q 508 823 434 897 q 628 670 582 749 q 703 489 675 591 l 712 507 l 712 499 q 703 354 712 424 q 656 229 694 284 q 573 114 619 175 q 471 8 527 54 l 331 -131 l 314 -131 l 314 -149 l 286 -158 l 286 -149 l 295 -131 l 286 -121 l 268 -158 l 230 -177 m 268 -131 l 258 -121 l 249 -131 l 258 -140 l 268 -131 m 249 -112 l 239 -103 l 230 -112 l 239 -121 l 249 -112 m 286 -112 l 276 -103 l 268 -112 l 276 -121 l 286 -112 m 323 -112 l 314 -103 l 305 -112 l 314 -121 l 323 -112 m 258 -103 l 249 -93 l 239 -103 l 258 -103 m 295 -103 l 286 -93 l 276 -103 l 295 -103 m 268 -85 l 258 -75 l 249 -85 l 258 -93 l 268 -85 m 157 -66 l 138 -56 l 128 -66 l 147 -75 l 157 -66 m 305 -56 l 295 -47 l 286 -56 l 295 -66 l 305 -56 m 183 -29 l 174 -20 l 166 -29 l 174 -37 l 183 -29 m 166 -20 l 157 -10 l 147 -20 l 157 -29 l 166 -20 m 166 -1 l 166 8 l 157 17 l 138 -10 l 147 -20 l 166 -1 m 174 25 l 166 35 l 157 25 l 166 17 l 174 25 m 166 44 l 157 54 l 147 44 l 157 35 l 166 44 m 183 81 l 174 91 l 166 81 l 174 71 l 183 81 m 193 91 l 183 100 l 174 91 l 193 91 m 258 91 l 249 100 l 239 91 l 249 81 l 258 91 m 221 109 l 249 156 l 230 156 l 183 100 l 221 109 m 258 156 l 249 166 l 239 156 l 249 146 l 258 156 m 314 156 l 305 166 l 295 156 l 305 146 l 314 156 m 268 166 l 258 175 l 249 166 l 268 166 m 323 166 l 314 175 l 305 166 l 323 166 m 276 175 l 268 183 l 258 175 l 276 175 m 276 192 l 295 221 l 286 230 l 258 192 l 268 183 l 276 192 m 305 202 l 295 211 l 286 202 l 295 192 l 305 202 m 305 230 l 305 238 l 295 248 l 286 230 l 295 221 l 305 230 m 694 350 l 684 359 l 675 350 l 684 340 l 694 350 m 694 378 l 684 388 l 675 378 l 684 369 l 694 378 m 694 405 l 694 415 l 684 424 l 675 405 l 684 396 l 694 405 m 694 443 l 684 451 l 675 443 l 684 434 l 694 443 m 425 461 l 425 489 l 415 499 l 406 461 l 415 451 l 425 461 m 443 470 l 443 499 l 434 507 l 425 470 l 434 461 l 443 470 m 415 517 l 406 526 l 396 499 l 406 489 l 415 517 m 452 526 l 443 536 l 434 526 l 443 517 l 452 526 m 406 536 l 396 545 l 387 536 l 396 526 l 406 536 m 443 545 l 443 553 l 434 563 l 425 545 l 434 536 l 443 545 m 425 563 l 415 572 l 406 563 l 415 553 l 425 563 m 406 582 l 396 591 l 387 582 l 396 572 l 406 582 m 396 601 l 341 656 l 331 637 l 387 582 l 396 601 m 350 609 l 341 618 l 331 609 l 341 601 l 350 609 m 331 628 l 323 637 l 314 628 l 323 618 l 331 628 m 360 656 l 350 664 l 341 656 l 350 647 l 360 656 m 619 656 l 609 664 l 600 656 l 609 647 l 619 656 m 331 664 l 323 674 l 314 664 l 323 656 l 331 664 m 286 683 l 276 693 l 268 683 l 276 674 l 286 683 m 314 683 l 314 693 l 276 730 l 268 712 l 305 674 l 314 683 m 609 683 l 600 693 l 592 683 l 600 674 l 609 683 m 268 702 l 258 712 l 249 702 l 258 693 l 268 702 m 592 702 l 582 712 l 573 702 l 582 693 l 592 702 m 305 720 l 295 730 l 286 720 l 295 712 l 305 720 m 573 720 l 563 730 l 554 720 l 563 712 l 573 720 m 268 739 l 258 749 l 249 739 l 258 730 l 268 739 m 544 739 l 536 749 l 527 739 l 536 730 l 544 739 m 230 749 l 221 758 l 212 749 l 221 739 l 230 749 m 249 758 l 249 766 l 221 795 l 212 776 l 239 749 l 249 758 m 527 758 l 517 766 l 508 758 l 517 749 l 527 758 m 212 766 l 203 776 l 193 766 l 203 758 l 212 766 m 258 776 l 249 785 l 239 776 l 249 766 l 258 776 m 517 785 l 508 795 l 498 785 l 508 776 l 517 785 m 239 795 l 230 804 l 221 795 l 230 785 l 239 795 m 183 804 l 174 814 l 166 804 l 174 795 l 183 804 m 212 804 l 203 814 l 193 804 l 203 795 l 212 804 m 480 814 l 471 822 l 462 814 l 471 804 l 480 814 m 166 822 l 157 831 l 147 822 l 157 814 l 166 822 m 193 822 l 193 831 l 174 850 l 166 831 l 183 814 l 193 822 m 221 822 l 212 831 l 203 822 l 212 814 l 221 822 m 203 841 l 203 850 l 183 869 l 174 850 l 193 831 l 203 841 m 415 841 l 406 850 l 396 841 l 406 831 l 415 841 m 452 841 l 443 850 l 434 841 l 443 831 l 452 841 m 147 850 l 138 860 l 128 850 l 138 841 l 147 850 m 166 860 l 157 869 l 147 860 l 157 850 l 166 860 m 452 860 l 443 869 l 434 860 l 443 850 l 452 860 m 128 869 l 119 878 l 111 869 l 119 860 l 128 869 m 174 878 l 166 887 l 157 878 l 166 869 l 174 878 m 147 887 l 138 897 l 128 887 l 138 878 l 147 887 m 119 897 l 111 906 l 101 897 l 111 887 l 119 897 m 157 897 l 157 906 l 147 915 l 138 897 l 157 897 m 111 915 l 101 925 l 92 915 l 101 906 l 111 915 m 128 925 l 119 933 l 111 925 l 119 915 l 128 925 m 92 933 l 82 943 l 73 933 l 82 925 l 92 933 m 101 953 l 92 962 l 82 953 l 92 943 l 101 953 m 305 999 l 295 1008 l 286 999 l 295 989 l 305 999 m 331 999 l 323 1008 l 314 999 l 323 989 l 331 999 m 82 1027 l 73 1035 l 63 1027 l 73 1017 l 82 1027 m 111 1035 l 101 1045 l 92 1035 l 101 1027 l 111 1035 m 295 1045 l 286 1054 l 276 1045 l 286 1035 l 295 1045 m 286 1073 l 276 1082 l 268 1073 l 276 1063 l 286 1073 m 249 1082 l 239 1090 l 230 1082 l 239 1073 l 249 1082 m 166 1119 l 157 1128 l 147 1119 l 157 1109 l 166 1119 m 183 1138 l 174 1146 l 166 1138 l 174 1128 l 183 1138 "},"Å":{"x_min":0,"x_max":0,"ha":694},"ø":{"x_min":0,"x_max":0,"ha":694},"â":{"x_min":0,"x_max":0,"ha":694},"}":{"x_min":26.78125,"x_max":675.59375,"ha":703,"o":"m 332 146 l 332 164 l 295 174 l 286 164 l 286 174 l 295 182 l 286 201 l 295 211 l 276 230 l 267 211 l 267 220 l 286 266 l 249 284 l 230 276 l 82 349 l 45 387 l 26 552 l 82 683 q 124 706 101 692 q 170 724 147 719 q 216 729 193 729 q 267 729 239 729 l 369 683 l 416 743 l 583 743 l 619 729 l 675 525 q 624 424 647 479 q 550 331 601 368 q 457 247 499 293 q 397 146 416 201 l 397 155 l 407 164 l 387 174 l 369 155 l 360 164 l 350 146 l 332 146 m 295 238 l 295 247 l 286 257 l 276 238 l 286 230 l 295 238 m 453 257 l 443 266 l 434 257 l 443 247 l 453 257 m 304 266 l 295 276 l 286 266 l 295 257 l 304 266 m 341 339 l 407 424 l 387 443 l 378 424 l 369 433 l 350 405 l 332 405 l 322 424 l 314 414 l 304 433 l 295 414 l 286 506 l 276 470 l 276 525 l 286 562 l 184 608 q 156 571 165 590 q 142 529 147 552 q 138 483 138 506 q 138 433 138 460 q 156 405 147 424 q 179 377 165 387 q 212 363 193 368 q 239 349 230 358 l 332 331 l 341 339 m 443 433 q 480 470 462 451 q 508 512 499 489 q 527 558 518 535 q 527 608 535 581 l 508 627 q 480 585 499 608 q 453 539 462 562 q 434 493 443 516 q 426 443 426 470 l 407 443 l 407 424 l 416 414 l 443 433 m 480 443 l 472 451 l 462 443 l 472 433 l 480 443 m 518 479 l 508 489 l 499 479 l 508 470 l 518 479 m 518 506 l 508 516 l 499 506 l 508 498 l 518 506 m 527 525 l 518 535 l 508 525 l 518 516 l 527 525 m 535 544 l 527 552 l 518 544 l 527 535 l 535 544 m 480 600 l 472 608 l 462 600 l 472 590 l 480 600 m 82 655 l 72 664 l 63 655 l 72 646 l 82 655 m 91 664 l 82 674 l 72 664 l 91 664 m 101 674 l 91 683 l 82 674 l 101 674 m 332 683 l 322 692 l 314 683 l 322 674 l 332 683 m 601 711 l 601 719 l 591 729 l 583 711 l 591 702 l 601 711 m 258 719 l 249 729 l 239 719 l 249 711 l 258 719 m 426 719 l 416 729 l 407 719 l 416 711 l 426 719 m 573 738 l 564 748 l 554 738 l 564 729 l 573 738 "},"‰":{"x_min":0,"x_max":0,"ha":694},"Ä":{"x_min":0,"x_max":0,"ha":694},"¸":{"x_min":0,"x_max":0,"ha":694},"a":{"x_min":27.125,"x_max":1298,"ha":1325,"o":"m 299 -172 l 274 -149 l 263 -160 l 227 -54 l 208 -110 l 168 38 l 161 -3 l 158 26 l 168 38 l 158 50 l 161 71 l 147 129 l 158 121 l 180 333 l 160 335 l 168 345 l 132 356 l 121 345 l 143 338 l 86 345 l 109 356 l 62 368 l 97 380 l 27 403 l 27 416 l 74 426 l 51 439 l 145 462 l 74 486 l 121 499 l 180 486 l 180 522 l 132 522 l 180 534 l 180 569 l 180 615 l 168 627 l 158 592 l 145 698 q 212 867 180 804 q 256 952 244 931 l 263 945 l 274 957 l 266 965 l 269 970 l 287 970 l 276 978 l 277 980 l 299 980 l 287 992 l 284 989 q 392 1098 328 1048 q 540 1146 452 1146 q 710 1146 628 1146 q 963 1092 839 1133 q 1182 957 1086 1051 q 1298 662 1298 827 q 1298 320 1298 498 l 1227 -54 l 1217 -43 l 1204 -67 l 1192 -31 l 1169 -67 l 1157 -67 l 1157 -54 l 1182 15 l 1157 38 l 1087 -149 l 1087 -137 l 1111 -19 l 1099 -8 l 1063 -79 l 1028 -149 l 1028 -137 l 1038 -89 l 1028 -79 l 1016 -102 l 1016 -43 l 1028 -8 l 1016 3 l 1003 -8 l 992 3 l 969 -79 l 969 -67 l 980 -31 l 969 -19 l 958 -43 l 958 -31 l 980 74 l 946 74 l 934 -8 l 922 26 l 934 86 l 910 109 l 887 26 l 887 38 l 922 204 l 733 227 l 827 239 q 639 268 733 268 q 440 268 545 268 l 440 239 l 468 163 l 463 168 l 451 86 l 475 -8 l 463 -19 l 475 -31 l 451 -43 l 440 3 l 404 -89 l 416 -125 l 404 -125 l 392 -79 l 357 -79 l 357 -102 l 369 -125 l 345 -102 l 334 -159 l 299 -114 l 287 -149 l 299 -172 m 287 -114 l 287 -102 l 274 -89 l 263 -125 l 274 -137 l 287 -114 m 475 -114 l 463 -102 l 463 -89 l 475 -114 m 334 -102 l 334 -89 l 345 -79 l 345 -54 l 334 -43 l 322 -79 l 309 -125 l 322 -137 l 334 -102 m 392 -54 l 381 -43 l 369 -54 l 381 -67 l 392 -54 m 1217 -31 l 1217 -19 l 1204 -8 l 1192 -31 l 1204 -43 l 1217 -31 m 404 -19 l 392 -8 l 381 -19 l 392 -31 l 404 -19 m 1099 3 l 1099 15 l 1087 26 l 1076 3 l 1087 -8 l 1099 3 m 1204 3 l 1192 15 l 1182 -8 l 1192 -19 l 1204 3 m 1182 50 l 1182 61 l 1169 74 l 1157 50 l 1169 38 l 1182 50 m 1217 50 l 1217 61 l 1204 74 l 1192 50 l 1204 38 l 1217 50 m 934 132 l 934 156 l 922 168 l 910 121 l 922 109 l 934 132 m 1227 132 l 1217 144 l 1204 132 l 1217 121 l 1227 132 m 193 156 l 193 192 l 180 204 l 168 156 l 180 144 l 193 156 m 440 168 l 440 179 l 427 192 l 416 168 l 427 156 l 440 168 m 1252 168 l 1239 179 l 1227 168 l 1239 156 l 1252 168 m 946 179 l 946 192 l 934 204 l 922 179 l 934 168 l 946 179 m 440 227 l 427 239 l 416 227 l 427 215 l 440 227 m 922 227 l 827 239 l 816 227 l 910 215 l 922 227 m 934 250 l 851 262 l 839 250 l 922 239 l 934 250 m 1252 250 l 1252 297 l 1239 310 l 1227 250 l 1239 239 l 1252 250 m 839 262 l 756 274 l 746 262 l 827 250 l 839 262 m 746 274 l 663 286 l 651 274 l 733 262 l 746 274 m 651 291 l 451 291 l 440 280 l 638 280 l 651 291 m 756 286 l 746 297 l 733 286 l 756 286 m 898 286 l 874 297 l 862 286 l 887 274 l 898 286 m 804 297 l 781 310 l 769 297 l 792 286 l 804 297 m 1262 345 l 1262 368 l 1252 380 l 1239 345 l 1252 333 l 1262 345 m 145 368 l 109 380 l 97 368 l 132 356 l 145 368 m 193 451 l 180 462 l 168 451 l 180 439 l 193 451 m 827 499 l 781 509 l 769 499 l 816 486 l 827 499 m 951 499 l 951 698 l 969 698 l 980 710 l 958 733 l 951 713 q 924 722 938 718 l 934 733 l 910 745 l 898 733 l 910 726 q 756 771 839 750 q 568 780 674 791 q 498 653 522 722 q 463 515 475 584 l 522 515 l 721 515 l 951 499 m 992 499 l 992 675 l 963 698 l 963 499 l 992 499 m 451 509 l 451 604 l 440 615 l 404 509 l 451 509 m 203 569 l 203 640 l 193 650 l 180 569 l 193 557 l 203 569 m 404 569 l 404 592 l 392 604 l 381 569 l 392 557 l 404 569 m 427 615 l 427 627 l 416 640 l 404 615 l 416 604 l 427 615 m 1287 627 l 1287 640 l 1274 650 l 1262 627 l 1274 615 l 1287 627 m 1038 640 l 1028 650 l 1016 640 l 1028 627 l 1038 640 m 1038 663 l 1028 675 l 1016 663 l 1028 650 l 1038 663 m 180 675 l 180 686 l 193 698 l 158 710 l 158 675 l 168 663 l 180 675 m 1287 675 l 1287 698 l 1274 710 l 1262 675 l 1274 663 l 1287 675 m 451 686 l 440 698 l 427 686 l 440 675 l 451 686 m 1016 686 l 1016 698 l 1003 710 l 992 686 l 1003 675 l 1016 686 m 238 698 l 238 721 l 227 733 l 215 698 l 227 686 l 238 698 m 463 721 l 451 733 l 440 721 l 451 710 l 463 721 m 203 733 l 193 745 l 180 733 l 193 721 l 203 733 m 922 756 l 804 791 l 792 780 l 910 745 l 922 756 m 215 768 l 215 780 l 203 791 l 193 768 l 203 756 l 215 768 m 475 768 l 463 780 l 451 768 l 463 756 l 475 768 m 533 768 l 522 780 l 510 768 l 522 756 l 533 768 m 498 780 l 487 791 l 475 780 l 487 768 l 498 780 m 969 780 l 958 791 l 946 780 l 958 768 l 969 780 m 510 791 l 498 803 l 487 791 l 510 791 m 557 791 l 545 803 l 533 791 l 545 780 l 557 791 m 792 791 q 704 816 756 816 q 603 816 651 816 l 580 785 l 781 785 l 792 791 m 227 803 l 215 816 l 203 803 l 215 791 l 227 803 m 874 803 l 851 816 l 839 803 l 862 791 l 874 803 m 239 826 l 239 839 l 227 851 l 215 826 l 227 816 l 239 826 m 910 826 l 898 839 l 887 826 l 898 816 l 910 826 m 686 839 l 651 851 l 638 839 l 674 826 l 686 839 m 733 839 l 710 851 l 698 839 l 721 826 l 733 839 m 792 839 l 769 851 l 756 839 l 781 826 l 792 839 m 839 851 l 816 863 l 804 851 l 827 839 l 839 851 m 251 863 l 239 874 l 227 863 l 239 851 l 251 863 m 545 863 l 522 874 l 510 863 l 533 851 l 545 863 m 628 863 l 615 874 l 603 863 l 615 851 l 628 863 m 1157 863 l 1146 874 l 1134 863 l 1146 851 l 1157 863 m 1217 863 l 1204 874 l 1192 863 l 1204 851 l 1217 863 m 322 874 l 322 886 l 334 898 l 322 909 l 309 898 l 299 874 l 309 863 l 322 874 m 1204 886 l 1192 898 l 1182 886 l 1192 874 l 1204 886 m 522 898 l 510 909 l 498 898 l 510 886 l 522 898 m 263 909 l 251 922 l 239 909 l 251 898 l 263 909 m 1182 909 l 1169 922 l 1157 909 l 1169 898 l 1182 909 m 274 922 l 263 934 l 251 922 l 274 922 m 287 934 l 274 945 l 263 934 l 287 934 m 1121 934 l 1111 945 l 1099 934 l 1111 922 l 1121 934 m 392 945 l 381 957 l 369 945 l 381 934 l 392 945 m 1111 957 l 1099 970 l 1087 957 l 1099 945 l 1111 957 m 1038 970 l 1028 980 l 1016 970 l 1028 957 l 1038 970 m 1087 970 l 1076 980 l 1063 970 l 1076 957 l 1087 970 m 1016 980 l 1003 992 l 992 980 l 1003 970 l 1016 980 m 1063 980 l 1051 992 l 1038 980 l 1051 970 l 1063 980 m 1134 980 l 1121 992 l 1076 1028 l 980 1063 l 969 1051 l 1111 980 l 1121 970 l 1134 980 m 345 1004 l 334 1016 l 322 1004 l 334 992 l 345 1004 m 980 1004 l 969 1016 l 958 1004 l 969 992 l 980 1004 m 357 1016 l 345 1028 l 334 1016 l 357 1016 m 369 1040 l 345 1051 l 334 1040 l 357 1028 l 369 1040 m 522 1040 l 510 1051 l 498 1040 l 510 1028 l 522 1040 m 969 1040 l 958 1051 l 946 1040 l 958 1028 l 969 1040 m 392 1051 l 369 1063 l 357 1051 l 392 1051 m 427 1051 l 416 1063 l 404 1051 l 416 1040 l 427 1051 m 404 1063 l 392 1075 l 381 1063 l 404 1063 m 887 1063 l 862 1075 l 851 1063 l 874 1051 l 887 1063 m 969 1063 l 958 1075 l 946 1063 l 958 1051 l 969 1063 m 427 1075 l 416 1086 l 404 1075 l 416 1063 l 427 1075 m 475 1075 l 463 1086 l 451 1075 l 463 1063 l 475 1075 m 827 1075 l 804 1086 l 792 1075 l 816 1063 l 827 1075 m 910 1075 l 898 1086 l 887 1075 l 898 1063 l 910 1075 m 887 1086 l 839 1098 l 827 1086 l 874 1075 l 887 1086 m 746 1127 l 580 1127 l 568 1116 l 733 1116 l 746 1127 m 203 -125 l 208 -110 l 215 -137 l 203 -125 m 158 -31 l 161 -3 l 168 -43 l 158 -31 m 145 144 l 147 129 l 145 132 l 145 144 m 475 144 l 468 163 l 475 156 l 475 144 m 334 -160 l 334 -159 l 345 -172 l 334 -160 m 1051 -67 l 1038 -79 l 1051 -89 l 1063 -79 l 1051 -67 m 158 333 l 143 338 l 160 335 l 158 333 m 958 710 l 956 698 l 946 698 l 951 713 l 958 710 m 922 721 l 910 726 l 924 722 l 922 721 m 251 957 l 263 970 l 266 965 l 256 952 l 251 957 m 276 978 l 269 970 l 263 970 l 274 980 l 276 978 m 284 989 l 277 980 l 274 980 l 284 989 "},"—":{"x_min":27,"x_max":1213,"ha":1240,"o":"m 1045 -157 q 1038 -139 1045 -145 q 1026 -139 1032 -133 q 1014 -126 1020 -145 q 994 -113 1007 -107 q 982 -113 982 -119 q 988 -94 982 -107 q 982 -55 995 -81 q 982 -17 969 -29 q 1008 20 995 -5 q 1040 65 1020 46 q 1065 109 1059 84 q 1072 154 1072 135 q 1059 230 1072 173 q 1052 307 1046 287 q 1046 345 1059 326 q 1046 358 1032 365 q 1065 358 1059 351 q 1065 383 1072 365 q 1065 396 1059 402 q 1084 383 1072 390 q 1109 371 1097 377 q 1128 345 1122 365 q 1135 320 1135 326 q 1148 300 1135 313 q 1180 256 1161 287 q 1206 193 1199 225 q 1213 129 1213 161 q 1213 77 1213 97 q 1206 39 1213 58 q 1206 14 1199 20 q 1167 -62 1213 8 q 1109 -133 1122 -133 q 1097 -145 1097 -133 q 1091 -138 1097 -157 q 1078 -138 1085 -119 q 1065 -151 1072 -157 q 1045 -157 1059 -145 m 1059 -133 q 1040 -126 1046 -119 q 1040 -139 1033 -133 q 1059 -133 1046 -145 m 1085 -107 q 1065 -100 1071 -93 q 1065 -113 1059 -107 q 1085 -107 1071 -119 m 1032 -93 q 1013 -87 1020 -81 q 1013 -100 1007 -93 q 1032 -93 1020 -107 m 1007 -55 q 988 -49 995 -43 q 988 -62 981 -55 q 1007 -55 995 -69 m 664 84 q 505 173 536 135 q 466 205 473 211 q 434 192 460 199 q 384 186 409 186 q 333 186 358 186 q 295 186 308 186 q 186 217 282 186 q 91 262 91 249 q 65 301 91 275 q 39 358 39 326 q 33 415 39 390 q 27 459 27 440 q 59 568 27 478 q 109 663 91 657 q 135 689 128 670 q 185 728 141 709 q 237 740 230 747 q 250 747 244 734 q 243 810 256 759 q 243 874 230 861 q 275 924 256 887 q 320 994 294 962 q 370 1052 345 1026 q 415 1090 396 1078 q 485 1103 433 1103 q 581 1078 537 1103 q 657 1001 625 1052 q 708 950 689 950 q 779 963 728 950 q 931 925 830 976 q 1039 862 1032 874 q 1071 823 1046 849 q 1103 772 1097 797 q 1122 721 1109 747 q 1135 677 1135 696 q 1103 600 1135 658 q 1059 542 1072 542 q 1046 529 1046 542 q 995 498 1046 517 q 975 389 944 478 q 924 192 1007 301 q 664 84 842 84 m 574 122 q 555 128 561 135 q 555 115 549 122 q 574 122 561 109 m 1097 122 q 1078 128 1084 135 q 1078 115 1071 122 q 1097 122 1084 109 m 536 199 q 517 205 523 211 q 517 192 511 199 q 536 199 523 185 m 753 237 q 696 243 703 249 q 715 231 689 237 q 753 237 740 225 m 1085 249 q 1065 256 1071 263 q 1065 243 1059 249 q 1085 249 1071 237 m 778 275 q 740 460 816 365 q 676 561 664 555 q 683 580 689 567 q 708 599 676 593 q 741 618 741 605 q 734 638 741 631 q 836 657 728 645 q 944 689 944 670 q 937 728 944 709 q 868 766 931 747 q 746 747 804 785 q 683 696 689 709 q 663 684 676 684 q 651 670 651 684 q 644 670 651 657 q 631 670 638 684 q 619 663 625 657 q 606 663 612 670 q 593 670 600 657 q 581 677 587 684 q 568 683 574 670 q 555 683 561 696 q 542 689 549 670 q 542 721 536 709 q 536 747 549 734 q 517 747 523 759 q 511 740 511 734 q 523 823 511 747 q 517 912 536 899 q 478 918 497 925 q 460 899 460 912 q 447 868 460 887 q 415 830 434 849 q 396 785 396 811 q 396 747 396 759 q 428 715 396 734 q 460 690 460 696 q 447 677 460 684 q 447 663 434 670 q 460 651 460 657 q 447 645 460 645 q 428 625 434 645 q 396 593 421 605 q 383 574 371 581 q 370 561 396 567 q 358 548 345 555 q 339 542 371 542 q 276 548 307 542 q 231 479 244 555 q 224 396 218 402 q 249 377 230 390 q 288 365 268 365 q 326 365 307 365 q 358 365 345 365 q 377 371 371 365 q 402 389 383 377 q 434 421 421 402 q 453 459 447 440 q 466 485 460 478 q 479 485 473 492 q 504 510 485 478 q 536 517 523 542 q 561 510 549 492 q 587 504 574 529 q 612 472 600 478 q 638 364 625 466 q 708 263 651 263 q 778 275 766 263 m 1072 275 q 1053 281 1059 287 q 1053 269 1046 275 q 1072 275 1059 263 m 65 339 q 58 358 65 351 q 46 352 52 364 q 46 333 39 339 q 65 339 52 326 m 358 339 q 313 345 320 351 q 326 333 307 339 q 358 339 345 326 m 53 415 q 46 434 53 428 q 33 427 39 440 q 33 408 27 415 q 53 415 39 402 m 741 478 q 722 485 728 492 q 722 472 715 478 q 741 478 728 466 m 715 542 q 683 548 689 555 q 689 535 677 542 q 715 542 702 529 m 103 593 q 84 599 91 605 q 84 587 77 593 q 103 593 91 581 m 358 593 q 339 599 345 605 q 339 587 332 593 q 358 593 345 581 m 804 631 q 785 638 792 645 q 785 625 778 631 q 804 631 792 619 m 918 645 q 899 651 906 657 q 899 638 893 645 q 918 645 906 631 m 612 684 q 593 690 600 696 q 593 677 587 684 q 612 684 600 670 m 204 709 q 173 715 180 721 q 179 703 166 709 q 204 709 192 696 m 230 722 q 198 728 204 734 q 230 722 192 722 m 561 759 q 542 765 549 772 q 542 753 536 759 q 561 759 549 747 m 918 759 q 899 765 906 772 q 899 753 893 759 q 918 759 906 747 m 268 835 q 250 842 256 849 q 250 829 244 835 q 268 835 256 823 m 753 938 q 734 944 740 950 q 734 931 728 938 q 753 938 740 924 m 792 950 q 772 956 778 962 q 772 944 766 950 q 792 950 778 938 m 434 1065 q 402 1071 409 1078 q 409 1059 396 1065 q 434 1065 421 1052 m 460 1078 q 428 1084 434 1090 q 460 1078 422 1078 m 536 1078 q 479 1084 485 1090 q 498 1071 473 1078 q 536 1078 523 1065 "},"=":{"x_min":27.3125,"x_max":463.125,"ha":490,"o":"m 463 637 l 375 637 l 366 628 l 427 610 l 453 585 l 445 585 l 419 594 l 409 585 l 436 566 l 419 558 l 358 576 l 305 558 l 401 541 l 226 541 l 114 558 l 139 566 l 114 576 l 148 585 l 43 610 l 53 619 l 43 628 l 61 646 l 43 654 l 78 671 l 35 681 l 104 706 l 61 724 l 87 732 l 53 740 l 122 749 l 114 758 l 315 758 l 419 740 l 419 724 l 366 706 l 427 697 l 409 681 l 436 671 l 436 654 l 419 646 l 463 637 m 436 333 l 427 333 l 419 323 l 427 315 l 366 289 l 384 280 l 384 262 l 401 262 l 392 262 l 375 272 l 366 262 l 358 280 l 130 228 l 96 236 l 70 228 l 78 228 l 87 236 l 53 245 l 96 262 l 53 280 l 27 272 l 43 272 l 87 289 l 70 297 l 78 305 l 35 333 l 87 315 l 87 341 l 53 349 l 43 384 l 96 392 l 43 410 l 157 419 l 87 427 l 122 436 l 87 449 l 297 449 l 305 445 l 340 453 l 375 445 l 315 427 l 375 410 l 409 419 l 419 410 l 392 392 l 427 384 l 409 376 l 427 366 l 409 349 l 436 341 l 436 333 m 401 349 l 384 349 l 375 341 l 409 333 l 419 341 l 401 349 m 366 219 l 358 219 l 305 245 l 332 245 l 349 236 l 349 218 l 366 219 m 289 436 l 234 436 l 226 427 l 289 419 l 297 427 l 289 436 m 262 593 l 217 593 l 209 585 l 262 576 l 271 585 l 262 593 m 244 272 l 226 272 l 217 262 l 244 254 l 253 262 l 244 272 m 209 262 l 191 262 l 183 254 l 209 245 l 217 254 l 209 262 m 201 594 l 183 594 l 173 602 l 165 576 l 201 576 l 209 585 l 201 594 m 173 254 l 165 254 l 157 245 l 183 236 l 191 245 l 173 254 m 157 602 l 148 602 l 139 594 l 157 585 l 165 594 l 157 602 m 148 246 l 130 246 l 122 236 l 148 228 l 157 236 l 148 246 m 104 254 l 87 254 l 78 245 l 104 236 l 114 245 l 104 254 "},"N":{"x_min":27,"x_max":1202,"ha":1229,"o":"m 175 -174 l 152 -163 l 152 -129 l 129 -129 l 129 -95 l 107 -95 l 107 -38 l 50 -38 l 50 752 l 27 538 l 45 526 l 45 842 l 39 898 l 39 854 l 55 842 l 67 1023 l 67 865 l 95 1057 l 118 1023 l 129 1068 l 141 1034 l 152 1079 l 162 1045 l 175 1057 l 186 1034 l 197 1102 l 209 1023 l 219 1057 l 230 1034 l 259 1079 l 259 932 l 276 966 q 304 842 276 898 q 354 729 331 786 l 365 752 l 389 685 l 422 685 l 422 718 q 513 520 457 617 q 627 335 569 424 l 648 356 l 627 402 l 627 390 q 693 295 648 335 q 796 233 739 256 q 835 351 829 288 q 840 481 840 413 l 705 966 l 715 955 l 728 1011 l 739 1000 l 749 1057 l 762 1045 l 773 1068 l 783 1057 l 796 1125 l 806 1112 l 817 1159 l 851 1125 l 864 1146 l 885 1125 l 897 1159 l 909 1159 l 930 1135 l 942 1159 l 1010 1034 l 1054 1011 q 1157 802 1112 909 q 1202 572 1202 695 q 1157 266 1180 424 q 1078 -38 1133 108 q 936 -90 1021 -90 q 773 -90 851 -90 q 564 14 660 -57 q 378 176 467 86 l 365 154 l 389 -4 l 371 -4 q 371 193 371 97 q 321 368 371 288 l 310 288 l 354 -140 l 344 -140 l 344 -83 l 321 -83 l 321 -61 l 298 -61 l 287 -72 l 298 -95 l 276 -95 l 276 -129 l 287 -174 l 276 -174 l 264 -116 l 253 -150 l 175 -174 m 197 -129 l 186 -116 l 175 -129 l 186 -140 l 197 -129 m 197 -105 l 197 -95 l 186 -83 l 175 -105 l 186 -116 l 197 -105 m 50 -72 l 50 74 l 27 322 l 27 199 l 60 -72 l 50 -72 m 987 -72 l 953 -61 l 942 -72 l 976 -83 l 987 -72 m 773 -61 l 749 -48 l 739 -61 l 762 -72 l 773 -61 m 1021 -48 l 1021 -14 l 1010 -4 l 976 -38 l 1021 -48 m 1054 -38 l 1111 86 l 1099 97 l 1054 19 l 1031 19 l 1021 -27 l 1054 -38 m 694 -27 l 681 -14 l 671 -27 l 681 -38 l 694 -27 m 671 -14 l 660 -4 l 648 -14 l 660 -27 l 671 -14 m 648 -4 l 637 6 l 627 -4 l 637 -14 l 648 -4 m 627 6 l 614 19 l 603 6 l 614 -4 l 627 6 m 95 19 l 95 108 l 84 120 l 73 19 l 84 6 l 95 19 m 580 29 l 569 40 l 559 29 l 569 19 l 580 29 m 1031 29 l 1021 40 l 1010 29 l 1021 19 l 1031 29 m 559 40 l 546 52 l 535 40 l 546 29 l 559 40 m 118 63 l 118 74 l 107 86 l 95 63 l 107 52 l 118 63 m 535 74 l 525 86 l 512 74 l 525 63 l 535 74 m 478 97 l 467 108 l 457 97 l 467 86 l 478 97 m 512 97 l 501 108 l 491 97 l 501 86 l 512 97 m 648 108 l 637 120 l 627 108 l 637 97 l 648 108 m 1111 108 l 1133 188 l 1122 199 l 1088 108 l 1099 97 l 1111 108 m 457 120 l 457 131 l 378 256 l 365 188 l 446 108 l 457 120 m 84 131 l 84 222 l 73 233 l 60 131 l 73 120 l 84 131 m 107 176 l 107 188 l 95 199 l 84 176 l 95 165 l 107 176 m 783 188 l 773 199 l 762 188 l 773 176 l 783 188 m 694 210 l 681 222 l 671 210 l 681 199 l 694 210 m 773 210 l 762 222 l 749 210 l 762 199 l 773 210 m 422 222 l 412 233 l 399 222 l 412 210 l 422 222 m 749 222 l 739 233 l 728 222 l 739 210 l 749 222 m 671 233 l 660 244 l 648 233 l 660 222 l 671 233 m 841 233 l 841 244 l 829 256 l 817 233 l 829 222 l 841 233 m 73 244 l 73 368 l 55 379 l 55 244 l 60 233 l 73 244 m 412 244 l 399 256 l 389 244 l 399 233 l 412 244 m 378 267 l 378 278 l 365 288 l 354 267 l 365 256 l 378 267 m 681 288 l 681 301 l 648 335 l 637 311 l 671 278 l 681 288 m 378 301 l 365 311 l 354 301 l 365 288 l 378 301 m 864 301 l 851 311 l 841 301 l 851 288 l 864 301 m 95 322 l 95 335 l 84 345 l 73 322 l 84 311 l 95 322 m 603 335 l 593 345 l 580 335 l 593 322 l 603 335 m 354 345 l 344 356 l 331 345 l 344 335 l 354 345 m 885 368 l 885 379 l 874 390 l 864 368 l 874 356 l 885 368 m 546 379 l 535 390 l 525 379 l 535 368 l 546 379 m 60 390 l 60 515 l 45 526 l 45 390 l 50 379 l 60 390 m 535 402 l 525 413 l 512 402 l 525 390 l 535 402 m 1156 402 l 1156 436 l 1167 504 l 1156 515 l 1133 402 l 1145 390 l 1156 402 m 84 447 l 84 504 l 73 515 l 60 447 l 73 436 l 84 447 m 863 458 l 863 515 l 715 955 l 705 909 q 784 678 762 797 q 851 447 806 560 l 863 458 m 107 481 l 95 492 l 84 481 l 95 470 l 107 481 m 478 526 l 467 538 l 457 526 l 467 515 l 478 526 m 864 560 l 864 572 l 851 583 l 841 560 l 851 549 l 864 560 m 73 583 l 73 774 l 55 786 l 55 583 l 60 572 l 73 583 m 851 606 l 851 617 l 841 628 l 829 606 l 841 594 l 851 606 m 864 640 l 851 651 l 841 640 l 851 628 l 864 640 m 841 651 l 841 674 l 829 685 l 817 651 l 829 640 l 841 651 m 399 661 l 389 674 l 378 661 l 389 651 l 399 661 m 1156 661 l 1145 674 l 1133 661 l 1145 651 l 1156 661 m 389 685 l 378 695 l 365 685 l 378 674 l 389 685 m 829 695 l 829 718 l 817 729 l 806 695 l 817 685 l 829 695 m 95 752 l 84 763 l 73 752 l 84 740 l 95 752 m 796 820 l 783 831 l 773 820 l 783 808 l 796 820 m 806 854 l 796 865 l 783 854 l 796 842 l 806 854 m 783 888 l 773 898 l 762 888 l 773 875 l 783 888 m 762 932 l 749 943 l 739 932 l 749 922 l 762 932 m 749 955 l 749 977 l 739 989 l 728 955 l 739 943 l 749 955 m 129 966 l 129 1000 l 118 1011 l 107 966 l 118 955 l 129 966 m 773 1000 l 773 1034 l 762 1045 l 749 1000 l 762 989 l 773 1000 m 197 1011 l 197 1023 l 186 1034 l 175 1011 l 186 1000 l 197 1011 m 829 1057 l 817 1068 l 806 1057 l 817 1045 l 829 1057 m 864 1068 l 864 1091 l 841 1112 l 829 1079 l 851 1057 l 864 1068 m 909 1079 l 909 1091 l 874 1135 l 864 1102 l 897 1068 l 909 1079 "},"ú":{"x_min":0,"x_max":0,"ha":694},"2":{"x_min":27.3125,"x_max":828.921875,"ha":856,"o":"m 171 -172 l 171 -163 l 179 -141 l 91 -141 l 91 -132 l 107 -108 l 43 -85 l 35 -60 l 43 -44 l 27 -13 l 35 -5 l 27 11 q 170 240 99 122 q 309 470 241 359 q 444 705 377 582 q 544 955 511 827 l 472 979 q 423 967 447 971 q 376 955 400 963 q 337 931 353 947 q 296 899 321 915 l 282 907 q 249 876 266 891 q 225 839 233 860 q 210 803 218 819 q 202 765 202 788 l 194 788 l 179 740 l 179 749 l 185 771 l 179 779 l 171 765 l 155 765 l 155 749 l 138 749 l 130 724 l 130 757 l 107 757 l 99 732 l 99 749 l 130 891 l 124 899 l 75 771 l 75 779 l 99 883 l 91 891 l 68 844 l 68 852 l 194 1042 l 282 1105 l 266 1114 q 333 1150 297 1138 q 404 1169 369 1161 q 480 1178 440 1178 q 558 1178 519 1178 q 611 1157 583 1169 q 662 1133 638 1145 q 705 1102 686 1122 q 750 1058 725 1082 q 765 1026 758 1042 q 776 995 772 1010 q 781 959 781 979 q 781 924 781 938 q 701 697 741 812 q 594 479 661 582 q 468 269 528 376 q 344 58 408 161 q 460 58 400 58 q 579 58 520 58 q 694 58 639 58 q 797 25 750 58 l 758 17 l 814 11 l 678 -9 l 828 -9 l 750 -35 l 814 -44 l 814 -52 l 797 -68 l 814 -76 l 741 -85 l 781 -91 l 758 -100 l 772 -108 l 702 -116 l 797 -137 l 179 -137 l 171 -168 l 742 -168 l 171 -172 m 163 -132 l 107 -124 l 99 -132 l 155 -141 l 163 -132 m 130 -108 l 124 -100 l 115 -108 l 124 -116 l 130 -108 m 83 -76 l 51 -68 l 43 -76 l 75 -85 l 83 -76 m 59 -52 l 51 -44 l 43 -52 l 51 -60 l 59 -52 m 68 -44 l 59 -35 l 51 -44 l 68 -44 m 59 -29 l 43 -21 l 35 -29 l 51 -35 l 59 -29 m 43 -13 l 35 -5 l 27 -13 l 35 -21 l 43 -13 m 68 -13 l 75 -5 l 59 3 l 51 -5 l 68 -13 m 91 -5 l 83 3 l 75 -5 l 91 -5 m 43 11 l 35 17 l 27 11 l 35 3 l 43 11 m 51 25 l 43 34 l 35 17 l 51 25 m 75 25 l 68 34 l 59 25 l 68 17 l 75 25 m 91 25 l 91 34 l 83 42 l 75 34 l 91 25 m 59 34 l 51 42 l 43 34 l 59 34 m 68 42 l 68 50 l 59 58 l 51 42 l 68 42 m 99 42 l 99 50 l 91 58 l 83 42 l 91 34 l 99 42 m 75 58 l 68 66 l 59 58 l 68 50 l 75 58 m 107 58 l 138 114 l 130 122 l 91 58 l 99 50 l 107 58 m 83 73 l 75 81 l 68 73 l 75 66 l 83 73 m 338 81 l 330 89 l 321 81 l 330 73 l 338 81 m 91 89 l 83 97 l 75 89 l 83 81 l 91 89 m 107 97 l 99 106 l 91 97 l 99 89 l 107 97 m 107 114 l 107 122 l 99 128 l 91 114 l 99 106 l 107 114 m 147 122 l 218 232 l 210 240 l 130 122 l 138 114 l 147 122 m 115 128 l 107 137 l 99 128 l 107 122 l 115 128 m 124 137 l 124 145 l 115 153 l 107 137 l 124 137 m 377 145 l 369 153 l 361 145 l 369 137 l 377 145 m 130 153 l 124 161 l 115 153 l 124 145 l 130 153 m 385 161 l 377 170 l 369 161 l 377 153 l 385 161 m 138 170 l 130 177 l 124 170 l 130 161 l 138 170 m 394 170 l 394 177 l 385 184 l 377 170 l 394 170 m 147 177 l 147 184 l 138 192 l 130 177 l 147 177 m 400 184 l 394 192 l 385 184 l 394 177 l 400 184 m 155 192 l 147 200 l 138 192 l 147 184 l 155 192 m 163 200 l 163 208 l 155 217 l 147 200 l 163 200 m 417 200 l 417 208 l 408 217 l 394 192 l 417 200 m 171 217 l 163 225 l 155 217 l 163 208 l 171 217 m 425 217 l 417 225 l 408 217 l 417 208 l 425 217 m 179 225 l 179 232 l 171 240 l 163 225 l 179 225 m 433 232 l 425 240 l 417 232 l 425 225 l 433 232 m 185 240 l 179 248 l 171 240 l 179 232 l 185 240 m 227 240 l 227 248 l 218 256 l 210 240 l 218 232 l 227 240 m 194 248 l 202 265 l 194 273 l 179 248 l 194 248 m 441 248 l 433 256 l 425 248 l 433 240 l 441 248 m 233 256 l 233 265 l 227 273 l 218 256 l 227 248 l 233 256 m 210 273 l 202 281 l 194 273 l 202 265 l 210 273 m 242 273 l 242 281 l 233 288 l 227 273 l 233 265 l 242 273 m 218 288 l 210 296 l 202 288 l 210 281 l 218 288 m 250 288 l 250 296 l 242 304 l 233 288 l 242 281 l 250 288 m 227 304 l 218 312 l 210 304 l 218 296 l 227 304 m 258 304 l 274 336 l 266 343 l 242 304 l 250 296 l 258 304 m 472 304 l 464 312 l 456 304 l 464 296 l 472 304 m 233 320 l 227 328 l 218 320 l 227 312 l 233 320 m 480 320 l 472 328 l 464 320 l 472 312 l 480 320 m 288 328 l 282 336 l 274 328 l 282 320 l 288 328 m 242 336 l 233 343 l 227 336 l 233 328 l 242 336 m 488 336 l 480 343 l 472 336 l 480 328 l 488 336 m 258 343 l 250 351 l 242 343 l 250 336 l 258 343 m 282 343 l 296 376 l 288 384 l 266 343 l 274 336 l 282 343 m 497 343 l 497 351 l 488 359 l 480 343 l 497 343 m 258 359 l 258 368 l 250 376 l 242 359 l 250 351 l 258 359 m 503 359 l 497 368 l 488 359 l 497 351 l 503 359 m 266 376 l 258 384 l 250 376 l 258 368 l 266 376 m 512 376 l 503 384 l 497 376 l 503 368 l 512 376 m 305 384 l 321 415 l 313 423 l 288 384 l 296 376 l 305 384 m 520 384 l 520 392 l 512 399 l 503 384 l 520 384 m 274 392 l 266 399 l 258 392 l 266 384 l 274 392 m 282 399 l 282 407 l 274 415 l 266 399 l 282 399 m 528 399 l 520 407 l 512 399 l 520 392 l 528 399 m 288 415 l 282 423 l 274 415 l 282 407 l 288 415 m 536 415 l 528 423 l 520 415 l 528 407 l 536 415 m 330 423 l 344 454 l 338 463 l 313 423 l 321 415 l 330 423 m 544 423 l 544 431 l 536 439 l 528 423 l 544 423 m 296 431 l 288 439 l 282 431 l 288 423 l 296 431 m 305 439 l 305 446 l 296 454 l 288 439 l 305 439 m 552 439 l 544 446 l 536 439 l 544 431 l 552 439 m 313 454 l 305 463 l 296 454 l 305 446 l 313 454 m 558 454 l 552 463 l 544 454 l 552 446 l 558 454 m 353 463 l 369 495 l 361 502 l 338 463 l 344 454 l 353 463 m 567 463 l 567 471 l 558 479 l 552 463 l 567 463 m 321 471 l 313 479 l 305 471 l 313 463 l 321 471 m 330 479 l 330 487 l 321 495 l 313 479 l 330 479 m 575 479 l 567 487 l 558 479 l 567 471 l 575 479 m 338 495 l 330 502 l 321 495 l 330 487 l 338 495 m 583 495 l 575 502 l 567 495 l 575 487 l 583 495 m 377 502 l 394 534 l 385 543 l 361 502 l 369 495 l 377 502 m 592 502 l 592 510 l 583 518 l 575 502 l 592 502 m 344 510 l 338 518 l 330 510 l 338 502 l 344 510 m 353 518 l 353 526 l 344 534 l 338 518 l 353 518 m 600 518 l 592 526 l 583 518 l 592 510 l 600 518 m 361 534 l 353 543 l 344 534 l 353 526 l 361 534 m 608 534 l 600 543 l 592 534 l 600 526 l 608 534 m 400 543 l 417 574 l 408 582 l 385 543 l 394 534 l 400 543 m 615 543 l 615 551 l 608 557 l 600 543 l 615 543 m 369 551 l 361 557 l 353 551 l 361 543 l 369 551 m 377 557 l 377 566 l 369 574 l 361 557 l 377 557 m 623 557 l 615 566 l 608 557 l 615 551 l 623 557 m 385 574 l 377 582 l 369 574 l 377 566 l 385 574 m 631 574 l 623 582 l 615 574 l 623 566 l 631 574 m 425 582 l 425 590 l 417 598 l 408 582 l 417 574 l 425 582 m 394 590 l 385 598 l 377 590 l 385 582 l 394 590 m 639 590 l 631 598 l 623 590 l 631 582 l 639 590 m 400 598 l 400 605 l 394 613 l 385 598 l 400 598 m 433 598 l 447 629 l 441 638 l 417 598 l 425 590 l 433 598 m 647 598 l 639 605 l 631 598 l 647 598 m 408 613 l 400 621 l 394 613 l 400 605 l 408 613 m 655 613 l 647 621 l 639 613 l 647 605 l 655 613 m 417 629 l 408 638 l 400 629 l 408 621 l 417 629 m 661 629 l 655 638 l 647 629 l 655 621 l 661 629 m 433 638 l 425 646 l 417 638 l 425 629 l 433 638 m 456 638 l 472 669 l 464 677 l 441 638 l 447 629 l 456 638 m 670 638 l 670 646 l 661 654 l 655 638 l 670 638 m 433 654 l 433 661 l 425 669 l 417 654 l 425 646 l 433 654 m 678 654 l 670 661 l 661 654 l 670 646 l 678 654 m 441 669 l 433 677 l 425 669 l 433 661 l 441 669 m 480 677 l 480 685 l 472 693 l 464 677 l 472 669 l 480 677 m 447 685 l 441 693 l 433 685 l 441 677 l 447 685 m 456 693 l 456 701 l 447 709 l 441 693 l 456 693 m 488 693 l 488 701 l 480 709 l 472 693 l 480 685 l 488 693 m 464 709 l 456 716 l 447 709 l 456 701 l 464 709 m 497 709 l 497 716 l 488 724 l 480 709 l 488 701 l 497 709 m 472 724 l 464 732 l 456 724 l 464 716 l 472 724 m 488 732 l 480 740 l 472 732 l 480 724 l 488 732 m 497 749 l 488 757 l 480 749 l 488 740 l 497 749 m 528 765 l 520 771 l 512 765 l 520 757 l 528 765 m 503 771 l 503 779 l 497 788 l 488 771 l 497 765 l 503 771 m 725 771 l 717 779 l 710 771 l 717 765 l 725 771 m 194 796 l 194 812 l 185 819 l 179 796 l 185 788 l 194 796 m 512 796 l 512 804 l 503 812 l 497 796 l 503 788 l 512 796 m 520 812 l 520 819 l 512 827 l 503 812 l 512 804 l 520 812 m 536 812 l 536 819 l 528 827 l 520 819 l 536 812 m 210 819 l 202 827 l 194 819 l 202 812 l 210 819 m 218 835 l 210 844 l 202 835 l 210 827 l 218 835 m 528 835 l 520 844 l 512 827 l 520 819 l 528 835 m 227 852 l 218 860 l 210 844 l 227 852 m 536 852 l 528 860 l 520 852 l 528 844 l 536 852 m 717 852 l 710 860 l 702 852 l 710 844 l 717 852 m 147 868 l 147 883 l 138 891 l 130 868 l 138 860 l 147 868 m 544 868 l 544 875 l 536 883 l 528 868 l 536 860 l 544 868 m 242 875 l 233 883 l 227 868 l 233 860 l 242 875 m 250 883 l 242 891 l 233 883 l 250 883 m 575 883 l 575 915 l 567 924 l 558 883 l 567 875 l 575 883 m 155 891 l 155 899 l 147 907 l 138 891 l 147 883 l 155 891 m 258 891 l 250 899 l 242 891 l 258 891 m 233 899 l 227 907 l 218 899 l 227 891 l 233 899 m 266 899 l 266 907 l 258 915 l 250 899 l 266 899 m 552 899 l 552 907 l 544 915 l 536 899 l 544 891 l 552 899 m 138 907 l 130 915 l 124 899 l 130 891 l 138 907 m 163 907 l 155 915 l 147 907 l 155 899 l 163 907 m 147 915 l 138 924 l 130 915 l 147 915 m 274 915 l 266 924 l 258 915 l 266 907 l 274 915 m 155 924 l 147 930 l 138 924 l 155 924 m 305 924 l 288 930 l 282 924 l 305 924 m 179 930 l 171 938 l 163 930 l 179 930 m 258 930 l 250 938 l 242 930 l 250 924 l 258 930 m 163 938 l 155 947 l 147 930 l 163 938 m 330 938 l 313 947 l 296 930 l 330 938 m 171 947 l 163 955 l 155 947 l 171 947 m 338 947 l 330 955 l 321 947 l 338 947 m 179 954 l 171 963 l 163 954 l 179 954 m 353 955 l 361 963 l 344 971 l 330 955 l 353 955 m 567 955 l 558 963 l 552 955 l 558 947 l 567 955 m 274 963 l 266 971 l 258 963 l 266 955 l 274 963 m 544 963 l 536 971 l 528 963 l 536 955 l 544 963 m 725 963 l 717 971 l 710 963 l 717 955 l 725 963 m 218 971 l 210 979 l 202 971 l 210 963 l 218 971 m 227 979 l 218 986 l 210 979 l 227 979 m 385 979 l 369 986 l 361 979 l 377 971 l 385 979 m 305 986 l 296 994 l 288 986 l 296 979 l 305 986 m 472 994 l 417 1002 l 377 986 l 472 994 m 758 994 l 758 1011 l 750 1019 l 741 994 l 750 986 l 758 994 m 717 1011 l 710 1019 l 702 1011 l 710 1002 l 717 1011 m 218 1019 l 210 1027 l 202 1019 l 210 1011 l 218 1019 m 750 1034 l 750 1042 l 741 1050 l 733 1034 l 741 1027 l 750 1034 m 717 1042 l 710 1050 l 702 1042 l 710 1034 l 717 1042 m 233 1050 l 227 1058 l 218 1050 l 227 1042 l 233 1050 m 725 1058 l 717 1066 l 710 1058 l 717 1050 l 725 1058 m 305 1066 l 296 1074 l 288 1066 l 296 1058 l 305 1066 m 710 1066 l 694 1082 l 686 1058 l 702 1058 l 710 1066 m 678 1082 l 670 1089 l 661 1082 l 670 1074 l 678 1082 m 288 1089 l 282 1097 l 274 1089 l 282 1082 l 288 1089 m 338 1089 l 330 1097 l 321 1089 l 330 1082 l 338 1089 m 408 1089 l 400 1097 l 394 1089 l 400 1082 l 408 1089 m 661 1089 l 655 1097 l 647 1089 l 655 1082 l 661 1089 m 313 1097 l 305 1105 l 296 1097 l 305 1089 l 313 1097 m 338 1105 l 321 1114 l 313 1105 l 330 1097 l 338 1105 m 631 1105 l 623 1114 l 615 1105 l 623 1097 l 631 1105 m 296 1114 l 282 1122 l 274 1114 l 288 1105 l 296 1114 m 361 1114 l 353 1122 l 344 1114 l 353 1105 l 361 1114 m 558 1114 l 552 1122 l 544 1114 l 552 1105 l 558 1114 m 313 1130 l 296 1138 l 288 1130 l 305 1122 l 313 1130 m 623 1138 l 615 1145 l 608 1138 l 615 1130 l 623 1138 m 567 1153 l 558 1161 l 552 1153 l 558 1145 l 567 1153 m 592 1153 l 583 1161 l 575 1153 l 583 1145 l 592 1153 m 528 1166 l 408 1166 l 305 1138 l 528 1166 m 575 1161 l 567 1170 l 558 1161 l 575 1161 "},"ü":{"x_min":0,"x_max":0,"ha":694},"¯":{"x_min":0,"x_max":0,"ha":694},"Z":{"x_min":26.796875,"x_max":1320.734375,"ha":1348,"o":"m 181 -184 l 253 -112 l 240 -100 l 181 -112 l 193 -100 l 157 -89 l 133 -100 l 193 -52 l 168 -41 l 145 -52 l 133 -41 l 110 -52 l 145 -29 l 98 -17 l 133 -5 l 157 52 l 110 65 l 86 52 l 98 65 l 73 77 l 121 113 l 145 148 l 703 790 l 490 812 l 371 790 l 395 790 l 406 802 l 348 812 l 205 777 l 110 812 l 86 802 l 86 825 l 63 825 l 39 812 l 39 825 l 63 837 l 51 849 l 73 860 l 39 872 l 26 860 l 63 872 l 63 907 l 26 920 q 74 955 51 944 q 133 967 98 967 q 192 979 168 967 q 253 991 216 991 l 253 1027 l 228 1027 l 121 1003 l 157 1003 q 359 1044 253 1027 q 560 1086 465 1062 q 763 1098 655 1109 q 976 1115 870 1087 l 513 1133 l 1096 1133 l 1096 1134 l 1083 1109 l 1096 1075 l 1203 1075 l 1203 1062 l 1178 1027 l 1226 1015 l 1226 1003 l 1190 897 l 1226 897 l 1226 884 q 1167 789 1202 837 q 1101 700 1131 742 q 1030 617 1071 659 q 953 527 988 575 l 928 527 l 893 445 l 680 219 l 786 207 l 1119 243 l 1166 232 l 1203 243 l 1178 243 l 1166 232 l 1178 219 l 1131 207 l 1166 184 l 1203 195 l 1203 184 l 1155 173 l 1273 160 l 1308 173 l 1297 173 l 1238 148 l 1285 137 l 1213 113 l 1297 100 l 1320 113 l 1308 113 l 1213 77 l 1250 65 l 1297 77 l 1238 65 l 1238 30 l 1261 30 l 1308 42 l 1273 42 l 1261 30 l 1308 17 l 1238 -5 l 1297 -17 l 1320 -5 l 1308 -5 l 1238 -29 l 1250 -41 l 1190 -64 l 1213 -76 l 1178 -89 l 1226 -112 l 1261 -100 l 1238 -100 q 1036 -142 1143 -142 q 822 -157 928 -142 q 602 -172 715 -172 q 383 -172 490 -172 l 301 -159 l 181 -184 m 240 -159 l 228 -147 l 216 -159 l 228 -172 l 240 -159 m 253 -147 l 240 -136 l 228 -147 l 253 -147 m 442 -154 l 371 -136 l 371 -172 l 775 -172 l 786 -154 l 442 -154 m 276 -136 l 264 -124 l 253 -136 l 264 -147 l 276 -136 m 371 -124 l 358 -112 l 348 -124 l 358 -136 l 371 -124 m 870 -124 l 845 -112 l 833 -124 l 858 -136 l 870 -124 m 478 -112 l 442 -100 l 430 -112 l 465 -124 l 478 -112 m 965 -112 l 941 -100 l 928 -112 l 953 -124 l 965 -112 m 383 -100 l 371 -89 l 358 -100 l 371 -112 l 383 -100 m 881 -100 l 858 -89 l 845 -100 l 870 -112 l 881 -100 m 1166 -100 l 1143 -89 l 1131 -100 l 1155 -112 l 1166 -100 m 976 -89 l 953 -76 l 941 -89 l 965 -100 l 976 -89 m 1178 -76 l 1155 -64 l 1143 -76 l 1166 -89 l 1178 -76 m 216 -64 l 205 -52 l 193 -64 l 205 -76 l 216 -64 m 157 -17 l 145 -5 l 133 -17 l 145 -29 l 157 -17 m 157 5 l 145 17 l 133 5 l 145 -5 l 157 5 m 121 77 l 110 89 l 98 77 l 110 65 l 121 77 m 145 100 l 133 113 l 121 100 l 133 89 l 145 100 m 193 100 l 181 113 l 168 100 l 181 89 l 193 100 m 537 100 l 525 113 l 513 100 l 525 89 l 537 100 m 181 125 l 168 137 l 157 125 l 168 113 l 181 125 m 1238 137 l 1178 148 l 1166 137 l 1226 125 l 1238 137 m 240 173 l 228 184 l 216 173 l 228 160 l 240 173 m 632 173 l 585 184 l 573 173 l 620 160 l 632 173 m 810 178 l 655 178 l 643 166 l 798 166 l 810 178 m 253 184 l 240 195 l 228 184 l 253 184 m 905 184 l 845 195 l 833 184 l 893 173 l 905 184 m 1108 201 l 941 201 l 928 190 l 1096 190 l 1108 201 m 289 207 l 289 232 l 276 243 l 253 219 l 289 207 m 667 219 l 1155 790 l 1131 802 l 870 493 l 845 493 l 822 433 l 620 219 l 655 207 l 667 219 m 311 232 l 301 243 l 289 232 l 301 219 l 311 232 m 323 243 l 311 255 l 301 243 l 323 243 m 323 267 l 311 280 l 301 267 l 311 255 l 323 267 m 336 280 l 358 315 l 348 327 l 311 280 l 336 280 m 371 327 l 358 338 l 348 327 l 358 315 l 371 327 m 383 338 l 371 350 l 358 338 l 383 338 m 395 350 l 383 362 l 371 350 l 395 350 m 406 362 l 395 375 l 383 362 l 406 362 m 418 375 l 442 410 l 430 422 l 395 375 l 418 375 m 560 398 l 548 410 l 537 398 l 548 385 l 560 398 m 573 410 l 560 422 l 548 410 l 573 410 m 453 422 l 442 433 l 430 422 l 442 410 l 453 422 m 465 433 l 453 445 l 442 433 l 465 433 m 478 445 l 465 457 l 453 445 l 478 445 m 490 457 l 478 470 l 465 457 l 490 457 m 501 470 l 490 480 l 478 470 l 501 470 m 513 480 l 501 493 l 490 480 l 513 480 m 525 493 l 548 527 l 537 540 l 501 493 l 525 493 m 560 540 l 548 552 l 537 540 l 548 527 l 560 540 m 573 552 l 560 565 l 548 552 l 573 552 m 585 565 l 573 575 l 560 565 l 585 565 m 596 575 l 620 611 l 608 622 l 573 575 l 596 575 m 928 599 l 917 611 l 905 599 l 917 587 l 928 599 m 893 611 l 881 622 l 870 611 l 881 599 l 893 611 m 941 611 l 928 622 l 917 611 l 941 611 m 632 622 l 620 634 l 608 622 l 620 611 l 632 622 m 905 622 l 893 634 l 881 622 l 905 622 m 917 634 l 905 647 l 893 634 l 917 634 m 643 647 l 620 659 l 608 647 l 632 634 l 643 647 m 655 659 l 643 670 l 632 659 l 655 659 m 691 659 l 691 682 l 727 741 l 715 754 l 655 670 l 691 659 m 845 729 l 833 741 l 822 729 l 833 717 l 845 729 m 750 741 l 738 754 l 727 741 l 738 729 l 750 741 m 858 741 l 845 754 l 833 741 l 858 741 m 763 754 l 750 765 l 738 754 l 763 754 m 870 754 l 858 765 l 845 754 l 870 754 m 775 765 l 763 777 l 750 765 l 775 765 m 786 777 l 775 790 l 763 777 l 786 777 m 216 790 l 205 802 l 193 790 l 205 777 l 216 790 m 145 812 l 133 825 l 121 812 l 133 802 l 145 812 m 453 812 l 430 825 l 418 812 l 442 802 l 453 812 m 1119 812 l 1108 825 l 1096 812 l 1108 802 l 1119 812 m 525 825 l 501 837 l 490 825 l 513 812 l 525 825 m 406 837 l 395 849 l 383 837 l 395 825 l 406 837 m 1131 837 l 1119 849 l 1108 837 l 1119 825 l 1131 837 m 1155 884 l 1143 897 l 1131 884 l 1143 872 l 1155 884 m 86 907 l 63 920 l 51 907 l 73 897 l 86 907 m 110 920 l 86 932 l 73 920 l 110 920 m 1166 954 l 1143 967 l 1131 954 l 1155 944 l 1166 954 m 1166 991 l 1155 1003 l 1143 991 l 1155 979 l 1166 991 m 336 1015 l 289 1027 l 276 1015 l 323 1003 l 336 1015 m 395 1027 l 371 1039 l 358 1027 l 383 1015 l 395 1027 m 1155 1027 l 1096 1039 l 1083 1027 l 1143 1015 l 1155 1027 m 585 1045 l 442 1045 l 430 1039 l 573 1027 l 585 1045 m 1166 1050 l 1108 1062 l 1096 1050 l 1155 1039 l 1166 1050 m 1000 1109 l 988 1121 l 976 1109 l 988 1097 l 1000 1109 m 1013 1134 l 1000 1145 l 988 1134 l 1000 1121 l 1013 1134 "},"u":{"x_min":27,"x_max":1213.84375,"ha":1241,"o":"m 1001 -185 l 1001 -176 l 980 -124 l 960 -145 l 971 -155 l 940 -63 l 879 -33 q 783 -89 839 -83 q 671 -114 727 -94 q 560 -145 616 -135 q 443 -145 505 -155 l 453 -145 l 464 -135 l 321 -63 q 357 -84 342 -74 q 393 -99 373 -94 q 433 -104 412 -104 q 473 -104 453 -104 l 484 -94 l 393 -74 l 403 -63 l 180 68 l 190 77 l 149 109 l 160 118 q 108 225 129 169 q 73 336 88 280 q 52 453 58 392 q 27 575 47 514 l 27 554 l 37 544 q 52 666 47 605 q 68 782 58 727 q 89 894 78 838 q 120 1010 99 949 l 120 999 l 109 949 l 120 940 l 180 1113 l 190 1101 l 201 1122 l 201 1113 l 190 1092 l 201 1081 l 220 1132 l 220 1113 l 240 1113 l 271 1163 l 281 1163 l 291 1113 l 281 1092 l 301 1051 l 321 1092 l 332 1092 l 281 960 l 291 940 l 260 655 l 271 645 q 281 686 281 666 q 281 727 281 706 q 296 762 281 747 q 296 797 312 777 l 296 767 l 296 625 l 362 412 l 353 401 l 382 382 l 373 371 l 484 290 l 505 301 l 555 290 l 575 311 l 555 322 l 566 322 l 616 311 l 707 362 l 697 382 l 747 412 l 788 462 l 779 473 l 799 503 l 788 514 q 804 594 799 554 q 804 675 809 634 q 808 757 799 716 q 829 838 818 797 l 818 847 l 809 807 l 809 838 l 818 847 l 809 899 l 859 1020 l 839 990 l 849 980 l 899 1020 l 930 1092 l 940 1071 l 980 1081 l 1001 1132 l 1010 1122 l 1042 1142 l 1031 1142 l 1021 1132 l 1071 1122 l 1051 1113 l 1062 1101 l 1051 1092 l 1071 1081 l 1082 1061 l 1123 1101 l 1144 1010 l 1159 1031 l 1159 736 l 1144 595 l 1213 -63 l 1203 -54 l 1193 -83 l 1203 -94 l 1174 27 l 1164 -2 l 1174 -13 l 1153 -13 l 1153 -33 l 1164 -145 l 1164 -114 l 1112 -94 l 1092 -135 l 1102 -145 l 1092 -155 l 1082 -124 l 1062 -124 l 1051 -135 l 1062 -145 l 1031 -114 l 1021 -176 l 1010 -145 l 1001 -185 m 605 -124 l 575 -114 l 566 -124 l 595 -135 l 605 -124 m 1051 -114 l 1042 -104 l 1031 -114 l 1042 -124 l 1051 -114 m 960 -94 l 950 -83 l 940 -94 l 950 -104 l 960 -94 m 1082 -94 l 1071 -83 l 1062 -94 l 1071 -104 l 1082 -94 m 1051 -83 l 1042 -74 l 1031 -83 l 1042 -94 l 1051 -83 m 1132 -83 l 1123 -74 l 1112 -83 l 1123 -94 l 1132 -83 m 443 -74 l 412 -63 l 403 -74 l 433 -83 l 443 -74 m 484 -74 l 473 -63 l 464 -74 l 473 -83 l 484 -74 m 657 -74 l 646 -63 l 636 -74 l 646 -83 l 657 -74 m 718 -74 l 707 -63 l 697 -74 l 707 -83 l 718 -74 m 738 -63 l 727 -54 l 718 -63 l 727 -74 l 738 -63 m 940 -54 l 930 -43 l 919 -54 l 930 -63 l 940 -54 m 849 -33 l 829 -23 l 818 -33 l 839 -43 l 849 -33 m 859 -23 l 849 -13 l 839 -23 l 859 -23 m 899 -23 l 890 -13 l 879 -23 l 890 -33 l 899 -23 m 940 -13 l 930 -2 l 919 -13 l 930 -23 l 940 -13 m 869 -2 l 859 7 l 849 -2 l 859 -13 l 869 -2 m 373 16 l 362 27 l 353 16 l 362 7 l 373 16 m 281 37 l 271 48 l 260 37 l 271 27 l 281 37 m 1184 37 l 1184 68 l 1174 77 l 1164 37 l 1174 27 l 1184 37 m 201 68 l 190 77 l 180 68 l 190 57 l 201 68 m 240 68 l 210 88 l 201 77 l 230 57 l 240 68 m 201 98 l 190 109 l 180 98 l 190 88 l 201 98 m 230 109 l 220 118 l 210 109 l 230 109 m 180 118 l 169 129 l 160 118 l 169 109 l 180 118 m 190 129 l 180 138 l 169 129 l 190 129 m 1174 129 l 1174 149 l 1164 158 l 1153 129 l 1164 118 l 1174 129 m 169 149 l 160 158 l 149 149 l 160 138 l 169 149 m 160 169 l 149 179 l 140 169 l 149 158 l 160 169 m 160 199 l 149 209 l 140 199 l 149 190 l 160 199 m 1164 199 l 1164 240 l 1153 249 l 1144 199 l 1153 190 l 1164 199 m 149 220 l 140 229 l 129 220 l 140 209 l 149 220 m 140 240 l 140 249 l 129 260 l 120 240 l 129 229 l 140 240 m 129 270 l 120 281 l 109 270 l 120 260 l 129 270 m 595 281 l 575 290 l 566 281 l 586 270 l 595 281 m 1153 281 l 1153 442 l 1144 453 l 1123 371 l 1144 270 l 1153 281 m 636 290 l 625 301 l 616 290 l 625 281 l 636 290 m 727 322 l 718 331 l 707 322 l 718 311 l 727 322 m 99 331 l 99 341 l 88 351 l 79 331 l 88 322 l 99 331 m 738 331 l 727 341 l 718 331 l 738 331 m 697 341 l 686 351 l 677 341 l 686 331 l 697 341 m 88 362 l 88 371 l 79 382 l 68 351 l 79 341 l 88 362 m 758 362 l 747 371 l 738 362 l 747 351 l 758 362 m 738 371 l 727 382 l 718 371 l 727 362 l 738 371 m 747 392 l 738 401 l 727 392 l 738 382 l 747 392 m 779 392 l 788 412 l 779 421 l 758 401 l 779 392 m 68 421 l 68 432 l 58 442 l 47 421 l 58 412 l 68 421 m 79 462 l 79 482 l 68 493 l 58 462 l 68 453 l 79 462 m 818 473 l 809 482 l 799 473 l 809 462 l 818 473 m 1144 473 l 1144 554 l 1132 564 l 1123 453 l 1132 442 l 1144 473 m 818 493 l 809 503 l 799 493 l 809 482 l 818 493 m 829 514 l 818 523 l 809 514 l 818 503 l 829 514 m 829 544 l 829 564 l 818 575 l 809 544 l 818 534 l 829 544 m 839 575 l 839 666 l 829 675 l 818 575 l 829 564 l 839 575 m 1132 605 l 1123 614 l 1112 605 l 1123 595 l 1132 605 m 68 634 l 68 675 l 58 686 l 47 634 l 58 625 l 68 634 m 1132 645 l 1123 655 l 1112 645 l 1123 634 l 1132 645 m 1132 736 l 1123 747 l 1112 736 l 1123 727 l 1132 736 m 88 747 l 79 757 l 68 747 l 79 736 l 88 747 m 849 757 l 839 767 l 829 757 l 839 747 l 849 757 m 120 818 l 109 827 l 99 818 l 109 807 l 120 818 m 109 838 l 109 868 l 99 879 l 88 827 l 99 818 l 109 838 m 839 858 l 839 888 l 829 899 l 818 858 l 829 847 l 839 858 m 129 879 l 129 899 l 120 909 l 109 879 l 120 868 l 129 879 m 849 899 l 849 929 l 839 940 l 829 899 l 839 888 l 849 899 m 120 919 l 120 929 l 109 940 l 99 909 l 109 899 l 120 919 m 859 940 l 859 960 l 849 970 l 839 940 l 849 929 l 859 940 m 879 980 l 859 990 l 849 980 l 869 970 l 879 980 m 169 1010 l 160 1020 l 149 1010 l 160 999 l 169 1010 m 1112 1040 l 1102 1051 l 1092 1040 l 1102 1031 l 1112 1040 m 950 1051 l 940 1061 l 930 1051 l 940 1040 l 950 1051 m 201 1071 l 190 1081 l 180 1071 l 190 1061 l 201 1071 m 1001 1071 l 1001 1081 l 991 1092 l 980 1071 l 991 1061 l 1001 1071 m 1123 1061 l 1123 1092 l 1092 1092 l 1092 1061 l 1123 1061 m 220 1081 l 210 1092 l 201 1081 l 210 1071 l 220 1081 m 1021 1092 l 1010 1101 l 1001 1092 l 1010 1081 l 1021 1092 m 1042 1101 l 1042 1113 l 1031 1122 l 1021 1101 l 1031 1092 l 1042 1101 "},"˜":{"x_min":27,"x_max":599,"ha":626,"o":"m 369 884 l 256 912 l 246 940 l 216 950 l 188 1017 l 151 1027 l 104 922 l 93 931 l 64 893 l 55 912 l 46 902 l 46 931 l 27 931 l 27 940 l 74 1054 l 64 1065 l 131 1141 l 216 1151 l 284 1103 l 293 1054 l 398 1017 l 447 1103 l 455 1093 l 485 1161 l 494 1122 l 502 1151 l 523 1151 l 523 1169 l 532 1151 l 542 1161 l 571 1113 l 582 1141 l 582 1122 l 571 1113 l 589 1046 l 599 1074 l 599 1054 q 575 1011 589 1035 q 546 964 561 988 q 517 917 532 940 q 474 884 502 893 l 447 884 l 426 893 l 369 884 m 264 931 l 256 940 l 246 931 l 256 922 l 264 931 m 235 959 l 227 970 l 216 959 l 227 950 l 235 959 m 227 978 l 216 988 l 208 978 l 216 970 l 227 978 m 390 1007 l 379 1017 l 369 1007 l 379 998 l 390 1007 m 437 1046 l 426 1054 l 418 1046 l 426 1035 l 437 1046 m 104 1083 l 93 1093 l 83 1083 l 93 1074 l 104 1083 m 112 1103 l 93 1113 l 83 1103 l 104 1093 l 112 1103 m 121 1113 l 112 1122 l 104 1113 l 121 1113 m 532 1132 l 523 1141 l 513 1132 l 523 1122 l 532 1132 "},"Ó":{"x_min":0,"x_max":0,"ha":694},"k":{"x_min":27,"x_max":1258.8125,"ha":1286,"o":"m 220 -173 l 207 -150 l 213 -146 l 186 -82 l 166 -101 l 164 -93 l 174 -82 l 162 -71 l 155 -78 l 128 -14 l 117 -48 l 109 -7 l 117 -14 l 128 -3 l 117 7 l 108 -1 l 107 9 l 117 40 l 105 53 l 101 39 l 97 58 l 117 97 l 128 108 l 128 120 l 117 131 l 112 120 l 43 418 l 50 413 l 61 423 l 61 436 l 50 447 l 40 430 l 33 461 l 37 457 l 61 481 l 35 710 l 37 708 l 50 719 l 50 740 l 37 752 l 32 736 l 27 786 l 61 1058 l 72 1001 l 94 1113 l 105 1102 l 117 1113 l 140 1079 l 157 1125 l 157 978 l 174 1012 l 186 990 l 220 1146 l 231 1046 l 241 1159 l 264 1136 l 274 1146 l 297 1113 l 308 1159 l 321 1069 l 338 1102 l 338 967 l 332 909 l 343 899 l 361 909 l 361 740 l 432 795 l 423 786 l 434 774 l 445 786 l 434 797 l 852 1146 l 794 1079 l 817 1069 l 828 1079 l 830 1077 l 830 1079 l 852 1079 l 842 1089 l 896 1136 l 908 1125 l 941 1146 l 930 1136 l 953 1125 l 964 1136 l 987 1125 l 998 1091 l 1009 1102 l 1021 1091 l 1032 1102 l 1043 1091 l 1055 1102 l 1055 1069 l 1043 1046 l 1055 1035 l 1076 1058 l 1089 1035 l 1066 1035 l 1066 1012 l 1032 990 l 1043 967 l 964 854 l 987 854 l 1032 899 l 1032 888 q 925 791 975 841 q 852 685 874 740 l 852 651 l 919 538 l 927 554 q 1030 371 985 441 q 1096 270 1075 302 l 1089 277 l 1076 256 l 1100 233 l 1111 243 l 1111 247 q 1223 71 1168 159 l 1201 7 l 1212 -37 l 1201 -48 l 1218 -97 l 1178 -48 l 1167 -71 l 1157 -48 l 1144 -95 l 1152 -134 l 1134 -106 l 1123 -129 l 1111 -106 l 1100 -129 l 1089 -106 l 1076 -140 l 1066 -116 l 1055 -150 l 1043 -129 l 1032 -140 l 1032 -106 l 1009 -106 l 941 -3 l 930 -48 q 815 135 876 43 q 885 40 850 86 l 897 53 l 908 40 l 919 53 l 908 63 l 896 86 q 744 295 806 188 q 625 515 682 402 l 603 481 q 701 303 659 368 q 755 220 744 238 q 580 491 659 356 l 377 368 l 377 300 q 389 143 389 222 q 423 -3 389 63 l 411 7 l 400 -37 l 405 -77 l 377 -48 l 366 -82 l 369 -89 l 355 -71 l 344 -131 l 332 -95 l 308 -150 l 297 -140 l 241 -163 l 241 -140 l 220 -140 l 213 -146 l 220 -163 l 220 -173 m 264 -140 l 253 -129 l 241 -140 l 253 -150 l 264 -140 m 241 -116 l 231 -106 l 220 -116 l 231 -129 l 241 -116 m 1066 -106 l 1055 -95 l 1043 -106 l 1055 -116 l 1066 -106 m 1076 -82 l 1066 -71 l 1055 -82 l 1066 -95 l 1076 -82 m 389 -14 l 377 -3 l 366 -14 l 377 -27 l 389 -14 m 140 7 l 140 30 l 128 40 l 117 7 l 140 7 m 930 7 l 919 19 l 908 7 l 919 -3 l 930 7 m 445 19 l 423 233 l 423 334 l 445 74 l 445 19 m 919 30 l 908 40 l 896 30 l 908 19 l 919 30 m 1201 40 l 1191 53 l 1178 40 l 1191 30 l 1201 40 m 128 53 l 117 63 l 105 53 l 128 53 m 162 256 l 151 266 l 140 256 l 151 243 l 162 256 m 105 300 l 94 311 l 84 300 l 94 288 l 105 300 m 1043 334 l 1043 345 l 1032 356 l 1021 334 l 1032 322 l 1043 334 m 140 345 l 128 356 l 117 345 l 128 334 l 140 345 m 400 402 l 423 423 l 400 436 l 377 402 l 389 390 l 400 402 m 998 402 l 987 413 l 975 402 l 987 390 l 998 402 m 987 423 l 975 436 l 964 423 l 975 413 l 987 423 m 445 436 l 423 447 l 411 436 l 434 423 l 445 436 m 468 447 l 478 457 l 457 470 l 434 447 l 468 447 m 489 470 l 478 481 l 468 470 l 478 457 l 489 470 m 512 481 l 501 491 l 489 481 l 501 470 l 512 481 m 434 491 l 423 504 l 411 491 l 423 481 l 434 491 m 94 515 l 84 525 l 72 515 l 84 504 l 94 515 m 625 525 l 614 538 l 603 525 l 614 515 l 625 525 m 580 538 l 569 549 l 557 538 l 569 525 l 580 538 m 614 593 l 603 606 l 591 593 l 603 583 l 614 593 m 84 606 l 84 651 l 72 661 l 61 606 l 72 593 l 84 606 m 377 708 l 366 719 l 355 708 l 366 695 l 377 708 m 852 708 l 841 719 l 828 708 l 841 695 l 852 708 m 389 719 l 377 730 l 366 719 l 389 719 m 411 730 l 423 740 l 400 752 l 377 730 l 411 730 m 72 740 l 72 922 l 56 933 l 56 740 l 61 730 l 72 740 m 434 752 l 423 763 l 411 752 l 423 740 l 434 752 m 501 786 l 489 797 l 478 786 l 489 774 l 501 786 m 478 797 l 468 808 l 457 797 l 478 797 m 489 808 l 478 820 l 468 808 l 489 808 m 501 820 l 489 831 l 478 820 l 501 820 m 523 831 l 569 875 l 546 888 l 489 831 l 523 831 m 580 854 l 569 864 l 557 854 l 569 841 l 580 854 m 186 875 l 186 943 l 174 956 l 162 875 l 174 864 l 186 875 m 231 875 l 231 922 l 220 933 l 207 875 l 220 864 l 231 875 m 580 888 l 569 899 l 557 888 l 569 875 l 580 888 m 603 899 l 614 909 l 591 922 l 569 899 l 603 899 m 625 922 l 614 933 l 603 922 l 614 909 l 625 922 m 648 933 l 659 943 l 637 956 l 614 933 l 648 933 m 671 956 l 659 967 l 648 956 l 659 943 l 671 956 m 693 967 l 671 978 l 659 967 l 693 967 m 105 978 l 94 990 l 84 978 l 94 967 l 105 978 m 705 978 l 693 990 l 682 978 l 705 978 m 716 990 l 705 1001 l 693 990 l 716 990 m 1009 990 l 998 1001 l 987 990 l 998 978 l 1009 990 m 94 1001 l 84 1012 l 72 990 l 84 978 l 94 1001 m 264 1001 l 253 1012 l 241 1001 l 253 990 l 264 1001 m 726 1001 l 716 1012 l 705 1001 l 726 1001 m 1021 1001 l 1009 1012 l 998 1001 l 1021 1001 m 750 1012 l 794 1058 l 773 1069 l 716 1012 l 750 1012 m 1032 1012 l 1021 1024 l 1009 1012 l 1032 1012 m 220 1024 l 207 1035 l 197 1024 l 207 1012 l 220 1024 m 1043 1024 l 1032 1035 l 1021 1024 l 1043 1024 m 806 1035 l 794 1046 l 783 1035 l 794 1024 l 806 1035 m 817 1046 l 806 1058 l 794 1046 l 817 1046 m 862 1046 l 852 1058 l 841 1046 l 852 1035 l 862 1046 m 908 1046 l 896 1058 l 885 1046 l 896 1035 l 908 1046 m 828 1058 l 817 1069 l 806 1058 l 828 1058 m 875 1058 l 862 1069 l 852 1058 l 875 1058 m 987 1058 l 975 1069 l 964 1058 l 975 1046 l 987 1058 m 841 1069 l 830 1077 l 817 1069 l 841 1069 m 964 1069 l 953 1079 l 941 1069 l 953 1058 l 964 1069 m 896 1079 l 908 1091 l 885 1102 l 862 1079 l 885 1069 l 896 1079 m 987 1091 l 975 1102 l 964 1091 l 975 1079 l 987 1091 m 919 1102 l 908 1113 l 896 1102 l 908 1091 l 919 1102 m 896 1113 l 885 1125 l 875 1113 l 885 1102 l 896 1113 m 941 1113 l 941 1125 l 930 1136 l 908 1113 l 941 1113 m 162 -106 l 166 -101 l 174 -116 l 174 -129 l 162 -106 m 84 131 l 97 58 l 94 53 l 84 63 l 84 131 m 27 491 l 33 461 l 27 470 l 27 491 m 930 559 l 927 554 q 875 661 900 607 l 875 674 l 930 559 m 1258 19 q 1223 71 1241 46 l 1225 74 l 1258 30 l 1258 19 m 1225 -116 l 1218 -97 l 1225 -106 l 1225 -116 m 1157 -150 l 1152 -134 l 1157 -140 l 1157 -150 m 411 -116 l 405 -77 l 411 -82 l 411 -116 m 389 -140 l 369 -89 l 389 -116 l 389 -140 m 343 -140 l 344 -131 l 355 -163 l 343 -140 m 321 -173 l 308 -150 l 321 -163 l 321 -173 m 151 -82 l 155 -78 l 164 -93 l 162 -95 l 151 -82 m 105 -3 l 108 -1 l 109 -7 l 105 -3 m 94 19 l 101 39 l 107 9 l 105 7 l 94 19 m 896 53 l 908 63 l 897 53 l 896 53 m 105 108 l 112 120 l 117 97 l 105 108 m 1111 256 l 1111 247 l 1096 270 l 1111 256 m 37 423 l 40 430 l 43 418 l 37 423 m 27 719 l 32 736 l 35 710 l 27 719 m 841 1091 l 842 1089 l 830 1079 l 828 1079 l 841 1091 m 755 220 q 815 135 786 178 q 755 220 785 177 "},"Ù":{"x_min":0,"x_max":0,"ha":694},"Ÿ":{"x_min":0,"x_max":0,"ha":694}}}
